<svg width="16" height="41" viewBox="0 0 16 41" fill="none" xmlns="http://www.w3.org/2000/svg">
<path fill-rule="evenodd" clip-rule="evenodd" d="M9.00201 0.243144C9.07053 0.60344 9.06511 0.621337 8.86266 0.702306C8.76047 0.743181 8.67685 0.812661 8.67685 0.856663C8.67685 0.970535 8.36694 0.951387 8.21235 0.82798C8.01792 0.672763 8.05486 0.49371 8.30525 0.37718C8.42788 0.320049 8.52821 0.233296 8.52821 0.184371C8.52821 0.109264 8.7462 0.00375412 8.90911 2.66634e-06C8.93467 -0.000622576 8.97644 0.108795 9.00201 0.243144ZM8.26705 1.16999C8.38968 1.31254 8.39488 1.34771 8.30228 1.4093C8.2426 1.449 8.16865 1.48198 8.13803 1.48269C8.10741 1.48331 8.08229 1.53333 8.08229 1.59375C8.08229 1.71879 8.38165 1.67088 8.46846 1.53208C8.49685 1.48652 8.5381 1.46823 8.5601 1.49128C8.62215 1.55662 8.46779 2.05127 8.36233 2.12458C8.28994 2.17491 8.29819 2.20875 8.39815 2.27073C8.46972 2.31504 8.52821 2.38686 8.52821 2.43024C8.52821 2.47362 8.49856 2.4898 8.46229 2.46627C8.33921 2.38624 8.21131 2.65064 8.25694 2.89081C8.28474 3.03665 8.27091 3.12512 8.22037 3.12512C8.17392 3.12512 8.15445 3.20859 8.17482 3.32051C8.20194 3.47002 8.17913 3.5159 8.07746 3.5159C8.00432 3.5159 7.92926 3.45439 7.91053 3.37912C7.87924 3.25314 7.8759 3.25353 7.86794 3.38428C7.86319 3.46228 7.8996 3.60296 7.94888 3.6969C7.99808 3.79077 8.05048 3.95489 8.06519 4.0615C8.07991 4.16818 8.12145 4.27463 8.1575 4.29807C8.19496 4.32238 8.19332 4.39014 8.15386 4.45579C8.11573 4.51918 8.08407 4.53238 8.0834 4.48518C8.08281 4.43797 7.98195 4.39639 7.85932 4.39272C7.71239 4.38834 7.63636 4.42422 7.63636 4.49807C7.63636 4.55966 7.68653 4.61007 7.74784 4.61007C7.80916 4.61007 7.85932 4.66658 7.85932 4.73567C7.85932 4.81937 7.89953 4.84501 7.9798 4.81265C8.07738 4.77326 8.08957 4.79756 8.04423 4.94106C8.01347 5.03844 7.98946 5.29393 7.9908 5.50886C7.99221 5.72378 7.95482 5.9255 7.90778 5.95708C7.85144 5.99483 7.86401 6.01491 7.94427 6.01569C8.1766 6.01796 8.17831 6.40545 7.94606 6.41014C7.83339 6.41241 7.83398 6.42202 7.95222 6.51643C8.0238 6.57356 8.08229 6.66032 8.08229 6.70932C8.08229 6.75832 8.11803 6.79842 8.16181 6.79842C8.20551 6.79842 8.23056 6.87759 8.21755 6.97427C8.20447 7.07094 8.16196 7.13871 8.12316 7.12479C8.08429 7.11088 8.02394 7.18052 7.98909 7.2797C7.94866 7.39459 7.95423 7.46993 8.00447 7.48759C8.0478 7.50275 8.05813 7.55613 8.02751 7.60615C7.94843 7.73534 7.95096 8.0489 8.03108 8.0489C8.06794 8.0489 8.07961 8.09986 8.05687 8.16215C8.02922 8.23788 8.05122 8.26101 8.12324 8.23194C8.18975 8.20513 8.23093 8.23655 8.23093 8.31408C8.23093 8.38317 8.20165 8.43968 8.1659 8.43968C8.07835 8.43968 8.08258 8.82139 8.17073 8.87875C8.2096 8.904 8.18596 8.98763 8.11744 9.06727C8.0015 9.20201 8.00336 9.20787 8.14977 9.16762C8.23896 9.14307 8.30525 9.16207 8.30525 9.21209C8.30525 9.26015 8.25508 9.29939 8.19377 9.29939C8.11945 9.29939 8.08229 9.37754 8.08229 9.53385C8.08229 9.71619 8.04929 9.76832 7.93364 9.76832C7.85189 9.76832 7.785 9.80349 7.785 9.84647C7.785 9.88946 7.82045 9.92463 7.86371 9.92463C7.90696 9.92463 7.91826 9.96574 7.88868 10.0161C7.85301 10.0767 7.87478 10.0914 7.95319 10.0598C8.11922 9.99278 8.25917 10.1904 8.17214 10.369C8.04929 10.6211 8.08087 11.0855 8.24022 11.3695L8.39362 11.6429L8.16478 11.7802C8.03896 11.8558 7.91692 11.9694 7.89358 12.0328C7.84542 12.1636 8.0701 12.3691 8.20276 12.3156C8.25977 12.2926 8.29039 12.3758 8.29039 12.5538C8.29039 12.7184 8.24824 12.8443 8.1844 12.8701C8.05152 12.9237 8.19072 13.129 8.36002 13.129C8.45456 13.129 8.45233 13.1589 8.34516 13.331C8.22632 13.5216 8.22677 13.5417 8.35222 13.6875C8.44311 13.7931 8.45902 13.859 8.40246 13.8958C8.35705 13.9254 8.2999 14.1255 8.27545 14.3404C8.25107 14.5553 8.25055 14.6873 8.27441 14.6335C8.29819 14.5797 8.37615 14.5358 8.44765 14.5358C8.61063 14.5358 8.60342 14.7878 8.43479 14.9837C8.36054 15.07 8.31907 15.2379 8.32792 15.4161C8.33996 15.6586 8.36954 15.7075 8.50465 15.7078C8.60246 15.708 8.68592 15.7714 8.71498 15.8677C8.7731 16.0602 8.69097 16.6276 8.59607 16.6893C8.47329 16.7691 8.52494 16.8661 8.73259 16.9459C8.84504 16.9891 8.89514 17.0272 8.84408 17.0306C8.79294 17.0339 8.75117 17.1247 8.75117 17.2321C8.75117 17.3538 8.70904 17.4275 8.63969 17.4275C8.57838 17.4275 8.52821 17.4627 8.52821 17.5057C8.52821 17.5487 8.57838 17.5838 8.63969 17.5838C8.75905 17.5838 8.76901 17.6572 8.75244 18.4092C8.74278 18.8467 8.75653 18.89 8.93237 18.9742C9.14314 19.0752 9.19234 19.3583 9.01174 19.4311C8.95065 19.4558 8.91773 19.505 8.93861 19.5405C8.9595 19.576 8.93898 19.6295 8.89313 19.6593C8.83181 19.6992 8.83248 19.7284 8.89558 19.7695C8.94292 19.8002 8.98573 19.9101 8.99086 20.0137C8.99591 20.1172 9.05277 20.2682 9.11721 20.3492C9.22705 20.4872 9.22393 20.493 9.06704 20.4417C8.93073 20.397 8.89982 20.4168 8.89982 20.5485C8.89982 20.6374 8.92761 20.7101 8.96165 20.7101C9.05344 20.7101 9.19443 21.2508 9.14188 21.4009C9.11691 21.4723 9.06057 21.5566 9.01672 21.5881C8.96819 21.6231 8.98618 21.646 9.06265 21.6467C9.25633 21.6485 9.28874 21.7768 9.16106 22.0364C9.08636 22.1883 9.07417 22.2732 9.12709 22.2732C9.17243 22.2732 9.1945 22.3172 9.17614 22.3709C9.13497 22.4918 9.25879 22.7595 9.33355 22.7109C9.36358 22.6914 9.39264 22.7344 9.39799 22.8064C9.41397 23.0201 9.46183 23.2028 9.51698 23.2609C9.54544 23.2907 9.56871 23.4114 9.56871 23.529C9.56871 23.6831 9.50122 23.7905 9.32716 23.9135C9.1511 24.0378 9.12843 24.0744 9.2434 24.0483C9.36841 24.0199 9.39368 24.0428 9.36484 24.1588C9.34478 24.2393 9.36693 24.3052 9.41404 24.3052C9.47685 24.3052 9.47826 24.3472 9.41925 24.4632C9.30962 24.6785 9.39755 24.797 9.62296 24.7376C9.78885 24.6937 9.79724 24.7013 9.69817 24.8055C9.44281 25.0739 9.45648 26.1411 9.71876 26.4169C9.83232 26.5363 9.86473 26.6358 9.82868 26.7547C9.73965 27.0488 9.72701 27.3894 9.80334 27.439C9.84763 27.4678 9.83039 27.5358 9.76001 27.6098C9.60921 27.7684 9.61055 27.9003 9.76291 27.9003C9.85373 27.9003 9.87498 27.9569 9.85038 28.1329C9.83255 28.2608 9.85388 28.3796 9.89773 28.3969C9.94685 28.4162 9.91058 28.5554 9.80341 28.759C9.67759 28.998 9.65187 29.1132 9.71051 29.1749C9.75518 29.2219 9.79167 29.3587 9.79167 29.4791C9.79167 29.6345 9.82935 29.6986 9.92173 29.7003C10.0448 29.7025 10.0447 29.707 9.92047 29.783C9.82786 29.8398 9.80861 29.8999 9.85506 29.9872C9.93258 30.1328 9.88071 30.4013 9.77502 30.4013C9.73459 30.4013 9.72211 30.458 9.74737 30.5272C9.7803 30.6173 9.76142 30.6403 9.68101 30.6079C9.53482 30.5489 9.53823 30.6272 9.6897 30.8031C9.77235 30.8992 9.81359 31.1022 9.81976 31.4434C9.82638 31.8078 9.85402 31.9332 9.92173 31.9063C10.0429 31.8584 10.0459 32.2129 9.92545 32.3396C9.87469 32.3929 9.86859 32.4333 9.91133 32.4333C9.95421 32.4333 9.99397 32.7019 10.0041 33.0586C10.0158 33.4763 9.99427 33.6838 9.93905 33.6838C9.89364 33.6838 9.86339 33.7806 9.87179 33.8988C9.89022 34.1578 9.80029 34.4654 9.70605 34.4654C9.66718 34.4654 9.6703 34.4015 9.71341 34.3169C9.77153 34.2027 9.76164 34.1574 9.6706 34.1206C9.57079 34.0803 9.55949 34.1188 9.59851 34.3668C9.624 34.5285 9.64645 34.7223 9.64853 34.7975C9.65061 34.8727 9.67944 34.9343 9.71267 34.9343C9.74589 34.9343 9.77309 35.0222 9.77309 35.1297C9.77309 35.2372 9.74381 35.3251 9.70806 35.3251C9.67231 35.3251 9.64303 35.3778 9.64303 35.4423C9.64303 35.5068 9.59286 35.5596 9.53155 35.5596C9.39606 35.5596 9.3858 35.7263 9.51297 35.8614C9.58736 35.9404 9.58 35.9754 9.47581 36.0372C9.40423 36.0797 9.34574 36.2006 9.34574 36.3059C9.34574 36.4112 9.3071 36.4974 9.2599 36.4974C9.20981 36.4974 9.22735 36.5593 9.30212 36.6462C9.41211 36.774 9.41635 36.8204 9.33222 36.9748C9.27833 37.0737 9.16968 37.2127 9.09075 37.2837C8.89922 37.4559 8.85195 38.1674 9.01464 38.4286C9.12769 38.61 9.13229 38.6106 9.35711 38.4733C9.48242 38.3967 9.60639 38.2771 9.63262 38.2074C9.71958 37.976 10.2156 37.458 10.3959 37.4104C10.4936 37.3846 10.6288 37.2654 10.6964 37.1454C10.9361 36.7199 11.167 36.4974 11.3691 36.4974C11.4861 36.4974 11.6118 36.4301 11.6767 36.3327C11.7371 36.242 11.8226 36.1914 11.8667 36.2201C11.9109 36.2487 11.947 36.2311 11.947 36.181C11.947 36.131 11.9971 36.1102 12.0585 36.1349C12.1343 36.1655 12.1699 36.1307 12.1699 36.0261C12.1699 35.9414 12.201 35.8722 12.239 35.8722C12.2769 35.8722 12.3653 35.812 12.4352 35.7384C12.5052 35.6648 12.6129 35.5968 12.6746 35.5872C12.7363 35.5778 12.8069 35.5409 12.8314 35.5054C12.9162 35.3826 13.4964 35.0184 13.6875 34.968C13.793 34.9402 13.8793 34.8872 13.8793 34.8504C13.8793 34.8136 13.9797 34.6755 14.1023 34.5435C14.2249 34.4116 14.3253 34.2534 14.3253 34.1919C14.3253 34.0592 14.5944 33.8908 14.6984 33.9584C14.7384 33.9844 14.7712 33.9659 14.7712 33.9174C14.7712 33.7544 14.9972 33.5892 15.2356 33.5779C15.5234 33.5642 15.5987 33.7643 15.3491 33.8794C15.256 33.9223 15.1751 34.0277 15.1692 34.1137C15.1634 34.1997 15.155 34.3451 15.1507 34.4369C15.1406 34.6495 14.5229 35.3249 14.158 35.5224C14.0048 35.6054 13.8793 35.7271 13.8793 35.793C13.8793 35.9449 13.6219 36.1178 13.4805 36.0608C13.4064 36.0308 13.3577 36.0916 13.323 36.2574C13.2765 36.4804 13.1893 36.5368 12.9398 36.5052C12.8931 36.4993 12.8596 36.5552 12.8654 36.6293C12.8715 36.7069 12.7857 36.8108 12.6638 36.8735C12.4191 36.9995 12.1699 37.2434 12.1699 37.3571C12.1699 37.4001 12.1103 37.4353 12.0373 37.4353C11.9643 37.4353 11.7555 37.6123 11.5732 37.8286C11.3909 38.0451 11.1161 38.3136 10.9627 38.4254C10.8091 38.5374 10.6835 38.6754 10.6835 38.7323C10.6835 39.0045 10.4099 39.3898 10.1261 39.5172C9.96261 39.5906 9.80371 39.6446 9.77309 39.6372C9.74247 39.6297 9.71735 39.694 9.71735 39.7799C9.71735 39.8659 9.6839 39.9363 9.64303 39.9363C9.60215 39.9363 9.56871 40.0242 9.56871 40.1316C9.56871 40.2533 9.52657 40.327 9.45722 40.327C9.39591 40.327 9.27885 40.3974 9.1971 40.4833C9.11535 40.5693 9.01501 40.6397 8.97414 40.6397C8.93326 40.6397 8.89982 40.6748 8.89982 40.7178C8.89982 40.7608 8.85247 40.796 8.7945 40.796C8.73661 40.796 8.67678 40.8354 8.66147 40.8836C8.64623 40.9317 8.50963 40.9791 8.35802 40.9888C8.15497 41.0017 8.08229 40.9754 8.08229 40.889C8.08229 40.7911 8.0588 40.7941 7.93981 40.9073C7.8258 41.0158 7.76627 41.0254 7.64156 40.9552C7.51782 40.8855 7.50117 40.8374 7.56048 40.7209C7.61369 40.6163 7.60953 40.5651 7.54599 40.5428C7.49693 40.5256 7.44848 40.3738 7.43822 40.2055C7.42796 40.0371 7.38478 39.8872 7.3422 39.8722C7.29961 39.8573 7.26476 39.7601 7.26476 39.6562C7.26476 39.5523 7.23049 39.4673 7.18858 39.4673C7.14673 39.4673 7.08066 39.3794 7.04179 39.2719C7.00292 39.1645 6.93915 39.0765 6.89999 39.0765C6.86089 39.0765 6.80761 39.0062 6.78167 38.9202C6.75573 38.8343 6.69196 38.7639 6.63994 38.7639C6.58791 38.7639 6.50728 38.676 6.46075 38.5685C6.41415 38.4611 6.34801 38.3731 6.31367 38.3731C6.27933 38.3731 6.11969 38.1623 5.95901 37.9046C5.79833 37.6469 5.64248 37.4359 5.61275 37.4357C5.52839 37.4351 4.66397 36.5506 4.65965 36.4605C4.6575 36.4163 4.4517 36.2043 4.20228 35.9894C3.95294 35.7745 3.65127 35.458 3.53191 35.286C3.41262 35.1141 3.30069 34.9822 3.28323 34.9929C3.19746 35.0457 3.10285 34.9889 2.82749 34.7194C2.6628 34.5582 2.35875 34.2715 2.15177 34.0822C1.94478 33.893 1.75571 33.6555 1.73163 33.5546C1.68785 33.3714 1.56262 33.3277 1.18262 33.3631C0.939962 33.3857 0.770064 33.2283 0.88281 33.0854C0.990055 32.9496 0.951482 32.9074 0.699905 32.8855C0.490914 32.8673 0.416965 32.6678 0.619192 32.6678C0.683926 32.6678 0.723093 32.6242 0.706148 32.5708C0.689203 32.5174 0.711499 32.4351 0.75572 32.3878C0.799867 32.3405 0.914618 32.1929 1.01079 32.0598C1.19377 31.8065 1.57504 31.6157 1.71565 31.7071C1.76091 31.7365 1.88659 31.7535 1.99495 31.7448C2.10331 31.7361 2.23374 31.7819 2.28487 31.8467C2.33593 31.9114 2.42267 31.9644 2.47752 31.9644C2.53244 31.9644 2.61308 32.0348 2.65685 32.1207C2.70063 32.2067 2.77703 32.2765 2.82668 32.2759C2.88963 32.275 2.88643 32.2543 2.81612 32.2075C2.74477 32.1599 2.73965 32.1244 2.79866 32.0861C2.94001 31.9942 3.5354 32.448 3.56216 32.6678C3.57999 32.8146 3.63209 32.8653 3.77167 32.8716C4.16795 32.8898 4.21759 32.906 4.21759 33.0171C4.21759 33.0802 4.25936 33.1153 4.31049 33.0951C4.41677 33.053 4.88611 33.4877 4.88723 33.6292C4.88767 33.6807 4.97284 33.7933 5.07645 33.8792C5.18012 33.9652 5.36489 34.1323 5.487 34.2505C5.60918 34.3687 5.74303 34.4654 5.78443 34.4654C5.85719 34.4654 5.99416 34.6048 6.36094 35.0522C6.48639 35.2051 6.51225 35.288 6.45384 35.3494C6.28781 35.524 6.36116 35.6529 6.59579 35.5986C6.78003 35.5561 6.8108 35.5687 6.77334 35.6715C6.73886 35.7658 6.75974 35.783 6.85993 35.7425C6.94436 35.7084 6.97423 35.7193 6.94287 35.7726C6.91597 35.8184 6.95952 35.9387 7.03971 36.0399C7.1199 36.1411 7.18657 36.1963 7.18798 36.1625C7.18932 36.1288 7.25606 36.1381 7.33633 36.1832C7.41652 36.2284 7.46475 36.3131 7.4435 36.3714C7.41823 36.4405 7.47746 36.4922 7.61347 36.5196C7.72822 36.5428 7.8264 36.5561 7.83153 36.5492C7.83666 36.5422 7.86534 36.453 7.89522 36.3509C7.92971 36.2329 7.92227 36.183 7.87471 36.2139C7.80559 36.2588 7.80187 36.162 7.84728 35.5009C7.85568 35.3782 7.90666 35.3251 8.01592 35.3251C8.12324 35.3251 8.15928 35.2889 8.13052 35.2101C8.10748 35.1469 8.13736 35.0439 8.19689 34.9812C8.25739 34.9177 8.30525 34.7224 8.30525 34.5396C8.30525 34.257 8.28986 34.2252 8.19377 34.3091C8.13245 34.3626 8.07954 34.3932 8.07612 34.3772C8.04163 34.2153 8.04163 33.9965 8.07612 33.9964C8.12978 33.9963 8.12539 33.1982 8.07114 33.0948C8.04944 33.0534 8.03658 32.7539 8.0426 32.4291C8.05025 32.0157 8.0912 31.782 8.17935 31.6497C8.2617 31.5261 8.30525 31.3075 8.30525 31.0183C8.30525 30.6283 8.28541 30.5692 8.13803 30.5194C7.98567 30.4679 7.98329 30.4595 8.11164 30.4242C8.22454 30.3932 8.23189 30.372 8.1488 30.3176C8.064 30.2621 8.06214 30.2209 8.13862 30.0911C8.19013 30.0038 8.20566 29.9324 8.17318 29.9324C8.1407 29.9324 8.10763 29.8708 8.09968 29.7956C8.09172 29.7204 8.07084 29.5387 8.05315 29.3918C8.03546 29.2449 8.05144 29.0407 8.0886 28.9379C8.12576 28.8352 8.13119 28.7675 8.10064 28.7875C8.0701 28.8075 8.05612 28.5633 8.06958 28.2449C8.08942 27.7755 8.07329 27.6659 7.98463 27.6659C7.83324 27.6659 7.77259 27.4613 7.89284 27.3564C8.03918 27.2288 8.08905 26.9625 7.96664 26.9625C7.88675 26.9625 7.86571 26.7851 7.86861 26.136C7.87159 25.4563 7.84922 25.2828 7.74279 25.159C7.62217 25.0189 7.62172 24.9988 7.73632 24.8657C7.80395 24.787 7.85932 24.6639 7.85932 24.5921C7.85932 24.5203 7.88742 24.4615 7.92168 24.4615C7.95601 24.4615 8.02409 24.3693 8.07292 24.2565C8.15765 24.061 8.15289 24.0532 7.9708 24.0899C7.86579 24.111 7.79615 24.1111 7.81607 24.0902C7.83599 24.0692 7.80366 24.001 7.74427 23.9387C7.60128 23.7882 7.6076 23.68 7.75936 23.68C7.86995 23.68 7.86884 23.6642 7.74784 23.5236C7.62685 23.383 7.62573 23.3673 7.73632 23.3673C7.89076 23.3673 7.89358 23.2936 7.74346 23.1783C7.65449 23.1098 7.64416 23.0434 7.69886 22.892C7.7442 22.7667 7.74427 22.6462 7.69923 22.5615C7.66022 22.4882 7.65115 22.3894 7.67902 22.3419C7.70689 22.2945 7.68363 22.2217 7.62729 22.1803C7.5558 22.1277 7.55052 22.0938 7.6099 22.0681C7.70325 22.0276 7.66475 21.8008 7.51232 21.4937C7.39296 21.2532 7.3827 20.8664 7.49567 20.8664C7.54093 20.8664 7.55869 20.8136 7.53513 20.7491C7.51165 20.6847 7.5248 20.6319 7.56434 20.6319C7.60396 20.6319 7.63636 20.5967 7.63636 20.5537C7.63636 20.5108 7.5914 20.4756 7.5364 20.4756C7.4814 20.4756 7.37951 20.4094 7.30994 20.3286C7.19571 20.1959 7.1946 20.1698 7.29842 20.0606C7.36167 19.9941 7.4134 19.902 7.4134 19.8559C7.4134 19.8099 7.46877 19.7722 7.5364 19.7722C7.6484 19.7722 7.64773 19.7587 7.52919 19.6209C7.43116 19.507 7.39623 19.3189 7.38761 18.8589C7.37876 18.3855 7.3532 18.2533 7.27382 18.2711C7.19853 18.2879 7.18597 18.2465 7.22648 18.1148C7.31083 17.8403 7.29017 17.5707 7.17914 17.4967C7.10288 17.4459 7.10147 17.4296 7.17327 17.4287C7.23666 17.4279 7.25227 17.3634 7.22098 17.2321C7.19281 17.1143 7.20612 17.0368 7.25435 17.0368C7.29842 17.0368 7.31596 16.9862 7.29344 16.9245C7.2707 16.8622 7.20218 16.8325 7.1396 16.8577C7.05807 16.8906 7.03518 16.8621 7.05725 16.7551C7.07405 16.6736 7.12763 16.6157 7.17624 16.6264C7.22492 16.6372 7.26476 16.5932 7.26476 16.5288C7.26476 16.4643 7.2982 16.4115 7.33908 16.4115C7.44922 16.4115 7.42923 16.2607 7.30125 16.1261C7.23956 16.0612 7.20574 15.9798 7.22611 15.9452C7.24647 15.9105 7.21422 15.8395 7.15454 15.7874C7.05948 15.7044 7.06007 15.6777 7.15937 15.5733C7.2218 15.5077 7.26267 15.3617 7.25019 15.2489C7.23168 15.081 7.19393 15.0479 7.04179 15.0669C6.90526 15.0837 6.88356 15.0703 6.95989 15.016C7.04818 14.9532 7.04566 14.8943 6.9428 14.624C6.80136 14.2522 6.84566 14.0404 7.05056 14.1089C7.27167 14.1827 7.22774 13.844 6.98516 13.6049C6.79936 13.4217 6.77877 13.347 6.76747 12.8164C6.76064 12.494 6.7315 12.0984 6.70289 11.9371C6.6684 11.7435 6.67836 11.644 6.73217 11.644C6.77699 11.644 6.85212 11.5684 6.89917 11.4759C6.97163 11.3335 6.96673 11.315 6.86699 11.3553C6.69204 11.4258 6.64343 11.2755 6.75201 10.9997C6.82574 10.8126 6.82745 10.7483 6.75922 10.7244C6.64841 10.6855 6.64098 10.4717 6.75038 10.4717C6.8004 10.4717 6.81266 10.3857 6.78293 10.2433C6.7396 10.0358 6.75105 10.0183 6.90712 10.0522C7.02522 10.0778 7.00575 10.0537 6.84484 9.97504C6.64544 9.87758 6.61073 9.81865 6.61073 9.57778C6.61073 9.42217 6.65993 9.24319 6.72006 9.17989C6.78026 9.11666 6.80107 9.06492 6.76643 9.06492C6.68245 9.06492 6.74087 8.4271 6.83629 8.30291C6.88572 8.23859 6.88601 8.20521 6.83719 8.20521C6.69999 8.20521 6.69932 7.37372 6.83637 7.14332C6.95156 6.94973 7.02455 6.4146 6.94027 6.38185C6.87888 6.35793 6.88059 6.32159 6.94629 6.2482C7.01764 6.16856 7.01043 6.12722 6.91195 6.05149C6.80664 5.97052 6.8027 5.93613 6.88646 5.82992C6.94101 5.76083 6.96078 5.70424 6.93031 5.70424C6.89984 5.70424 6.91782 5.64993 6.97029 5.58342C7.02269 5.51698 7.10868 5.48009 7.16137 5.50135C7.22143 5.52558 7.24179 5.49776 7.21585 5.42671C7.1694 5.29932 6.96747 5.27079 6.96747 5.39162C6.96747 5.43461 6.92882 5.46978 6.88163 5.46978C6.83027 5.46978 6.84521 5.41233 6.91879 5.32683C6.98642 5.24821 7.04179 5.10753 7.04179 5.01421C7.04179 4.92089 7.07524 4.84454 7.11611 4.84454C7.15699 4.84454 7.19043 4.80335 7.19043 4.75302C7.19043 4.70268 7.2458 4.59717 7.31343 4.51855C7.429 4.38428 7.4267 4.3756 7.27627 4.3756C7.1882 4.3756 7.11336 4.34919 7.11002 4.31699C7.10667 4.28479 7.08876 4.16169 7.07033 4.04344C7.05175 3.92473 7.07115 3.82852 7.11359 3.82852C7.15588 3.82852 7.19043 3.77576 7.19043 3.71128C7.19043 3.64681 7.2406 3.59405 7.30192 3.59405C7.36323 3.59405 7.4134 3.55888 7.4134 3.5159C7.4134 3.47291 7.38263 3.43774 7.34495 3.43774C7.30734 3.43774 7.25324 3.32598 7.2247 3.18944C7.18612 3.00492 7.20374 2.91738 7.29315 2.84868C7.35929 2.79781 7.4134 2.71613 7.4134 2.66713C7.4134 2.61813 7.46133 2.57803 7.5199 2.57803C7.59013 2.57803 7.62425 2.49808 7.62008 2.34357C7.61659 2.21461 7.58612 2.1091 7.5523 2.1091C7.4756 2.1091 7.63591 1.71864 7.77549 1.56553C7.84661 1.48753 7.85293 1.44251 7.79556 1.42243C7.73513 1.40125 7.73394 1.34974 7.79132 1.23704C7.83495 1.15115 7.91618 1.09934 7.9717 1.12169C8.02721 1.14412 8.08407 1.12653 8.09797 1.08269C8.11187 1.03884 8.18797 1.07815 8.26705 1.16999ZM7.75104 7.73089C7.72748 7.7709 7.74227 7.82569 7.78381 7.85273C7.82536 7.8797 7.85932 7.84695 7.85932 7.77997C7.85932 7.64265 7.81473 7.62249 7.75104 7.73089ZM7.16204 8.32651C7.1367 8.39607 7.14919 8.42741 7.19125 8.40005C7.23168 8.37379 7.26476 8.31924 7.26476 8.27876C7.26476 8.16637 7.21147 8.19114 7.16204 8.32651ZM6.81883 8.6446C6.81883 8.81873 6.83577 8.83483 6.9312 8.75152C7.01675 8.67688 7.02343 8.6278 6.9593 8.54652C6.8406 8.39615 6.81883 8.41131 6.81883 8.6446ZM7.45056 8.67414C7.47583 8.71713 7.52793 8.7523 7.56642 8.7523C7.60492 8.7523 7.63636 8.71713 7.63636 8.67414C7.63636 8.63116 7.58419 8.59599 7.52049 8.59599C7.4568 8.59599 7.42529 8.63116 7.45056 8.67414ZM7.02106 9.71251C6.99965 9.77105 7.03926 9.81294 7.11611 9.81294C7.19296 9.81294 7.23257 9.77105 7.21117 9.71251C7.19103 9.65726 7.14822 9.61201 7.11611 9.61201C7.08401 9.61201 7.0412 9.65726 7.02106 9.71251ZM8.13208 21.915C8.10986 21.9759 8.13974 22.0452 8.19845 22.0689C8.26898 22.0973 8.30525 22.0597 8.30525 21.9581C8.30525 21.7802 8.19161 21.7519 8.13208 21.915ZM8.7864 24.1338C8.80922 24.1579 8.8692 24.1339 8.91966 24.0804C8.9925 24.0032 8.98395 23.9943 8.87804 24.0367C8.80476 24.066 8.76351 24.1097 8.7864 24.1338ZM8.15661 24.696C8.07002 24.7548 8.0918 24.772 8.25389 24.773C8.37437 24.7737 8.44326 24.7411 8.41673 24.696C8.35973 24.5989 8.29938 24.5989 8.15661 24.696ZM9.56871 33.5582C9.56871 33.5751 9.61887 33.6092 9.68019 33.634C9.7415 33.6587 9.79167 33.6448 9.79167 33.6033C9.79167 33.5616 9.7415 33.5275 9.68019 33.5275C9.61887 33.5275 9.56871 33.5414 9.56871 33.5582ZM8.15661 33.562C8.15661 33.581 8.19005 33.6182 8.23093 33.6448C8.2718 33.6713 8.30525 33.6558 8.30525 33.6103C8.30525 33.5648 8.2718 33.5275 8.23093 33.5275C8.19005 33.5275 8.15661 33.543 8.15661 33.562Z" fill="#A68D6E"/>
</svg>
