<svg width="60" height="35" viewBox="0 0 60 35" fill="none" xmlns="http://www.w3.org/2000/svg">
<path d="M0 23.4789C0 13.1643 7.45574 3.73131 23.2401 0.0874023C26.9134 1.61549 28.4045 5.02431 28.0045 7.99233C23.6401 9.07962 16.5845 12.2827 16.3299 17.3078C18.6212 17.6311 21.2034 18.0718 22.5854 18.9534C23.3856 20.3934 24.0766 23.2438 24.0766 25.4184C24.0766 27.5049 23.531 30.6786 22.5854 32.1185C20.1487 33.2058 15.6752 34.0874 12.111 34.0874C8.58319 34.0874 4.10975 33.3234 1.63662 32.1185C0.400063 29.1799 0 26.5351 0 23.4789ZM31.9324 23.4789C31.9324 13.1643 39.3881 3.73131 55.1725 0.0874023C58.8458 1.61549 60.3369 5.02431 59.9369 7.99233C55.5725 9.07962 48.5169 12.2827 48.2623 17.3078C50.5535 17.6311 53.1358 18.0718 54.5178 18.9534C55.318 20.3934 56.009 23.2438 56.009 25.4184C56.009 27.5049 55.4634 30.6786 54.5178 32.1185C52.0811 33.2058 47.5713 34.0874 44.0434 34.0874C40.5156 34.0874 36.0421 33.3234 33.569 32.1185C32.3325 29.1799 31.9324 26.5351 31.9324 23.4789Z" fill="#A68D6E"/>
</svg>
