<svg width="40" height="40" viewBox="0 0 40 40" fill="none" xmlns="http://www.w3.org/2000/svg">
<path fill-rule="evenodd" clip-rule="evenodd" d="M8.33398 20.0005C8.33439 14.4346 12.2664 9.64415 17.7254 8.55867C23.1843 7.47319 28.6499 10.395 30.7795 15.5373C32.9092 20.6796 31.1098 26.6102 26.4818 29.7022C21.8538 32.7941 15.6861 32.1863 11.7507 28.2505C9.56278 26.0624 8.33376 23.0948 8.33398 20.0005Z" stroke="#080808" stroke-linecap="round" stroke-linejoin="round"/>
<path d="M15.2715 24.0204C15.0762 24.2156 15.0762 24.5322 15.2714 24.7275C15.4666 24.9228 15.7832 24.9229 15.9785 24.7276L15.2715 24.0204ZM20.3535 20.3543C20.5488 20.1591 20.5488 19.8425 20.3536 19.6472C20.1584 19.4519 19.8418 19.4518 19.6465 19.6471L20.3535 20.3543ZM19.6463 19.6473C19.4511 19.8426 19.4512 20.1592 19.6466 20.3544C19.8419 20.5496 20.1585 20.5494 20.3537 20.3541L19.6463 19.6473ZM24.727 15.9774C24.9222 15.7821 24.9221 15.4655 24.7268 15.2703C24.5314 15.0751 24.2148 15.0753 24.0196 15.2706L24.727 15.9774ZM20.3535 19.6471C20.1582 19.4518 19.8416 19.4519 19.6464 19.6472C19.4512 19.8425 19.4512 20.1591 19.6465 20.3543L20.3535 19.6471ZM24.0215 24.7276C24.2168 24.9229 24.5334 24.9228 24.7286 24.7275C24.9238 24.5322 24.9238 24.2156 24.7285 24.0204L24.0215 24.7276ZM19.6464 20.3542C19.8416 20.5495 20.1582 20.5495 20.3535 20.3543C20.5488 20.1591 20.5488 19.8425 20.3536 19.6472L19.6464 20.3542ZM15.9786 15.2705C15.7834 15.0752 15.4668 15.0752 15.2715 15.2704C15.0762 15.4656 15.0762 15.7822 15.2714 15.9775L15.9786 15.2705ZM15.9785 24.7276L20.3535 20.3543L19.6465 19.6471L15.2715 24.0204L15.9785 24.7276ZM20.3537 20.3541L24.727 15.9774L24.0196 15.2706L19.6463 19.6473L20.3537 20.3541ZM19.6465 20.3543L24.0215 24.7276L24.7285 24.0204L20.3535 19.6471L19.6465 20.3543ZM20.3536 19.6472L15.9786 15.2705L15.2714 15.9775L19.6464 20.3542L20.3536 19.6472Z" fill="#080808"/>
</svg>
