<svg width="302" height="6" viewBox="0 0 302 6" fill="none" xmlns="http://www.w3.org/2000/svg">
<path fill-rule="evenodd" clip-rule="evenodd" d="M0.0280945 5.90111C0.220387 6.04562 0.989575 6.03358 2.33562 5.85294C4.87388 5.52177 4.7585 5.05212 5.22 3.49864C11.1426 3.51671 17.0652 3.52267 29.9103 3.63707C50.8317 3.81771 103.712 3.77562 125.864 3.56488C135.979 3.46854 296.235 3.32403 296.235 3.32403C296.581 6.37076 300.773 4.72697 301.081 4.39581C301.388 4.03453 301.542 3.40833 301.773 2.21011C302.196 -0.0719342 302.196 -0.0839763 300.273 0.042469C296.773 0.271275 296.966 0.807163 296.62 2.24021C296.62 2.24021 54.1006 2.7941 32.9101 2.63755C22.9109 2.5653 16.9882 2.59546 9.33502 2.75201C7.75822 2.78212 6.21992 2.81223 5.91226 2.81223C5.37384 2.81223 5.41229 2.42085 5.60459 0.578357C5.71996 -0.403101 1.10495 0.223044 0.989575 0.686677C0.374221 3.01689 -0.125739 5.76262 0.0280945 5.90111Z" fill="#A68D6E"/>
</svg>
