<svg width="48" height="6" viewBox="0 0 48 6" fill="none" xmlns="http://www.w3.org/2000/svg">
<g id="Group">
<path id="Vector" fill-rule="evenodd" clip-rule="evenodd" d="M2.2349 1.6242C1.14791 1.79001 0.500339 1.93925 0.396265 2.10507C0.141863 2.46987 0.650666 2.65227 2.25802 2.66885C2.26959 2.66885 44.0031 1.30914 44.0146 1.30914C45.8995 1.19307 46.0498 1.04383 46.0498 0.761941C46.0498 0.397142 45.541 0.148416 44.4541 0.0323432C43.0201 -0.150057 10.2717 0.446889 2.2349 1.6242ZM44.72 2.45329C44.2112 2.48645 11.0927 3.58085 10.2601 3.68034C0.0609162 4.75815 -0.725415 4.92397 0.373138 5.7199C0.90507 6.10128 1.91111 6.10128 6.27064 5.67015C16.7821 4.65866 46.709 4.54259 47.7613 3.99539C48.2469 3.73008 48.3163 2.27089 44.72 2.45329Z" fill="#FFDF44"/>
</g>
</svg>
