<svg width="24" height="24" viewBox="0 0 24 24" fill="none" xmlns="http://www.w3.org/2000/svg">
<rect width="24" height="24" rx="8" fill="#E9DABB"/>
<path fill-rule="evenodd" clip-rule="evenodd" d="M19 12C19 15.866 15.866 19 12 19C8.13401 19 5 15.866 5 12C5 8.13401 8.13401 5 12 5C13.8565 5 15.637 5.7375 16.9497 7.05025C18.2625 8.36301 19 10.1435 19 12Z" stroke="#080808" stroke-linecap="round" stroke-linejoin="round"/>
<path d="M12.0005 15.0707C11.7243 15.0707 11.5005 15.2946 11.5005 15.5707C11.5005 15.8469 11.7243 16.0707 12.0005 16.0707V15.0707ZM10.5005 10.9997L10.8488 10.6411C10.8295 10.6222 10.8086 10.605 10.7865 10.5896L10.5005 10.9997ZM10.0005 9.99971L10.5002 10.017C10.5004 10.0112 10.5005 10.0055 10.5005 9.99971H10.0005ZM12.0005 8.92871C12.2766 8.92871 12.5005 8.70485 12.5005 8.42871C12.5005 8.15257 12.2766 7.92871 12.0005 7.92871V8.92871ZM11.98 16.0711C12.2559 16.0824 12.4887 15.8679 12.5 15.592C12.5113 15.3161 12.2968 15.0832 12.0208 15.0719L11.98 16.0711ZM10.4959 13.2534C10.5329 12.9798 10.341 12.728 10.0673 12.691C9.79367 12.6541 9.54186 12.8459 9.5049 13.1196L10.4959 13.2534ZM12.5005 15.5713C12.5005 15.2951 12.2766 15.0713 12.0005 15.0713C11.7243 15.0713 11.5005 15.2951 11.5005 15.5713H12.5005ZM11.5005 17.0003C11.5005 17.2764 11.7243 17.5003 12.0005 17.5003C12.2766 17.5003 12.5005 17.2764 12.5005 17.0003H11.5005ZM11.9723 7.92979C11.6966 7.94533 11.4857 8.18143 11.5012 8.45714C11.5167 8.73284 11.7528 8.94375 12.0285 8.92821L11.9723 7.92979ZM13.5175 9.04604L13.1489 9.38389L13.5175 9.04604ZM13.5055 10.5396C13.4661 10.8129 13.6557 11.0664 13.929 11.1059C14.2023 11.1453 14.4558 10.9557 14.4953 10.6824L13.5055 10.5396ZM11.5004 8.429C11.5004 8.70514 11.7243 8.929 12.0004 8.929C12.2765 8.929 12.5004 8.70514 12.5004 8.429H11.5004ZM12.5004 7C12.5004 6.72386 12.2765 6.5 12.0004 6.5C11.7243 6.5 11.5004 6.72386 11.5004 7H12.5004ZM12.0005 16.0707C12.3941 16.0707 12.9863 15.9801 13.499 15.6866C14.0363 15.3791 14.5005 14.8329 14.5005 13.9807H13.5005C13.5005 14.4005 13.2981 14.6494 13.0022 14.8188C12.6816 15.0023 12.2738 15.0707 12.0005 15.0707V16.0707ZM14.5005 13.9807C14.5005 13.45 14.3357 13.0291 14.0425 12.6905C13.766 12.3712 13.397 12.1515 13.0424 11.9684C12.2938 11.5817 11.5289 11.3016 10.8488 10.6411L10.1521 11.3584C10.972 12.1548 11.9571 12.5332 12.5835 12.8568C12.9164 13.0288 13.1412 13.1772 13.2865 13.3451C13.4152 13.4938 13.5005 13.6794 13.5005 13.9807H14.5005ZM10.7865 10.5896C10.6001 10.4596 10.4923 10.244 10.5002 10.017L9.50075 9.98247C9.48122 10.5485 9.74989 11.0858 10.2144 11.4098L10.7865 10.5896ZM10.5005 9.99971C10.5005 9.70042 10.5662 9.51013 10.6437 9.38558C10.7211 9.26118 10.8307 9.16952 10.9713 9.10024C11.2739 8.95118 11.6681 8.92871 12.0005 8.92871V7.92871C11.6658 7.92871 11.0601 7.94174 10.5294 8.20319C10.2534 8.33915 9.98801 8.54649 9.79463 8.85728C9.60135 9.16791 9.50045 9.549 9.50045 9.99971H10.5005ZM12.0208 15.0719C11.5695 15.0535 11.1469 14.8457 10.8566 14.4996L10.0904 15.1421C10.5615 15.7039 11.2474 16.0411 11.98 16.0711L12.0208 15.0719ZM10.8566 14.4996C10.5664 14.1535 10.4354 13.7011 10.4959 13.2534L9.5049 13.1196C9.40677 13.8461 9.61932 14.5804 10.0904 15.1421L10.8566 14.4996ZM11.5005 15.5713V17.0003H12.5005V15.5713H11.5005ZM12.0285 8.92821C12.4514 8.90437 12.8627 9.07164 13.1489 9.38389L13.8861 8.7082C13.3972 8.17481 12.6947 7.88908 11.9723 7.92979L12.0285 8.92821ZM13.1489 9.38389C13.4351 9.69614 13.566 10.1204 13.5055 10.5396L14.4953 10.6824C14.5986 9.96627 14.375 9.24158 13.8861 8.7082L13.1489 9.38389ZM12.5004 8.429V7H11.5004V8.429H12.5004Z" fill="#080808"/>
</svg>
