<svg width="39" height="47" viewBox="0 0 39 47" fill="none" xmlns="http://www.w3.org/2000/svg">
<path d="M36.3348 25.47C36.0634 24.9534 35.7171 24.471 35.4021 23.9762C34.6502 22.8029 33.8703 21.6451 33.1466 20.4563C33.0686 20.3318 33 20.2011 32.9407 20.0642C32.5757 19.227 32.8377 18.6139 33.0624 17.8141C33.2807 17.0454 33.2308 16.1148 33.1934 15.3244C33.1154 13.6625 32.7285 12.013 32.0547 10.4912C30.5635 7.14871 27.4564 4.10813 23.9531 2.94418C21.2172 2.03543 18.4407 1.90783 15.5925 2.18481C9.56545 2.7699 4.00318 6.25552 1.4451 11.8387C-0.058547 15.1189 -0.376747 18.9002 0.434351 22.4076C1.29848 26.1453 3.4323 28.965 5.70025 31.9588C6.93874 33.5958 7.56266 35.4382 7.15087 37.4487C6.5831 40.2247 5.8344 42.9634 5.16368 45.7177C5.06697 46.1192 4.96714 46.5206 4.87044 46.9252L24.2682 46.9999C23.6037 45.0175 23.3541 42.9074 23.5444 40.8254C23.7722 38.3232 26.3396 38.1365 28.3143 38.4477C29.5621 38.6438 31.3091 39.0826 32.4104 38.233C32.9469 37.819 33.2183 37.1344 33.2776 36.4621C33.3618 35.5036 32.7566 33.8791 33.6395 33.1041C33.8859 32.8863 34.1449 32.6124 34.2197 32.2794C34.304 31.9059 33.967 31.8561 33.9514 31.5418C33.9483 31.4702 33.992 31.4018 34.045 31.352C34.0981 31.3022 34.1636 31.268 34.2197 31.2213C34.3819 31.0874 34.4599 30.8758 34.4786 30.6673C34.5161 30.2067 34.3414 29.771 34.1667 29.3571C34.045 29.0677 33.8017 28.6319 33.9608 28.3145C34.2197 27.7979 35.1088 27.5925 35.7327 27.2626C36.6405 26.7771 36.8028 26.357 36.3348 25.47ZM16.8123 26.4783C10.9194 26.4783 6.14012 21.7136 6.14012 15.8316C6.14012 9.95276 10.9162 5.18805 16.8123 5.18805C22.7052 5.18805 27.4845 9.95276 27.4845 15.8316C27.4845 21.7105 22.7052 26.4783 16.8123 26.4783Z" fill="#F0ECE3"/>
<path d="M16.244 4.95781L16.6589 7.94548L17.8943 7.95171L18.1095 10.8709C18.1095 10.8709 15.4017 10.5877 13.8138 12.7911C12.2259 14.9945 13.1057 17.0112 13.5611 17.9075L15.8072 16.7653C15.8072 16.7653 17.3858 18.3868 18.8145 17.3816C20.2433 16.3732 20.0031 14.5121 18.905 13.7652L20.0873 11.5369C20.0873 11.5369 22.7109 12.9872 22.3335 16.2207L28.1047 17.9044C28.1047 17.9044 29.6084 11.8979 24.9789 7.72763C21.4381 4.17666 16.244 4.95781 16.244 4.95781Z" fill="#FFE793"/>
<path d="M6.28393 45.8672C6.38063 45.4626 6.48046 45.0611 6.57717 44.6597C7.24789 41.9054 7.99659 39.1667 8.56436 36.3907C8.97303 34.3802 8.35223 32.5378 7.11374 30.9008C4.84267 27.91 2.70885 25.0904 1.84472 21.3496C1.03362 17.8422 1.35494 14.064 2.85547 10.7807C5.41355 5.20058 10.9758 1.71497 17.006 1.12988C19.8542 0.852898 22.6307 0.980496 25.3666 1.88925C28.8699 3.05319 31.977 6.09378 33.462 9.43935C34.1389 10.9612 34.5226 12.6106 34.6037 14.2725C34.6412 15.063 34.6911 15.9936 34.4727 16.7623C34.2481 17.5621 33.9861 18.1721 34.3511 19.0124C34.4103 19.1462 34.479 19.2769 34.557 19.4045C35.2838 20.5933 36.0606 21.7511 36.8124 22.9243C37.1306 23.4192 37.4738 23.8984 37.7452 24.4182C38.2131 25.3083 38.0509 25.7284 37.1462 26.2108C36.5254 26.5438 35.6332 26.7461 35.3743 27.2627C35.2152 27.5801 35.4585 28.0158 35.5802 28.3053C35.7518 28.7192 35.9296 29.1549 35.889 29.6155C35.8703 29.824 35.7923 30.0356 35.6301 30.1694C35.5739 30.2161 35.5084 30.2504 35.4554 30.3002C35.4024 30.35 35.3587 30.4153 35.3618 30.49C35.3774 30.8043 35.7174 30.851 35.6301 31.2276C35.5552 31.5575 35.2963 31.8344 35.0498 32.0523C34.167 32.8303 34.7722 34.4518 34.688 35.4103C34.6287 36.0825 34.3573 36.7672 33.8207 37.1811C32.7195 38.0308 30.9725 37.5919 29.7247 37.3959C27.75 37.0847 25.1825 37.2683 24.9548 39.7736C24.7645 41.8556 25.0141 43.9656 25.6785 45.9481" stroke="#080808" stroke-miterlimit="10" stroke-linecap="round" stroke-linejoin="round"/>
<path d="M20.4032 4.38212C25.3915 5.30955 29.1662 9.67279 29.1662 14.9168C29.1662 20.833 24.3589 25.632 18.4254 25.632C12.495 25.632 7.68457 20.8361 7.68457 14.9168C7.68457 9.45183 11.7837 4.94542 17.0808 4.28564L17.4583 7.32" stroke="#080808" stroke-miterlimit="10" stroke-linecap="round" stroke-linejoin="round"/>
<path d="M25.94 16.1368C25.3566 19.7501 22.212 22.5105 18.4248 22.5105C16.5312 22.5105 14.7998 21.8228 13.4678 20.6806" stroke="#080808" stroke-miterlimit="10" stroke-linecap="round" stroke-linejoin="round"/>
<path d="M11.8619 18.7665C11.1943 17.6368 10.8105 16.3204 10.8105 14.9137C10.8105 10.7185 14.2203 7.31689 18.4255 7.31689C21.9413 7.31689 24.8987 9.69459 25.7753 12.925" stroke="#080808" stroke-miterlimit="10" stroke-linecap="round" stroke-linejoin="round"/>
<path d="M20.8866 10.9115C22.2343 11.7363 23.1328 13.2208 23.1328 14.9138C23.1328 17.5062 21.027 19.61 18.4253 19.61C15.8266 19.61 13.7178 17.5062 13.7178 14.9138C13.7178 12.3213 15.8235 10.2175 18.4253 10.2175C18.5875 10.2175 18.7497 10.2269 18.9057 10.2424" stroke="#080808" stroke-miterlimit="10" stroke-linecap="round" stroke-linejoin="round"/>
<path d="M16.3789 14.1262C16.6971 13.3077 17.4926 12.7257 18.4254 12.7257C19.6358 12.7257 20.6185 13.706 20.6185 14.9136C20.6185 16.1211 19.6358 17.1014 18.4254 17.1014C17.6673 17.1014 16.9997 16.7186 16.6066 16.1366" stroke="#080808" stroke-miterlimit="10" stroke-linecap="round" stroke-linejoin="round"/>
<path d="M19.7041 22.4045L20.2001 25.4825" stroke="#080808" stroke-miterlimit="10" stroke-linecap="round" stroke-linejoin="round"/>
<path d="M13.4717 20.6805C13.4966 20.7054 15.5805 18.6514 15.5805 18.6514" stroke="#080808" stroke-miterlimit="10" stroke-linecap="round" stroke-linejoin="round"/>
<path d="M25.9405 16.1366L23.1328 15.5951" stroke="#080808" stroke-miterlimit="10" stroke-linecap="round" stroke-linejoin="round"/>
<path d="M16.092 10.8368L14.2607 8.55554" stroke="#080808" stroke-miterlimit="10" stroke-linecap="round" stroke-linejoin="round"/>
<path d="M19.2266 16.949L20.1999 19.2644" stroke="#080808" stroke-miterlimit="10" stroke-linecap="round" stroke-linejoin="round"/>
</svg>
