<svg width="110" height="175" viewBox="0 0 110 175" fill="none" xmlns="http://www.w3.org/2000/svg">
<path fill-rule="evenodd" clip-rule="evenodd" d="M-39.01 87.8914C-32.8757 56.0981 0.145487 33.8246 31.2231 47.4608C53.8342 57.7997 65.5378 87.56 47.918 107.775C37.3799 119.583 14.7059 123.249 6.39959 106.914C5.33547 104.736 3.04627 94.6733 7.82414 94.5081C8.84468 94.557 9.48411 95.6292 9.99096 96.3887C19.1566 110.371 37.7951 103.52 37.7361 86.6521C37.0219 68.425 16.8605 60.8811 1.71144 67.5414C-20.1032 78.0075 -21.578 106.073 -6.42007 122.897C14.8119 144.999 49.4062 137.332 64.7295 112.473C82.4203 81.6014 65.4594 44.8787 33.2286 33.0199C-13.8027 17.462 -56.4535 57.9024 -52.2647 104.45C-47.3501 153.64 3.04257 182.875 49.0994 168.54C72.7613 160.914 91.5999 143.406 101.429 120.624C121.411 73.1539 96.9066 19.6467 50.1092 0.155009C104.677 22.4512 127.704 90.5128 91.5871 139.2C61.5015 178.792 2.52498 185.492 -32.7591 148.955C-63.5478 116.318 -59.8693 62.0977 -20.4745 37.9625C13.4529 17.6577 60.176 31.917 71.2752 71.3988C80.3847 104.597 55.7887 140.793 19.824 137.558C-8.36218 134.805 -28.4735 105.001 -14.1276 78.8513C-3.9864 61.6999 19.2057 55.5593 34.4778 69.7887C43.0398 78.1733 43.1412 86.834 42.3837 97.7658C42.1545 103.041 47.3668 94.9572 47.8307 93.9902C57.7457 72.0062 37.1254 50.3708 16.0586 47.8235C0.407345 46.0263 -14.8503 52.7062 -25.1212 64.4674C-47.6348 90.7335 -38.3205 130.113 -10.5064 148.589C-31.06 135.584 -42.308 111.981 -39.01 87.8914ZM94.373 92.0796C95.4125 78.5904 92.929 65.2403 87.2045 52.9976C64.5465 5.4675 3.57 -6.61925 -38.1408 23.5682C1.42728 -4.60523 59.4126 5.27942 82.6424 50.1481C101.471 87.2253 85.9096 135.069 45.6352 148.404C20.0206 156.901 -14.5413 146.143 -23.0138 118.338C-23.6788 116.024 -23.3528 114.123 -21.4263 116.596C-9.88529 133.66 7.50233 144.025 28.8153 141.712C67.3152 137.248 86.876 94.1511 70.1736 60.4956C51.2319 22.7347 1.60542 15.8489 -30.0304 42.0463C-66.4315 72.8058 -62.2285 128.938 -25.7742 157.734C0.675462 178.262 35.5196 180.005 63.9467 164.032C38.3383 177.599 7.59452 177.385 -17.3595 162.46C-36.2759 150.898 -49.5471 132.064 -53.4463 110.177C-61.0697 65.2268 -25.0099 21.9258 21.7007 27.8476C58.6344 32.8577 84.9112 70.3222 71.1036 106.325C58.9255 137.563 18.7034 151.262 -7.33104 127.915C-29.2686 107.96 -25.1128 74.3008 0.235329 60.0222C2.29062 58.8589 13.2285 54.8551 4.64007 55.0378C-7.02969 55.3802 -17.8094 63.3012 -24.2404 72.5828C-44.178 102.182 -26.1217 140.912 6.12708 152.23C48.6938 166.913 90.207 134.584 94.373 92.0796Z" fill="url(#paint0_linear_327_45580)"/>
<defs>
<linearGradient id="paint0_linear_327_45580" x1="-34.4915" y1="20.3112" x2="29.9174" y2="193.385" gradientUnits="userSpaceOnUse">
<stop stop-color="#1D7C6E"/>
<stop offset="1" stop-color="#FFE793"/>
</linearGradient>
</defs>
</svg>
