<svg width="78" height="96" viewBox="0 0 78 96" fill="none" xmlns="http://www.w3.org/2000/svg">
<g id="Frame" clip-path="url(#clip0_196_911)">
<g id="Group">
<g id="Group_2">
<path id="Vector" d="M75.4473 50.5783C74.8837 49.498 74.1647 48.4893 73.5104 47.4546C71.9492 45.0012 70.3298 42.5803 68.8269 40.0943C68.6649 39.834 68.5224 39.5607 68.3994 39.2744C67.6414 37.5238 68.1856 36.2418 68.652 34.5693C69.1054 32.9619 69.0018 31.016 68.9241 29.3631C68.7621 25.8879 67.9589 22.4388 66.5596 19.2566C63.4632 12.2737 57.0113 5.91569 49.7366 3.48179C44.0555 1.58153 38.2902 1.31471 32.3759 1.8939C19.8607 3.11736 8.31066 10.3995 2.99881 22.0744C-0.123526 28.9336 -0.784268 36.8405 0.899977 44.1747C2.69435 51.9905 7.12521 57.893 11.8346 64.1535C14.4063 67.5765 15.7019 71.4291 14.8468 75.6331C13.6679 81.438 12.1132 87.1648 10.7204 92.9242C10.5196 93.7637 10.3123 94.6032 10.1115 95.4492L50.3909 95.6054C49.0111 91.4599 48.4929 87.0477 48.888 82.694C49.3609 77.4618 54.6922 77.0713 58.7927 77.7221C61.3838 78.1321 65.0114 79.0497 67.2981 77.2796C68.4123 76.414 68.9759 74.9823 69.099 73.5767C69.2739 71.5723 68.0172 68.1752 69.8504 66.5548C70.3622 66.0993 70.8998 65.5266 71.0553 64.8303C71.2302 64.0493 70.5306 63.9452 70.4982 63.2879C70.4917 63.1382 70.5824 62.9951 70.6925 62.891C70.8026 62.7868 70.9387 62.7152 71.0553 62.6176C71.3921 62.3378 71.5541 61.8953 71.5929 61.4593C71.6707 60.4961 71.3079 59.585 70.9516 58.7195C70.699 58.1143 70.1937 57.2032 70.5241 56.5394C71.0618 55.4591 72.908 55.0296 74.2035 54.3398C76.0821 53.3181 76.419 52.4395 75.4473 50.5783ZM34.2351 50.4351C34.2351 50.4351 3.71785 31.5106 17.7619 17.6556C25.7815 9.73573 34.2351 24.9313 34.2351 24.9313C34.2351 24.9313 42.6822 9.73573 50.7083 17.6556C64.7523 31.5106 34.2351 50.4351 34.2351 50.4351Z" fill="#F0ECE3"/>
</g>
<path id="Vector_2" d="M43.0967 31.7254H36.8649V25.465H32.1491V31.7254H25.9238V36.463H32.1491V42.717H36.8649V36.463H43.0967V31.7254Z" fill="#FFE793"/>
<path id="Vector_3" d="M11.8156 94.7464C12.0164 93.9004 12.2237 93.0609 12.4245 92.2214C13.8173 86.462 15.372 80.7352 16.5509 74.9303C17.3995 70.7263 16.1104 66.8737 13.5387 63.4507C8.82284 57.1967 4.39198 51.3007 2.59761 43.4784C0.913366 36.1442 1.58059 28.2438 4.69644 21.3781C10.0083 9.70974 21.5583 2.42107 34.08 1.19761C39.9943 0.618424 45.7596 0.885242 51.4407 2.7855C58.7154 5.2194 65.1673 11.5775 68.2508 18.5733C69.6565 21.7556 70.4533 25.2047 70.6152 28.6798C70.693 30.3328 70.7966 32.2786 70.3431 33.886C69.8767 35.5585 69.3326 36.834 70.0905 38.5911C70.2136 38.8709 70.3561 39.1443 70.518 39.4111C72.0274 41.897 73.6404 44.3179 75.2015 46.7713C75.8623 47.8061 76.5749 48.8082 77.1384 49.895C78.1101 51.7563 77.7733 52.6348 75.8947 53.6435C74.6056 54.3398 72.7529 54.7628 72.2152 55.8431C71.8849 56.5069 72.3901 57.418 72.6428 58.0232C72.9991 58.8887 73.3683 59.7998 73.2841 60.763C73.2452 61.199 73.0833 61.6415 72.7464 61.9213C72.6298 62.019 72.4938 62.0905 72.3837 62.1947C72.2735 62.2988 72.1829 62.4355 72.1893 62.5916C72.2217 63.2489 72.9278 63.3465 72.7464 64.134C72.591 64.8238 72.0533 65.403 71.5416 65.8585C69.7083 67.4855 70.965 70.876 70.7901 72.8804C70.667 74.2861 70.1035 75.7178 68.9893 76.5833C66.7026 78.3599 63.075 77.4423 60.4838 77.0323C56.3833 76.3815 51.0521 76.7655 50.5792 82.0042C50.184 86.3579 50.7023 90.7702 52.082 94.9156" stroke="#080808" stroke-miterlimit="10" stroke-linecap="round" stroke-linejoin="round"/>
<path id="Vector_4" d="M52.4059 14.7598C44.3799 6.83987 35.9327 22.0289 35.9327 22.0289C35.9327 22.0289 27.4856 6.83987 19.4595 14.7598C5.41549 28.6148 35.9327 47.5328 35.9327 47.5328C35.9327 47.5328 66.45 28.6148 52.4059 14.7598Z" stroke="#080808" stroke-miterlimit="10" stroke-linecap="round" stroke-linejoin="round"/>
<path id="Vector_5" d="M44.515 30.3393H38.2897V24.0789H33.5739V30.3393H27.3486V35.0769H33.5739V41.3309H38.2897V35.0769H44.515V30.3393Z" stroke="#080808" stroke-miterlimit="10" stroke-linecap="round" stroke-linejoin="round"/>
</g>
</g>
<defs>
<clipPath id="clip0_196_911">
<rect width="78" height="95" fill="white" transform="translate(0 0.598877)"/>
</clipPath>
</defs>
</svg>
