<svg width="78" height="96" viewBox="0 0 78 96" fill="none" xmlns="http://www.w3.org/2000/svg">
<g id="Frame" clip-path="url(#clip0_196_986)">
<path id="Vector" d="M36.2866 51.903C35.4294 52.9548 34.1106 53.6211 32.6402 53.6211C30.0488 53.6211 27.9453 51.5371 27.9453 48.9697C27.9453 46.4024 30.0488 44.3184 32.6402 44.3184C34.1172 44.3184 35.436 44.9978 36.2998 46.0561V35.3227L25.3934 35.3423C26.5012 34.4931 27.2068 33.1604 27.2068 31.6709C27.2068 29.1035 25.1033 27.0195 22.5119 27.0195C19.9204 27.0195 17.817 29.1035 17.817 31.6709C17.817 33.1081 18.4236 34.4016 19.6105 35.3554H8.73047C8.73047 63.4595 36.2932 62.6298 36.2932 62.6298V51.9487" fill="#F0ECE3"/>
<path id="Vector_2" d="M36.3198 18.7686C37.177 17.7168 38.4958 17.0505 39.9663 17.0505C42.5577 17.0505 44.6612 19.1345 44.6612 21.7019C44.6612 24.2692 42.5577 26.3532 39.9663 26.3532C38.4892 26.3532 37.1704 25.6738 36.3066 24.6155V35.3489L47.2131 35.3293C46.1053 36.1785 45.3997 37.5112 45.3997 39.0007C45.3997 41.5681 47.5032 43.6521 50.0946 43.6521C52.686 43.6521 54.7895 41.5681 54.7895 39.0007C54.7895 37.5635 54.1829 36.27 52.996 35.3162H63.876C63.876 7.2121 36.3132 8.04176 36.3132 8.04176V18.7164" fill="#FFE793"/>
<path id="Vector_3" d="M10.6298 94.9085C10.8342 94.0592 11.0452 93.2165 11.2496 92.3737C12.6673 86.5922 14.2499 80.8433 15.45 75.0161C16.3138 70.7959 15.0016 66.9285 12.3838 63.4922C7.58336 57.2142 3.07309 51.2955 1.24656 43.4431C-0.467871 36.0806 0.211308 28.1498 3.383 21.2577C8.79005 9.54434 20.5471 2.22761 33.2932 0.99944C39.3135 0.418021 45.1821 0.685866 50.965 2.59344C58.3701 5.03671 64.9377 11.4193 68.0764 18.442C69.5073 21.6366 70.3183 25.0989 70.4832 28.5875C70.5623 30.2468 70.6678 32.2001 70.2062 33.8137C69.7315 35.4926 69.1776 36.7731 69.9491 38.5369C70.0744 38.8178 70.2194 39.0922 70.3843 39.36C71.9207 41.8556 73.5626 44.2858 75.1517 46.7486C75.8243 47.7874 76.5496 48.7934 77.1233 49.8844C78.1124 51.7528 77.7695 52.6347 75.8573 53.6473C74.5451 54.3463 72.6592 54.7709 72.1119 55.8554C71.7756 56.5217 72.2899 57.4363 72.5471 58.0439C72.9098 58.9127 73.2856 59.8273 73.1999 60.7942C73.1603 61.2319 72.9955 61.6761 72.6526 61.957C72.5339 62.055 72.3954 62.1269 72.2833 62.2314C72.1712 62.3359 72.0789 62.4731 72.0855 62.6299C72.1185 63.2897 72.8372 63.3877 72.6526 64.1782C72.4943 64.8706 71.947 65.4521 71.4261 65.9094C69.56 67.5426 70.8393 70.9461 70.6612 72.9582C70.5359 74.3693 69.9623 75.8065 68.8281 76.6754C66.5004 78.4589 62.8078 77.5377 60.1702 77.1262C55.9962 76.4729 50.5694 76.8583 50.088 82.1172C49.6858 86.4877 50.2133 90.9169 51.6178 95.0783" stroke="#080808" stroke-miterlimit="10" stroke-linecap="round" stroke-linejoin="round"/>
<g id="Group">
<path id="Vector_4" d="M38.502 6.58496V17.2596" stroke="#080808" stroke-miterlimit="10" stroke-linecap="round" stroke-linejoin="round"/>
<path id="Vector_5" d="M21.8195 33.8921H10.9395" stroke="#080808" stroke-miterlimit="10" stroke-linecap="round" stroke-linejoin="round"/>
<path id="Vector_6" d="M38.5026 23.1521V33.892H27.583" stroke="#080808" stroke-miterlimit="10" stroke-linecap="round" stroke-linejoin="round"/>
<path id="Vector_7" d="M38.5151 17.3053C39.3724 16.2535 40.6911 15.5872 42.1616 15.5872C44.753 15.5872 46.8565 17.6711 46.8565 20.2385C46.8565 22.8059 44.753 24.8899 42.1616 24.8899C40.6846 24.8899 39.3658 24.2105 38.502 23.1521" stroke="#080808" stroke-miterlimit="10" stroke-linecap="round" stroke-linejoin="round"/>
<path id="Vector_8" d="M21.8199 33.892C20.633 32.9382 20.0264 31.6447 20.0264 30.2075C20.0264 27.6401 22.1298 25.5562 24.7213 25.5562C27.3127 25.5562 29.4162 27.6401 29.4162 30.2075C29.4162 31.7035 28.6974 33.0427 27.5896 33.892" stroke="#080808" stroke-miterlimit="10" stroke-linecap="round" stroke-linejoin="round"/>
</g>
<g id="Group_2">
<path id="Vector_9" d="M66.0577 33.866H55.2832" stroke="#080808" stroke-miterlimit="10" stroke-linecap="round" stroke-linejoin="round"/>
<path id="Vector_10" d="M49.3424 33.866H38.502" stroke="#080808" stroke-miterlimit="10" stroke-linecap="round" stroke-linejoin="round"/>
<path id="Vector_11" d="M55.2376 33.879C56.2992 34.7283 56.9718 36.0349 56.9718 37.4917C56.9718 40.0591 54.8684 42.143 52.2769 42.143C49.6855 42.143 47.582 40.0591 47.582 37.4917C47.582 36.0283 48.2678 34.7218 49.336 33.866" stroke="#080808" stroke-miterlimit="10" stroke-linecap="round" stroke-linejoin="round"/>
</g>
<g id="Group_3">
<path id="Vector_12" d="M38.502 61.1665V50.4919" stroke="#080808" stroke-miterlimit="10" stroke-linecap="round" stroke-linejoin="round"/>
<path id="Vector_13" d="M38.502 44.6059V33.866" stroke="#080808" stroke-miterlimit="10" stroke-linecap="round" stroke-linejoin="round"/>
<path id="Vector_14" d="M38.482 50.4462C37.6248 51.4979 36.306 52.1643 34.8355 52.1643C32.2441 52.1643 30.1406 50.0803 30.1406 47.5129C30.1406 44.9455 32.2441 42.8616 34.8355 42.8616C36.3126 42.8616 37.6314 43.541 38.4952 44.5993" stroke="#080808" stroke-miterlimit="10" stroke-linecap="round" stroke-linejoin="round"/>
</g>
</g>
<defs>
<clipPath id="clip0_196_986">
<rect width="78" height="95" fill="white" transform="translate(0 0.398438)"/>
</clipPath>
</defs>
</svg>
