<svg width="78" height="96" viewBox="0 0 78 96" fill="none" xmlns="http://www.w3.org/2000/svg">
<g id="Frame" clip-path="url(#clip0_196_839)">
<g id="Group">
<path id="Vector" d="M10.6298 95.3095C10.8342 94.4602 11.0452 93.6175 11.2496 92.7747C12.6673 86.9932 14.2499 81.2443 15.45 75.4171C16.3138 71.1969 15.0016 67.3295 12.3838 63.8932C7.58336 57.6152 3.07309 51.6965 1.24656 43.8441C-0.467871 36.4816 0.211308 28.5508 3.383 21.6587C8.79005 9.94535 20.5471 2.62861 33.2932 1.40044C39.3135 0.819022 45.1821 1.08687 50.965 2.99444C58.3701 5.43771 64.9377 11.8203 68.0764 18.843C69.5073 22.0376 70.3183 25.4999 70.4832 28.9885C70.5623 30.6478 70.6678 32.6011 70.2062 34.2147C69.7315 35.8936 69.1776 37.1741 69.9491 38.9379C70.0744 39.2188 70.2194 39.4932 70.3843 39.7611C71.9207 42.2566 73.5626 44.6868 75.1517 47.1496C75.8243 48.1884 76.5496 49.1944 77.1233 50.2854C78.1124 52.1538 77.7695 53.0357 75.8573 54.0483C74.5451 54.7473 72.6592 55.1719 72.1119 56.2564C71.7756 56.9227 72.2899 57.8373 72.5471 58.4449C72.9098 59.3137 73.2856 60.2283 73.2065 61.1952C73.1669 61.6329 73.0021 62.0771 72.6592 62.358C72.5405 62.456 72.402 62.5279 72.2899 62.6324C72.1778 62.7369 72.0855 62.8741 72.0921 63.0309C72.1251 63.6907 72.8438 63.7887 72.6592 64.5792C72.5009 65.2716 71.9536 65.8531 71.4327 66.3104C69.5666 67.9436 70.8458 71.3471 70.6678 73.3592C70.5425 74.7703 69.9688 76.2076 68.8347 77.0764C66.507 78.8599 62.8144 77.9387 60.1768 77.5272C56.0028 76.8739 50.576 77.2593 50.0946 82.5182C49.6924 86.8887 50.2199 91.3179 51.6244 95.4793" stroke="#080808" stroke-miterlimit="10" stroke-linecap="round" stroke-linejoin="round"/>
<path id="Vector_2" d="M35.7064 6.22818C23.5999 6.22818 13.7881 15.949 13.7881 27.9432C13.7881 39.9374 23.6065 49.6517 35.7064 49.6517C47.8063 49.6517 57.6248 39.9309 57.6248 27.9432C57.6248 15.9555 47.8129 6.22818 35.7064 6.22818ZM40.6915 39.9832H30.7214L33.4381 26.6563C31.4401 25.7874 30.0356 23.8145 30.0356 21.5149C30.0356 18.4119 32.5743 15.9033 35.6998 15.9033C38.832 15.9033 41.364 18.4184 41.364 21.5149C41.364 23.8145 39.9661 25.7939 37.9616 26.6563L40.6915 39.9832Z" fill="#FFE793"/>
<path id="Vector_3" d="M42.723 19.5094C42.723 16.4063 40.1843 13.8977 37.0587 13.8977C33.9266 13.8977 31.3945 16.4128 31.3945 19.5094C31.3945 21.8089 32.7925 23.7884 34.797 24.6507L32.0803 37.9776H42.0504L39.3337 24.6507C41.325 23.7884 42.723 21.8155 42.723 19.5094Z" stroke="#080808" stroke-miterlimit="10" stroke-linecap="round" stroke-linejoin="round"/>
</g>
</g>
<defs>
<clipPath id="clip0_196_839">
<rect width="78" height="95" fill="white" transform="translate(0 0.799438)"/>
</clipPath>
</defs>
</svg>
