<svg width="21" height="22" viewBox="0 0 21 22" fill="none" xmlns="http://www.w3.org/2000/svg">
<path d="M16 5.5874H17M4.5 0.587402H16.5C18.7091 0.587402 20.5 2.37826 20.5 4.5874V16.5874C20.5 18.7965 18.7091 20.5874 16.5 20.5874H4.5C2.29086 20.5874 0.5 18.7965 0.5 16.5874V4.5874C0.5 2.37826 2.29086 0.587402 4.5 0.587402ZM10.5 14.5874C8.29086 14.5874 6.5 12.7965 6.5 10.5874C6.5 8.37826 8.29086 6.5874 10.5 6.5874C12.7091 6.5874 14.5 8.37826 14.5 10.5874C14.5 12.7965 12.7091 14.5874 10.5 14.5874Z" stroke="#080808"/>
</svg>
