<svg width="26" height="80" viewBox="0 0 26 80" fill="none" xmlns="http://www.w3.org/2000/svg">
<mask id="path-1-inside-1_315_22741" fill="white">
<path fill-rule="evenodd" clip-rule="evenodd" d="M4.54661 0.157602C4.35999 0.232939 4.10898 0.372832 3.98879 0.468452C3.86859 0.564071 3.60955 0.739779 3.41313 0.858927C3.13871 1.02525 3.08507 1.12179 3.18145 1.27513C3.25046 1.38489 3.39611 1.69539 3.50528 1.9651C3.67911 2.39475 3.67911 2.44737 3.50501 2.39046C3.2702 2.31373 3.36698 2.48967 3.76922 2.87029C3.91896 3.01193 4.05032 3.24663 4.06107 3.39185C4.09319 3.82695 4.28308 4.55609 4.481 5.00452C4.58337 5.23632 4.63237 5.45549 4.5899 5.49165C4.45011 5.61068 4.67566 6.1239 5.02182 6.47404C5.30046 6.75603 5.32509 6.83044 5.15794 6.88503C4.91156 6.96547 4.8842 7.30668 5.12404 7.30668C5.22736 7.30668 5.29025 7.45469 5.28412 7.68336C5.27854 7.89048 5.39016 8.2288 5.53227 8.43522C5.67438 8.64153 5.77267 8.92839 5.75075 9.07268C5.72883 9.21687 5.76109 9.40358 5.82248 9.48761C5.88388 9.57153 5.89776 9.67097 5.85352 9.70876C5.80928 9.74642 5.84127 9.84726 5.92458 9.93279C6.03606 10.0472 6.03579 10.0883 5.92335 10.0883C5.73101 10.0883 5.72053 10.7503 5.91205 10.8046C6.0057 10.8312 5.99155 11.0008 5.87013 11.3068C5.7694 11.561 5.70093 11.9515 5.71822 12.1746C5.7355 12.3977 5.75442 12.651 5.76014 12.7376C5.76749 12.8487 5.88102 12.8739 6.14496 12.8232L6.51929 12.7513L6.11093 13.0533C5.85965 13.2393 5.76518 13.3764 5.86536 13.41C6.02163 13.4625 5.99699 14.5381 5.83038 14.9441C5.7939 15.033 5.8719 15.2072 6.0038 15.3312C6.23289 15.5467 6.23221 15.5637 5.98774 15.7158C5.62606 15.941 5.65015 16.6975 6.03143 17.0887C6.18076 17.2419 6.18117 17.3063 6.03388 17.4574C5.82112 17.6756 5.74054 19.9105 5.94159 20.0163C6.02313 20.0592 6.02027 20.112 5.93411 20.1575C5.81037 20.2225 5.72244 20.8212 5.75742 21.3598C5.76463 21.4714 5.8625 21.5627 5.97481 21.5627C6.08711 21.5627 6.17899 21.6409 6.17899 21.7365C6.17899 21.8321 6.08711 21.9104 5.97481 21.9104C5.71917 21.9104 5.7031 22.3592 5.95588 22.4418C6.23752 22.5338 6.26406 24.1125 5.98406 24.1125C5.85788 24.1125 5.80928 24.1793 5.85747 24.2864C5.90062 24.382 5.86999 24.4602 5.78941 24.4602C5.62089 24.4602 5.74612 24.8182 5.96487 24.9616C6.06642 25.0281 6.05893 25.0753 5.94077 25.1161C5.72679 25.19 5.71631 25.5033 5.92784 25.5033C6.02027 25.5033 5.98964 25.5932 5.85338 25.7213C5.64471 25.9176 5.64253 25.9572 5.83106 26.1177C5.96432 26.2312 5.98624 26.3114 5.8915 26.3383C5.79036 26.367 5.81173 26.5216 5.95765 26.8193C6.14414 27.1991 6.14727 27.2917 5.98188 27.5106C5.8768 27.6497 5.74884 27.9591 5.69752 28.1981C5.61381 28.5882 5.63369 28.6327 5.89164 28.6327C6.20608 28.6327 6.24269 28.7151 6.04572 28.9804C5.95343 29.1048 5.97821 29.1726 6.13257 29.2187C6.32845 29.2772 6.32791 29.3006 6.12658 29.472C6.00448 29.576 5.96065 29.6905 6.02898 29.7265C6.21166 29.8225 6.04287 30.2553 5.82276 30.2553C5.58509 30.2553 5.58672 30.2782 5.85883 30.764C6.06723 31.1361 6.06723 31.1784 5.8591 31.3555C5.68269 31.5058 5.66676 31.5969 5.78451 31.7841C5.89831 31.9652 5.89504 32.0014 5.77062 31.9359C5.64471 31.8696 5.64335 31.9073 5.76463 32.1001C5.85107 32.2377 5.87816 32.4657 5.8248 32.6067C5.77144 32.7477 5.71277 33.0178 5.69467 33.207C5.67643 33.3962 5.59421 33.57 5.51185 33.5933C5.29733 33.6543 5.32727 33.8551 5.58754 34.0999C5.7973 34.2973 5.79703 34.3119 5.58495 34.3119C5.4099 34.3119 5.37682 34.379 5.44243 34.6017C5.49511 34.7801 5.46993 34.8914 5.37696 34.8914C5.29406 34.8914 5.22614 35.0479 5.22614 35.2391C5.22614 35.4304 5.278 35.5868 5.34129 35.5868C5.40473 35.5868 5.34551 35.8607 5.2098 36.1953C4.95539 36.8229 4.98819 37.5315 5.27977 37.7042C5.38254 37.7651 5.35259 37.844 5.18584 37.9527C5.01161 38.0663 4.96642 38.1969 5.02849 38.4075C5.0764 38.57 5.06973 38.7662 5.01365 38.8436C4.95757 38.9207 4.89931 39.2994 4.8842 39.6849C4.86841 40.088 4.79068 40.4044 4.70111 40.4299C4.61549 40.4541 4.54553 40.597 4.54553 40.7472C4.54553 40.8976 4.48849 41.0506 4.41893 41.0872C4.28063 41.16 4.30187 41.6035 4.45364 41.8127C4.50605 41.8849 4.47229 42.0873 4.37864 42.2623C4.24143 42.5188 4.24225 42.5901 4.38259 42.63C4.51435 42.6673 4.51912 42.7182 4.40205 42.8382C4.31684 42.9256 4.22292 43.2466 4.19324 43.5514C4.1083 44.4223 4.03793 44.7769 3.88302 45.1158C3.77045 45.3619 3.78297 45.4681 3.94006 45.6018C4.10994 45.7465 4.11184 45.7874 3.9519 45.8665C3.64631 46.0178 3.60302 46.8252 3.86791 47.4319C4.09605 47.9543 4.09564 47.9844 3.85797 48.1675C3.53115 48.4194 3.2732 49.0315 3.49399 49.0315C3.58151 49.0315 3.51713 49.1127 3.35079 49.2119C3.00612 49.4174 2.94705 49.7269 3.25237 49.7269C3.51223 49.7269 3.51032 49.9262 3.24611 50.3575C3.12714 50.5519 3.03076 51.0255 3.02205 51.4586C3.01116 52.0092 2.94691 52.2568 2.78928 52.3565C2.59299 52.4808 2.5979 52.5107 2.84033 52.6636C3.0667 52.8064 3.08439 52.8757 2.95304 53.1053C2.69522 53.5559 2.616 54.0153 2.79609 54.0153C2.88484 54.0153 2.9171 54.0496 2.86783 54.0915C2.81855 54.1335 2.85203 54.2435 2.94215 54.3359C3.07269 54.4698 3.05867 54.5335 2.87286 54.649C2.74477 54.7289 2.63982 54.8767 2.63982 54.9774C2.63982 55.0782 2.58891 55.1874 2.52684 55.2201C2.39712 55.2883 2.42733 56.1141 2.57789 56.6122C2.65085 56.8538 2.62267 56.9849 2.47811 57.0758C2.20641 57.2467 2.06661 58.0284 2.2742 58.2159C2.46858 58.3913 2.52194 58.7673 2.35247 58.7673C2.2859 58.7673 2.23146 58.8455 2.23146 58.9411C2.23146 59.0367 2.13808 59.115 2.02401 59.115C1.84677 59.115 1.82432 59.3178 1.86964 60.5086C1.89864 61.2752 1.87767 61.9258 1.82282 61.9547C1.6675 62.0365 1.52553 63.0033 1.48469 64.2572C1.45937 65.0356 1.39158 65.4301 1.27221 65.493C1.15664 65.5537 1.10518 65.8158 1.12097 66.2617C1.13431 66.6355 1.0653 67.0681 0.966748 67.2281C0.843149 67.4291 0.825861 67.6244 0.910257 67.8656C0.977229 68.0568 1.08218 68.3568 1.14357 68.532C1.20796 68.7163 1.20251 68.8508 1.13064 68.8508C1.06231 68.8508 1.00636 69.0008 1.00636 69.1843C1.00636 69.3677 0.907126 69.5879 0.785977 69.6735C0.6097 69.7981 0.581931 69.9634 0.647678 70.499C0.714786 71.0455 0.692734 71.1688 0.527891 71.1688C0.300568 71.1688 0.252516 71.4643 0.461872 71.5745C0.675855 71.6871 0.620862 72.0958 0.381287 72.1741C0.209502 72.2302 0.18255 72.3476 0.2517 72.7397C0.303018 73.0309 0.282191 73.2642 0.201334 73.3068C0.111086 73.3544 0.108908 73.4798 0.194801 73.6724C0.360325 74.0428 0.361822 74.2149 0.199021 74.1293C-0.0552549 73.9954 -0.0699562 74.2751 0.178466 74.5191C0.420082 74.7562 0.425527 75.2254 0.186769 75.2254C0.0554116 75.2254 0.189901 76.1875 0.33242 76.2685C0.388503 76.3004 0.455883 76.4568 0.482154 76.6162C0.51741 76.8299 0.601397 76.897 0.802176 76.8721C1.02392 76.8446 1.03685 76.8598 0.871463 76.9542C0.694641 77.0551 0.702535 77.119 0.932717 77.4516C1.0781 77.6614 1.30719 77.9342 1.44195 78.0579C1.57671 78.1815 1.68697 78.3208 1.68697 78.3674C1.68697 78.4141 1.87482 78.4873 2.10459 78.5303C2.33423 78.5732 2.55515 78.6817 2.59558 78.7713C2.64118 78.8727 2.86919 78.9342 3.19887 78.9342C3.49031 78.9342 3.7288 78.9864 3.7288 79.0501C3.7288 79.2053 4.36938 79.199 4.48291 79.0426C4.54226 78.9609 4.65347 78.9814 4.81164 79.1033C4.94681 79.2075 5.15004 79.2551 5.27963 79.2128C5.4148 79.1686 5.62184 79.2253 5.78532 79.3513C6.07907 79.5776 6.50636 79.6295 6.88532 79.4849C7.01178 79.4367 7.15321 79.4495 7.19963 79.5134C7.33071 79.6941 7.59751 79.6514 7.91563 79.3991C8.18774 79.1833 8.62918 79.1858 8.62918 79.4031C8.62918 79.456 8.73631 79.5034 8.86739 79.5085C11.5634 79.6119 12.4798 79.6177 12.3239 79.5303C12.2103 79.4666 12.1916 79.3992 12.2756 79.3551C12.3507 79.3156 12.4462 79.3589 12.4878 79.4514C12.5376 79.562 12.7642 79.62 13.1487 79.621C15.0144 79.6253 15.3442 79.6421 15.5683 79.744C15.7475 79.8259 15.8621 79.8083 15.9872 79.6798C16.082 79.5827 16.2397 79.5294 16.3379 79.5615C16.436 79.5936 16.61 79.5401 16.7245 79.4426C16.839 79.3451 16.933 79.3083 16.9334 79.3606C16.934 79.4129 17.1218 79.5467 17.3508 79.6576C17.7374 79.845 17.7979 79.846 18.1923 79.6723C18.5167 79.5295 18.6744 79.5156 18.8586 79.6135C18.9912 79.6841 19.1879 79.713 19.2955 79.6779C19.4032 79.6426 19.5319 79.6695 19.5813 79.7377C19.6806 79.8746 20.8905 79.8859 21.4246 79.7549C21.6215 79.7067 22.0519 79.7438 22.4455 79.8429C23.0141 79.9861 23.8635 80.0265 25.4104 79.984C26.2311 79.9615 25.3396 79.015 24.374 78.8836C24.0778 78.8433 23.6664 78.7078 23.4598 78.5825C23.0491 78.3335 22.7858 78.2898 22.7858 78.4706C22.7858 78.6371 22.4692 78.6135 22.0187 78.4134C21.8043 78.3182 21.5318 78.24 21.4133 78.2395C21.2948 78.2392 21.1518 78.1998 21.0956 78.1519C21.0395 78.1041 20.8302 78.0533 20.6306 78.039C20.4309 78.0248 20.0073 77.9801 19.6891 77.9399C19.1986 77.8779 19.1106 77.8973 19.1106 78.0669C19.1106 78.2113 19.0629 78.235 18.9404 78.1523C18.3669 77.7647 16.7965 77.7102 16.7965 78.0778C16.7965 78.2917 16.659 78.2816 16.463 78.0533C16.3753 77.9512 16.1103 77.8547 15.874 77.8389C15.6377 77.823 15.3458 77.7405 15.2252 77.6553C15.0842 77.5556 14.9734 77.542 14.9145 77.6172C14.864 77.6816 14.7155 77.7678 14.5845 77.8091C14.4534 77.8502 14.3463 77.9637 14.3463 78.0614C14.3463 78.159 14.285 78.2388 14.2102 78.2388C14.1353 78.2388 14.0741 78.0824 14.0741 77.8911C14.0741 77.4929 13.9083 77.4581 13.2799 77.725C13.0448 77.8249 12.7869 77.8721 12.7068 77.83C12.5122 77.7276 11.9078 77.6455 11.4877 77.6644C11.3006 77.6729 11.0556 77.6762 10.9433 77.6718C10.6688 77.6613 8.63639 77.6848 8.26614 77.7029C7.94435 77.7185 7.65332 77.8911 7.94857 77.8911C8.04835 77.8911 8.09586 77.9203 8.05393 77.9559C8.012 77.9916 7.74235 77.9134 7.45472 77.7821C6.77833 77.4734 6.53413 77.4733 6.62887 77.7818C6.68413 77.9618 6.66072 77.991 6.53358 77.9013C6.44102 77.8358 6.00176 77.7465 5.55746 77.7027C5.11315 77.659 4.61794 77.5505 4.45705 77.4616C4.22033 77.3311 4.15241 77.329 4.10204 77.4507C4.05399 77.5672 3.9406 77.5528 3.60261 77.3873C3.36222 77.2694 3.12931 77.2039 3.08494 77.2416C3.0407 77.2793 2.91901 77.2061 2.81446 77.0791C2.70992 76.952 2.55134 76.8464 2.46191 76.8444C2.2241 76.8391 1.8804 76.3839 1.7779 75.9388C1.70303 75.6136 1.73243 75.5412 1.96003 75.4906C2.29884 75.4151 2.2987 75.3344 1.95921 74.8197C1.80948 74.5928 1.69132 74.3434 1.6965 74.2657C1.70181 74.1879 1.7587 74.2286 1.82309 74.3561L1.94002 74.5879L1.97037 74.3561C1.98698 74.2286 2.00822 74.0721 2.01761 74.0084C2.02686 73.9447 2.0937 73.8143 2.16598 73.7186C2.23826 73.623 2.30932 73.284 2.32375 72.9653C2.33831 72.6466 2.39058 72.1964 2.43999 71.9648C2.49553 71.7045 2.4728 71.514 2.38065 71.4654C2.17823 71.3589 2.19171 71.1688 2.40161 71.1687C2.52548 71.1686 2.58142 70.8159 2.60715 69.8727C2.63465 68.8633 2.69209 68.5302 2.86646 68.3661C3.026 68.216 3.04002 68.1553 2.91533 68.1553C2.73728 68.1553 2.74286 68.0933 3.0279 66.9136C3.10359 66.6003 3.09705 66.4114 3.00953 66.3866C2.92159 66.3615 2.92826 66.2599 3.02818 66.101C3.11352 65.9651 3.14606 65.7715 3.10059 65.6704C3.05499 65.5693 3.08303 65.4197 3.16267 65.3379C3.24243 65.256 3.30872 65.0873 3.30995 64.9627C3.31335 64.6266 3.47711 63.9416 3.58573 63.809C3.73832 63.6226 3.74431 62.9616 3.59417 62.8826C3.51849 62.8427 3.45655 62.6047 3.45655 62.3534C3.45655 62.1021 3.39162 61.8966 3.3124 61.8966C3.23318 61.8966 3.20677 61.8437 3.25373 61.7789C3.30083 61.7141 3.39625 61.691 3.46594 61.7278C3.74023 61.8721 3.57389 61.435 3.29007 61.2658C2.98176 61.0818 3.08017 61.0307 3.6444 61.0818C3.85253 61.1006 3.88438 61.0513 3.81551 60.8175C3.75629 60.6165 3.794 60.5093 3.94074 60.4613C4.09891 60.4096 4.14342 60.2422 4.12083 59.7828C4.10449 59.4474 4.02486 59.1346 3.94387 59.0877C3.84423 59.0301 3.85171 59.0021 3.96701 59.0008C4.06066 58.9999 4.13716 58.8687 4.13716 58.7093C4.13716 58.5499 4.07591 58.4196 4.00104 58.4196C3.92617 58.4196 3.86492 58.3358 3.86492 58.2333C3.86492 58.1253 3.94155 58.0721 4.04718 58.1066C4.18548 58.1518 4.2368 57.9952 4.25953 57.4593C4.27601 57.0706 4.33005 56.6974 4.37959 56.6299C4.5424 56.4084 4.56799 56.1763 4.59167 54.7107C4.60719 53.7481 4.6762 53.1702 4.79708 52.9887C4.92381 52.7985 4.93579 52.6786 4.83669 52.5942C4.73923 52.5112 4.73814 52.4034 4.83356 52.2517C4.91006 52.13 4.95539 51.8902 4.93429 51.7189C4.91319 51.5475 4.94572 51.3387 5.00657 51.2548C5.06742 51.1709 5.08103 51.0715 5.03679 51.0337C4.99255 50.996 5.01855 50.9013 5.09464 50.8232C5.1917 50.7236 5.17604 50.6626 5.04237 50.6189C4.8876 50.5683 4.88039 50.4783 5.00412 50.1417C5.08797 49.9136 5.20286 49.7269 5.25948 49.7269C5.43903 49.7269 5.37042 49.4856 5.13371 49.284C4.91986 49.1018 4.91986 49.087 5.13371 49.052C5.25948 49.0314 5.36226 48.9156 5.36226 48.7948C5.36226 48.6471 5.29529 48.597 5.15807 48.6418C5.04577 48.6786 4.95389 48.6762 4.95389 48.6366C4.95389 48.5343 5.26411 48.0832 5.45918 47.902C5.57665 47.7929 5.58563 47.6622 5.49035 47.4488C5.40745 47.2633 5.40473 47.0989 5.483 47.018C5.64498 46.8505 5.7973 45.7036 5.66581 45.6403C5.61122 45.614 5.64988 45.6105 5.7517 45.6326C5.88932 45.6625 5.91355 45.5933 5.8459 45.3639C5.78668 45.1628 5.81704 45.0207 5.93288 44.9569C6.05525 44.8896 6.06519 44.8318 5.96487 44.7721C5.86128 44.7104 5.86713 44.4026 5.98488 43.7136C6.14115 42.8 6.14891 42.4947 6.02599 42.0773C5.99781 41.9817 6.04913 41.9159 6.14006 41.9311C6.23562 41.9471 6.2725 41.8859 6.22758 41.7862C6.18484 41.6914 6.21765 41.6137 6.30055 41.6137C6.39352 41.6137 6.45123 41.3547 6.45123 40.9377C6.45123 40.5657 6.4971 40.2224 6.55332 40.1746C6.60941 40.1268 6.66903 39.7399 6.68577 39.315C6.70238 38.89 6.74199 38.0339 6.7737 37.4123C6.80542 36.7907 6.77792 36.2822 6.71272 36.2822C6.58885 36.2822 6.80733 35.6941 6.97026 35.5891C7.35739 35.3396 7.4275 34.7033 7.10652 34.3521C7.02988 34.2683 7.04989 34.1927 7.16015 34.1493C7.29913 34.0946 7.30036 34.0659 7.16587 34.0125C6.93664 33.9214 6.95093 33.6189 7.19514 33.3892C7.3676 33.2268 7.36869 33.1591 7.20317 32.8875C7.09795 32.7146 7.0695 32.5734 7.13987 32.5734C7.30839 32.5734 7.30635 31.2165 7.13783 31.1277C6.99027 31.0501 7.10748 30.7021 7.32228 30.5803C7.40939 30.5308 7.37142 30.4692 7.22427 30.4211C6.99994 30.3478 6.99899 30.3284 7.21011 30.1298C7.47677 29.879 7.37441 29.3281 7.06119 29.3281C6.95025 29.3281 6.8596 29.2776 6.8596 29.2158C6.8596 29.1541 6.94358 29.1311 7.04622 29.1646C7.14886 29.1981 7.26946 29.1443 7.31424 29.045C7.36502 28.9321 7.32064 28.8645 7.19568 28.8645C6.94821 28.8645 6.94794 28.754 7.19486 28.4764C7.31329 28.3435 7.34664 28.173 7.28294 28.0264C7.22658 27.8967 7.22576 27.5497 7.28103 27.2554C7.33629 26.9611 7.34936 26.603 7.31002 26.4595C7.27069 26.316 7.29995 26.1987 7.37495 26.1987C7.46234 26.1987 7.47038 26.0432 7.39714 25.767C7.31724 25.4651 7.33167 25.3088 7.4456 25.2473C7.56879 25.1805 7.56634 25.1588 7.43553 25.1574C7.32173 25.1562 7.29056 25.0614 7.34419 24.8793C7.38897 24.7275 7.3627 24.4092 7.28593 24.1722C7.1901 23.8769 7.19051 23.5372 7.28702 23.0924C7.41143 22.5199 7.39946 22.4259 7.18574 22.293C7.0469 22.2065 7.01573 22.1422 7.11251 22.1422C7.22835 22.1422 7.27177 21.9622 7.25081 21.5701C7.23393 21.2555 7.28566 20.9295 7.36597 20.8457C7.52401 20.6806 7.48576 19.8004 7.30213 19.3778C7.23883 19.2322 7.24618 18.8176 7.31874 18.4444C7.48725 17.5762 7.38707 17.3395 6.89526 17.4446L6.52515 17.5238L6.91282 17.2178C7.48916 16.7631 7.57492 16.2582 7.18683 15.6063C6.93487 15.1828 6.91023 15.0721 7.06841 15.0721C7.30118 15.0721 7.33534 14.7123 7.12 14.5289C7.01341 14.4381 7.01341 14.3811 7.12 14.325C7.33589 14.2113 7.30077 13.8417 7.05412 13.6316C6.8596 13.4661 6.8596 13.4495 7.05412 13.4495C7.28797 13.4495 7.35195 13.1449 7.13116 13.0823C7.05561 13.0609 6.99531 12.655 6.9964 12.1743C6.99749 11.6964 6.99436 11.2271 6.98946 11.1315C6.92493 9.87774 6.86736 9.48564 6.68046 9.02412C6.55972 8.72567 6.43748 8.2514 6.40917 7.97022C6.38072 7.68904 6.32246 7.41065 6.27958 7.35154C6.2367 7.29254 6.20172 6.9927 6.20172 6.68533C6.20172 6.0095 5.95384 5.45294 5.65206 5.45051C5.52043 5.44946 5.48749 5.41411 5.57093 5.36358C5.84263 5.19912 5.72148 4.54079 5.3824 4.33854C5.1431 4.19587 5.10648 4.12435 5.23757 4.05539C5.38023 3.98029 5.37995 3.92941 5.23566 3.7814C5.1382 3.68149 5.04414 3.42975 5.02672 3.22206C5.00535 2.96916 4.90121 2.80782 4.71119 2.73341C4.48345 2.64417 4.44344 2.55284 4.50809 2.2698C4.55247 2.0759 4.64013 1.89984 4.70302 1.87863C4.76591 1.85742 4.77966 1.71243 4.73365 1.55643C4.65265 1.28162 4.66763 1.27513 5.21035 1.34896C5.68323 1.4134 5.77062 1.39439 5.77062 1.22692C5.77062 1.11785 5.69412 1.0519 5.60047 1.0803C5.42297 1.13431 4.68165 0.861013 4.68165 0.741749C4.68165 0.704081 4.82635 0.696779 5.00317 0.725523C5.33694 0.779881 5.6345 0.522926 5.6345 0.180319C5.6345 -0.0316663 5.0455 -0.0439518 4.54661 0.157602ZM5.80384 0.429625C5.85407 1.06975 6.43109 1.56013 6.63377 1.13489C6.68727 1.02246 6.73178 1.02536 6.83278 1.14799C6.94249 1.28139 6.97353 1.28139 7.03166 1.14799C7.08433 1.02733 7.14872 1.04333 7.3039 1.21533C7.49488 1.42708 7.52768 1.42928 7.84566 1.25195C8.10647 1.10638 8.22109 1.09456 8.34537 1.20037C8.55976 1.38292 9.424 1.37979 9.50676 1.19609C9.55168 1.09629 9.68576 1.1408 9.93717 1.33934C10.37 1.6809 10.4802 1.69574 10.5716 1.42464C10.6093 1.31303 10.6815 1.13674 10.732 1.03278C10.8454 0.799353 10.2399 0.583542 9.24173 0.501368C8.86739 0.470538 8.50286 0.398447 8.4318 0.341075C8.36075 0.283588 8.17385 0.236647 8.01663 0.236647C7.85941 0.236647 7.65727 0.17406 7.56743 0.0975646C7.44043 -0.0105721 7.40218 0.0215332 7.39551 0.242443L7.3868 0.526403L7.26374 0.265623C7.13429 -0.00836991 6.55809 -0.108625 6.59756 0.149721C6.68495 0.722857 6.3294 0.895088 6.17899 0.35255C6.04668 -0.124504 5.76491 -0.0666686 5.80384 0.429625ZM10.3988 0.464395C10.3988 0.525823 10.5213 0.63199 10.671 0.700256C10.9017 0.805379 10.9433 0.788342 10.9433 0.588411C10.9433 0.429857 10.8541 0.35255 10.671 0.35255C10.5213 0.35255 10.3988 0.402851 10.3988 0.464395ZM11.1819 0.565462C11.1451 0.685189 11.1713 0.868894 11.24 0.973554C11.3324 1.11403 11.3098 1.16386 11.1542 1.16386C10.9076 1.16386 10.8953 1.2188 11.0776 1.50879C11.2077 1.71579 11.6102 1.71904 11.9642 1.51586C12.2139 1.37249 12.849 1.39289 12.849 1.54426C12.849 1.7326 14.4943 2.01146 14.6787 1.85441C14.8765 1.686 15.3807 1.72159 15.5714 1.91723C15.798 2.14973 15.9788 2.13698 15.9841 1.88825C15.9882 1.69504 15.997 1.69504 16.1692 1.88825C16.2762 2.00821 16.5308 2.09108 16.7925 2.09108H17.2351L16.9137 1.85047C16.7369 1.71811 16.6658 1.64138 16.7557 1.67986C16.934 1.75636 17.2612 1.33528 17.1465 1.17708C17.0318 1.01922 16.1544 0.938783 15.7155 1.04599C15.2146 1.16827 14.7502 1.07682 14.8416 0.873878C14.9233 0.692607 13.9702 0.671744 13.6997 0.848958C13.5886 0.921745 13.4652 0.915023 13.3443 0.829603C13.2425 0.757627 12.8115 0.677771 12.3865 0.652157C11.9616 0.626658 11.5317 0.547613 11.4314 0.476681C11.291 0.377468 11.2333 0.398099 11.1819 0.565462ZM7.04268 0.763191C6.99831 0.861592 6.93283 0.917225 6.89717 0.886859C6.8615 0.856492 6.87266 0.77594 6.92208 0.708022C7.05629 0.523042 7.1347 0.558971 7.04268 0.763191ZM8.22081 0.816158C8.22081 0.879905 8.19522 0.932061 8.16392 0.932061C8.13261 0.932061 8.00942 0.963934 7.89004 1.00288C7.73132 1.0548 7.69579 1.02374 7.75746 0.886975C7.84879 0.684262 8.22081 0.627354 8.22081 0.816158ZM12.4406 0.816158C12.4406 0.879905 12.4136 0.932061 12.3806 0.932061C12.3475 0.932061 12.2827 0.879905 12.2364 0.816158C12.1901 0.752412 12.2172 0.700256 12.2964 0.700256C12.3757 0.700256 12.4406 0.752412 12.4406 0.816158ZM18.5661 1.36391C18.4538 1.40007 18.3162 1.49535 18.2601 1.57578C18.1411 1.74662 17.6177 1.66155 17.6037 1.46904C17.5948 1.34885 17.3727 1.70501 17.3505 1.87469C17.3349 1.99535 17.9077 2.11148 18.6601 2.14023C19.0486 2.15506 19.4468 2.22263 19.5449 2.29043C19.8538 2.50416 20.8328 2.44597 21.2131 2.19122C21.7383 1.83946 21.6633 1.63628 21.0163 1.65819C20.7168 1.66839 20.4718 1.72935 20.4718 1.79379C20.4718 1.85823 20.3739 1.79194 20.2544 1.64648C20.0836 1.4389 19.9551 1.39752 19.6548 1.45362C19.4398 1.49384 19.2336 1.47147 19.1835 1.40251C19.088 1.27084 18.8928 1.25856 18.5661 1.36391ZM22.0021 1.85742C21.7525 2.19771 21.7809 2.59653 22.0483 2.50914C22.1668 2.47043 22.3067 2.43879 22.3592 2.43879C22.5095 2.43879 22.4616 1.70953 22.3083 1.66584C22.2329 1.6444 22.095 1.73063 22.0021 1.85742ZM22.8539 1.85928C22.8076 1.92302 22.8653 1.97518 22.982 1.97518C23.0987 1.97518 23.1942 2.02734 23.1942 2.09108C23.1942 2.15483 23.2926 2.20698 23.413 2.20698C23.5566 2.20698 23.6033 2.14393 23.5491 2.02363C23.5036 1.92279 23.4665 1.81848 23.4665 1.79182C23.4665 1.69029 22.9341 1.74882 22.8539 1.85928ZM25.7197 1.96533C25.6759 2.02571 25.698 2.10557 25.769 2.14289C25.8399 2.18021 25.9337 2.16132 25.9775 2.10093C26.0213 2.04055 25.9991 1.96069 25.9282 1.92337C25.8573 1.88605 25.7635 1.90494 25.7197 1.96533ZM23.8748 2.1269C23.8748 2.21035 23.9655 2.37979 24.0764 2.50358C24.2437 2.69018 24.2995 2.70073 24.4042 2.56501C24.4846 2.46081 24.4738 2.32428 24.3741 2.18832C24.1938 1.9425 23.8748 1.9032 23.8748 2.1269ZM25.0999 2.32289C25.0999 2.38663 25.1648 2.43879 25.2441 2.43879C25.3233 2.43879 25.3504 2.38663 25.3041 2.32289C25.2578 2.25914 25.193 2.20698 25.16 2.20698C25.1269 2.20698 25.0999 2.25914 25.0999 2.32289ZM6.38317 38.1367C6.42945 38.2004 6.40236 38.2526 6.32314 38.2526C6.24392 38.2526 6.17899 38.2004 6.17899 38.1367C6.17899 38.0729 6.20594 38.0208 6.23902 38.0208C6.27209 38.0208 6.33689 38.0729 6.38317 38.1367ZM4.95389 42.5478C4.95389 42.6078 4.89264 42.6569 4.81777 42.6569C4.7429 42.6569 4.68165 42.5755 4.68165 42.4762C4.68165 42.3768 4.7429 42.3277 4.81777 42.3671C4.89264 42.4065 4.95389 42.4878 4.95389 42.5478ZM2.24833 69.4612C2.11385 69.5748 2.09833 69.5615 2.17211 69.3963C2.22329 69.282 2.29938 69.2177 2.34131 69.2534C2.38323 69.289 2.34144 69.3825 2.24833 69.4612ZM0.597994 75.856C0.597994 75.8842 0.536739 75.9393 0.461872 75.9787C0.387005 76.0181 0.32575 75.9951 0.32575 75.9276C0.32575 75.8602 0.387005 75.8049 0.461872 75.8049C0.536739 75.8049 0.597994 75.8278 0.597994 75.856ZM0.870237 76.2037C0.870237 76.2319 0.808982 76.287 0.734115 76.3264C0.659248 76.3659 0.597994 76.3428 0.597994 76.2753C0.597994 76.2079 0.659248 76.1526 0.734115 76.1526C0.808982 76.1526 0.870237 76.1755 0.870237 76.2037Z"/>
</mask>
<path fill-rule="evenodd" clip-rule="evenodd" d="M4.54661 0.157602C4.35999 0.232939 4.10898 0.372832 3.98879 0.468452C3.86859 0.564071 3.60955 0.739779 3.41313 0.858927C3.13871 1.02525 3.08507 1.12179 3.18145 1.27513C3.25046 1.38489 3.39611 1.69539 3.50528 1.9651C3.67911 2.39475 3.67911 2.44737 3.50501 2.39046C3.2702 2.31373 3.36698 2.48967 3.76922 2.87029C3.91896 3.01193 4.05032 3.24663 4.06107 3.39185C4.09319 3.82695 4.28308 4.55609 4.481 5.00452C4.58337 5.23632 4.63237 5.45549 4.5899 5.49165C4.45011 5.61068 4.67566 6.1239 5.02182 6.47404C5.30046 6.75603 5.32509 6.83044 5.15794 6.88503C4.91156 6.96547 4.8842 7.30668 5.12404 7.30668C5.22736 7.30668 5.29025 7.45469 5.28412 7.68336C5.27854 7.89048 5.39016 8.2288 5.53227 8.43522C5.67438 8.64153 5.77267 8.92839 5.75075 9.07268C5.72883 9.21687 5.76109 9.40358 5.82248 9.48761C5.88388 9.57153 5.89776 9.67097 5.85352 9.70876C5.80928 9.74642 5.84127 9.84726 5.92458 9.93279C6.03606 10.0472 6.03579 10.0883 5.92335 10.0883C5.73101 10.0883 5.72053 10.7503 5.91205 10.8046C6.0057 10.8312 5.99155 11.0008 5.87013 11.3068C5.7694 11.561 5.70093 11.9515 5.71822 12.1746C5.7355 12.3977 5.75442 12.651 5.76014 12.7376C5.76749 12.8487 5.88102 12.8739 6.14496 12.8232L6.51929 12.7513L6.11093 13.0533C5.85965 13.2393 5.76518 13.3764 5.86536 13.41C6.02163 13.4625 5.99699 14.5381 5.83038 14.9441C5.7939 15.033 5.8719 15.2072 6.0038 15.3312C6.23289 15.5467 6.23221 15.5637 5.98774 15.7158C5.62606 15.941 5.65015 16.6975 6.03143 17.0887C6.18076 17.2419 6.18117 17.3063 6.03388 17.4574C5.82112 17.6756 5.74054 19.9105 5.94159 20.0163C6.02313 20.0592 6.02027 20.112 5.93411 20.1575C5.81037 20.2225 5.72244 20.8212 5.75742 21.3598C5.76463 21.4714 5.8625 21.5627 5.97481 21.5627C6.08711 21.5627 6.17899 21.6409 6.17899 21.7365C6.17899 21.8321 6.08711 21.9104 5.97481 21.9104C5.71917 21.9104 5.7031 22.3592 5.95588 22.4418C6.23752 22.5338 6.26406 24.1125 5.98406 24.1125C5.85788 24.1125 5.80928 24.1793 5.85747 24.2864C5.90062 24.382 5.86999 24.4602 5.78941 24.4602C5.62089 24.4602 5.74612 24.8182 5.96487 24.9616C6.06642 25.0281 6.05893 25.0753 5.94077 25.1161C5.72679 25.19 5.71631 25.5033 5.92784 25.5033C6.02027 25.5033 5.98964 25.5932 5.85338 25.7213C5.64471 25.9176 5.64253 25.9572 5.83106 26.1177C5.96432 26.2312 5.98624 26.3114 5.8915 26.3383C5.79036 26.367 5.81173 26.5216 5.95765 26.8193C6.14414 27.1991 6.14727 27.2917 5.98188 27.5106C5.8768 27.6497 5.74884 27.9591 5.69752 28.1981C5.61381 28.5882 5.63369 28.6327 5.89164 28.6327C6.20608 28.6327 6.24269 28.7151 6.04572 28.9804C5.95343 29.1048 5.97821 29.1726 6.13257 29.2187C6.32845 29.2772 6.32791 29.3006 6.12658 29.472C6.00448 29.576 5.96065 29.6905 6.02898 29.7265C6.21166 29.8225 6.04287 30.2553 5.82276 30.2553C5.58509 30.2553 5.58672 30.2782 5.85883 30.764C6.06723 31.1361 6.06723 31.1784 5.8591 31.3555C5.68269 31.5058 5.66676 31.5969 5.78451 31.7841C5.89831 31.9652 5.89504 32.0014 5.77062 31.9359C5.64471 31.8696 5.64335 31.9073 5.76463 32.1001C5.85107 32.2377 5.87816 32.4657 5.8248 32.6067C5.77144 32.7477 5.71277 33.0178 5.69467 33.207C5.67643 33.3962 5.59421 33.57 5.51185 33.5933C5.29733 33.6543 5.32727 33.8551 5.58754 34.0999C5.7973 34.2973 5.79703 34.3119 5.58495 34.3119C5.4099 34.3119 5.37682 34.379 5.44243 34.6017C5.49511 34.7801 5.46993 34.8914 5.37696 34.8914C5.29406 34.8914 5.22614 35.0479 5.22614 35.2391C5.22614 35.4304 5.278 35.5868 5.34129 35.5868C5.40473 35.5868 5.34551 35.8607 5.2098 36.1953C4.95539 36.8229 4.98819 37.5315 5.27977 37.7042C5.38254 37.7651 5.35259 37.844 5.18584 37.9527C5.01161 38.0663 4.96642 38.1969 5.02849 38.4075C5.0764 38.57 5.06973 38.7662 5.01365 38.8436C4.95757 38.9207 4.89931 39.2994 4.8842 39.6849C4.86841 40.088 4.79068 40.4044 4.70111 40.4299C4.61549 40.4541 4.54553 40.597 4.54553 40.7472C4.54553 40.8976 4.48849 41.0506 4.41893 41.0872C4.28063 41.16 4.30187 41.6035 4.45364 41.8127C4.50605 41.8849 4.47229 42.0873 4.37864 42.2623C4.24143 42.5188 4.24225 42.5901 4.38259 42.63C4.51435 42.6673 4.51912 42.7182 4.40205 42.8382C4.31684 42.9256 4.22292 43.2466 4.19324 43.5514C4.1083 44.4223 4.03793 44.7769 3.88302 45.1158C3.77045 45.3619 3.78297 45.4681 3.94006 45.6018C4.10994 45.7465 4.11184 45.7874 3.9519 45.8665C3.64631 46.0178 3.60302 46.8252 3.86791 47.4319C4.09605 47.9543 4.09564 47.9844 3.85797 48.1675C3.53115 48.4194 3.2732 49.0315 3.49399 49.0315C3.58151 49.0315 3.51713 49.1127 3.35079 49.2119C3.00612 49.4174 2.94705 49.7269 3.25237 49.7269C3.51223 49.7269 3.51032 49.9262 3.24611 50.3575C3.12714 50.5519 3.03076 51.0255 3.02205 51.4586C3.01116 52.0092 2.94691 52.2568 2.78928 52.3565C2.59299 52.4808 2.5979 52.5107 2.84033 52.6636C3.0667 52.8064 3.08439 52.8757 2.95304 53.1053C2.69522 53.5559 2.616 54.0153 2.79609 54.0153C2.88484 54.0153 2.9171 54.0496 2.86783 54.0915C2.81855 54.1335 2.85203 54.2435 2.94215 54.3359C3.07269 54.4698 3.05867 54.5335 2.87286 54.649C2.74477 54.7289 2.63982 54.8767 2.63982 54.9774C2.63982 55.0782 2.58891 55.1874 2.52684 55.2201C2.39712 55.2883 2.42733 56.1141 2.57789 56.6122C2.65085 56.8538 2.62267 56.9849 2.47811 57.0758C2.20641 57.2467 2.06661 58.0284 2.2742 58.2159C2.46858 58.3913 2.52194 58.7673 2.35247 58.7673C2.2859 58.7673 2.23146 58.8455 2.23146 58.9411C2.23146 59.0367 2.13808 59.115 2.02401 59.115C1.84677 59.115 1.82432 59.3178 1.86964 60.5086C1.89864 61.2752 1.87767 61.9258 1.82282 61.9547C1.6675 62.0365 1.52553 63.0033 1.48469 64.2572C1.45937 65.0356 1.39158 65.4301 1.27221 65.493C1.15664 65.5537 1.10518 65.8158 1.12097 66.2617C1.13431 66.6355 1.0653 67.0681 0.966748 67.2281C0.843149 67.4291 0.825861 67.6244 0.910257 67.8656C0.977229 68.0568 1.08218 68.3568 1.14357 68.532C1.20796 68.7163 1.20251 68.8508 1.13064 68.8508C1.06231 68.8508 1.00636 69.0008 1.00636 69.1843C1.00636 69.3677 0.907126 69.5879 0.785977 69.6735C0.6097 69.7981 0.581931 69.9634 0.647678 70.499C0.714786 71.0455 0.692734 71.1688 0.527891 71.1688C0.300568 71.1688 0.252516 71.4643 0.461872 71.5745C0.675855 71.6871 0.620862 72.0958 0.381287 72.1741C0.209502 72.2302 0.18255 72.3476 0.2517 72.7397C0.303018 73.0309 0.282191 73.2642 0.201334 73.3068C0.111086 73.3544 0.108908 73.4798 0.194801 73.6724C0.360325 74.0428 0.361822 74.2149 0.199021 74.1293C-0.0552549 73.9954 -0.0699562 74.2751 0.178466 74.5191C0.420082 74.7562 0.425527 75.2254 0.186769 75.2254C0.0554116 75.2254 0.189901 76.1875 0.33242 76.2685C0.388503 76.3004 0.455883 76.4568 0.482154 76.6162C0.51741 76.8299 0.601397 76.897 0.802176 76.8721C1.02392 76.8446 1.03685 76.8598 0.871463 76.9542C0.694641 77.0551 0.702535 77.119 0.932717 77.4516C1.0781 77.6614 1.30719 77.9342 1.44195 78.0579C1.57671 78.1815 1.68697 78.3208 1.68697 78.3674C1.68697 78.4141 1.87482 78.4873 2.10459 78.5303C2.33423 78.5732 2.55515 78.6817 2.59558 78.7713C2.64118 78.8727 2.86919 78.9342 3.19887 78.9342C3.49031 78.9342 3.7288 78.9864 3.7288 79.0501C3.7288 79.2053 4.36938 79.199 4.48291 79.0426C4.54226 78.9609 4.65347 78.9814 4.81164 79.1033C4.94681 79.2075 5.15004 79.2551 5.27963 79.2128C5.4148 79.1686 5.62184 79.2253 5.78532 79.3513C6.07907 79.5776 6.50636 79.6295 6.88532 79.4849C7.01178 79.4367 7.15321 79.4495 7.19963 79.5134C7.33071 79.6941 7.59751 79.6514 7.91563 79.3991C8.18774 79.1833 8.62918 79.1858 8.62918 79.4031C8.62918 79.456 8.73631 79.5034 8.86739 79.5085C11.5634 79.6119 12.4798 79.6177 12.3239 79.5303C12.2103 79.4666 12.1916 79.3992 12.2756 79.3551C12.3507 79.3156 12.4462 79.3589 12.4878 79.4514C12.5376 79.562 12.7642 79.62 13.1487 79.621C15.0144 79.6253 15.3442 79.6421 15.5683 79.744C15.7475 79.8259 15.8621 79.8083 15.9872 79.6798C16.082 79.5827 16.2397 79.5294 16.3379 79.5615C16.436 79.5936 16.61 79.5401 16.7245 79.4426C16.839 79.3451 16.933 79.3083 16.9334 79.3606C16.934 79.4129 17.1218 79.5467 17.3508 79.6576C17.7374 79.845 17.7979 79.846 18.1923 79.6723C18.5167 79.5295 18.6744 79.5156 18.8586 79.6135C18.9912 79.6841 19.1879 79.713 19.2955 79.6779C19.4032 79.6426 19.5319 79.6695 19.5813 79.7377C19.6806 79.8746 20.8905 79.8859 21.4246 79.7549C21.6215 79.7067 22.0519 79.7438 22.4455 79.8429C23.0141 79.9861 23.8635 80.0265 25.4104 79.984C26.2311 79.9615 25.3396 79.015 24.374 78.8836C24.0778 78.8433 23.6664 78.7078 23.4598 78.5825C23.0491 78.3335 22.7858 78.2898 22.7858 78.4706C22.7858 78.6371 22.4692 78.6135 22.0187 78.4134C21.8043 78.3182 21.5318 78.24 21.4133 78.2395C21.2948 78.2392 21.1518 78.1998 21.0956 78.1519C21.0395 78.1041 20.8302 78.0533 20.6306 78.039C20.4309 78.0248 20.0073 77.9801 19.6891 77.9399C19.1986 77.8779 19.1106 77.8973 19.1106 78.0669C19.1106 78.2113 19.0629 78.235 18.9404 78.1523C18.3669 77.7647 16.7965 77.7102 16.7965 78.0778C16.7965 78.2917 16.659 78.2816 16.463 78.0533C16.3753 77.9512 16.1103 77.8547 15.874 77.8389C15.6377 77.823 15.3458 77.7405 15.2252 77.6553C15.0842 77.5556 14.9734 77.542 14.9145 77.6172C14.864 77.6816 14.7155 77.7678 14.5845 77.8091C14.4534 77.8502 14.3463 77.9637 14.3463 78.0614C14.3463 78.159 14.285 78.2388 14.2102 78.2388C14.1353 78.2388 14.0741 78.0824 14.0741 77.8911C14.0741 77.4929 13.9083 77.4581 13.2799 77.725C13.0448 77.8249 12.7869 77.8721 12.7068 77.83C12.5122 77.7276 11.9078 77.6455 11.4877 77.6644C11.3006 77.6729 11.0556 77.6762 10.9433 77.6718C10.6688 77.6613 8.63639 77.6848 8.26614 77.7029C7.94435 77.7185 7.65332 77.8911 7.94857 77.8911C8.04835 77.8911 8.09586 77.9203 8.05393 77.9559C8.012 77.9916 7.74235 77.9134 7.45472 77.7821C6.77833 77.4734 6.53413 77.4733 6.62887 77.7818C6.68413 77.9618 6.66072 77.991 6.53358 77.9013C6.44102 77.8358 6.00176 77.7465 5.55746 77.7027C5.11315 77.659 4.61794 77.5505 4.45705 77.4616C4.22033 77.3311 4.15241 77.329 4.10204 77.4507C4.05399 77.5672 3.9406 77.5528 3.60261 77.3873C3.36222 77.2694 3.12931 77.2039 3.08494 77.2416C3.0407 77.2793 2.91901 77.2061 2.81446 77.0791C2.70992 76.952 2.55134 76.8464 2.46191 76.8444C2.2241 76.8391 1.8804 76.3839 1.7779 75.9388C1.70303 75.6136 1.73243 75.5412 1.96003 75.4906C2.29884 75.4151 2.2987 75.3344 1.95921 74.8197C1.80948 74.5928 1.69132 74.3434 1.6965 74.2657C1.70181 74.1879 1.7587 74.2286 1.82309 74.3561L1.94002 74.5879L1.97037 74.3561C1.98698 74.2286 2.00822 74.0721 2.01761 74.0084C2.02686 73.9447 2.0937 73.8143 2.16598 73.7186C2.23826 73.623 2.30932 73.284 2.32375 72.9653C2.33831 72.6466 2.39058 72.1964 2.43999 71.9648C2.49553 71.7045 2.4728 71.514 2.38065 71.4654C2.17823 71.3589 2.19171 71.1688 2.40161 71.1687C2.52548 71.1686 2.58142 70.8159 2.60715 69.8727C2.63465 68.8633 2.69209 68.5302 2.86646 68.3661C3.026 68.216 3.04002 68.1553 2.91533 68.1553C2.73728 68.1553 2.74286 68.0933 3.0279 66.9136C3.10359 66.6003 3.09705 66.4114 3.00953 66.3866C2.92159 66.3615 2.92826 66.2599 3.02818 66.101C3.11352 65.9651 3.14606 65.7715 3.10059 65.6704C3.05499 65.5693 3.08303 65.4197 3.16267 65.3379C3.24243 65.256 3.30872 65.0873 3.30995 64.9627C3.31335 64.6266 3.47711 63.9416 3.58573 63.809C3.73832 63.6226 3.74431 62.9616 3.59417 62.8826C3.51849 62.8427 3.45655 62.6047 3.45655 62.3534C3.45655 62.1021 3.39162 61.8966 3.3124 61.8966C3.23318 61.8966 3.20677 61.8437 3.25373 61.7789C3.30083 61.7141 3.39625 61.691 3.46594 61.7278C3.74023 61.8721 3.57389 61.435 3.29007 61.2658C2.98176 61.0818 3.08017 61.0307 3.6444 61.0818C3.85253 61.1006 3.88438 61.0513 3.81551 60.8175C3.75629 60.6165 3.794 60.5093 3.94074 60.4613C4.09891 60.4096 4.14342 60.2422 4.12083 59.7828C4.10449 59.4474 4.02486 59.1346 3.94387 59.0877C3.84423 59.0301 3.85171 59.0021 3.96701 59.0008C4.06066 58.9999 4.13716 58.8687 4.13716 58.7093C4.13716 58.5499 4.07591 58.4196 4.00104 58.4196C3.92617 58.4196 3.86492 58.3358 3.86492 58.2333C3.86492 58.1253 3.94155 58.0721 4.04718 58.1066C4.18548 58.1518 4.2368 57.9952 4.25953 57.4593C4.27601 57.0706 4.33005 56.6974 4.37959 56.6299C4.5424 56.4084 4.56799 56.1763 4.59167 54.7107C4.60719 53.7481 4.6762 53.1702 4.79708 52.9887C4.92381 52.7985 4.93579 52.6786 4.83669 52.5942C4.73923 52.5112 4.73814 52.4034 4.83356 52.2517C4.91006 52.13 4.95539 51.8902 4.93429 51.7189C4.91319 51.5475 4.94572 51.3387 5.00657 51.2548C5.06742 51.1709 5.08103 51.0715 5.03679 51.0337C4.99255 50.996 5.01855 50.9013 5.09464 50.8232C5.1917 50.7236 5.17604 50.6626 5.04237 50.6189C4.8876 50.5683 4.88039 50.4783 5.00412 50.1417C5.08797 49.9136 5.20286 49.7269 5.25948 49.7269C5.43903 49.7269 5.37042 49.4856 5.13371 49.284C4.91986 49.1018 4.91986 49.087 5.13371 49.052C5.25948 49.0314 5.36226 48.9156 5.36226 48.7948C5.36226 48.6471 5.29529 48.597 5.15807 48.6418C5.04577 48.6786 4.95389 48.6762 4.95389 48.6366C4.95389 48.5343 5.26411 48.0832 5.45918 47.902C5.57665 47.7929 5.58563 47.6622 5.49035 47.4488C5.40745 47.2633 5.40473 47.0989 5.483 47.018C5.64498 46.8505 5.7973 45.7036 5.66581 45.6403C5.61122 45.614 5.64988 45.6105 5.7517 45.6326C5.88932 45.6625 5.91355 45.5933 5.8459 45.3639C5.78668 45.1628 5.81704 45.0207 5.93288 44.9569C6.05525 44.8896 6.06519 44.8318 5.96487 44.7721C5.86128 44.7104 5.86713 44.4026 5.98488 43.7136C6.14115 42.8 6.14891 42.4947 6.02599 42.0773C5.99781 41.9817 6.04913 41.9159 6.14006 41.9311C6.23562 41.9471 6.2725 41.8859 6.22758 41.7862C6.18484 41.6914 6.21765 41.6137 6.30055 41.6137C6.39352 41.6137 6.45123 41.3547 6.45123 40.9377C6.45123 40.5657 6.4971 40.2224 6.55332 40.1746C6.60941 40.1268 6.66903 39.7399 6.68577 39.315C6.70238 38.89 6.74199 38.0339 6.7737 37.4123C6.80542 36.7907 6.77792 36.2822 6.71272 36.2822C6.58885 36.2822 6.80733 35.6941 6.97026 35.5891C7.35739 35.3396 7.4275 34.7033 7.10652 34.3521C7.02988 34.2683 7.04989 34.1927 7.16015 34.1493C7.29913 34.0946 7.30036 34.0659 7.16587 34.0125C6.93664 33.9214 6.95093 33.6189 7.19514 33.3892C7.3676 33.2268 7.36869 33.1591 7.20317 32.8875C7.09795 32.7146 7.0695 32.5734 7.13987 32.5734C7.30839 32.5734 7.30635 31.2165 7.13783 31.1277C6.99027 31.0501 7.10748 30.7021 7.32228 30.5803C7.40939 30.5308 7.37142 30.4692 7.22427 30.4211C6.99994 30.3478 6.99899 30.3284 7.21011 30.1298C7.47677 29.879 7.37441 29.3281 7.06119 29.3281C6.95025 29.3281 6.8596 29.2776 6.8596 29.2158C6.8596 29.1541 6.94358 29.1311 7.04622 29.1646C7.14886 29.1981 7.26946 29.1443 7.31424 29.045C7.36502 28.9321 7.32064 28.8645 7.19568 28.8645C6.94821 28.8645 6.94794 28.754 7.19486 28.4764C7.31329 28.3435 7.34664 28.173 7.28294 28.0264C7.22658 27.8967 7.22576 27.5497 7.28103 27.2554C7.33629 26.9611 7.34936 26.603 7.31002 26.4595C7.27069 26.316 7.29995 26.1987 7.37495 26.1987C7.46234 26.1987 7.47038 26.0432 7.39714 25.767C7.31724 25.4651 7.33167 25.3088 7.4456 25.2473C7.56879 25.1805 7.56634 25.1588 7.43553 25.1574C7.32173 25.1562 7.29056 25.0614 7.34419 24.8793C7.38897 24.7275 7.3627 24.4092 7.28593 24.1722C7.1901 23.8769 7.19051 23.5372 7.28702 23.0924C7.41143 22.5199 7.39946 22.4259 7.18574 22.293C7.0469 22.2065 7.01573 22.1422 7.11251 22.1422C7.22835 22.1422 7.27177 21.9622 7.25081 21.5701C7.23393 21.2555 7.28566 20.9295 7.36597 20.8457C7.52401 20.6806 7.48576 19.8004 7.30213 19.3778C7.23883 19.2322 7.24618 18.8176 7.31874 18.4444C7.48725 17.5762 7.38707 17.3395 6.89526 17.4446L6.52515 17.5238L6.91282 17.2178C7.48916 16.7631 7.57492 16.2582 7.18683 15.6063C6.93487 15.1828 6.91023 15.0721 7.06841 15.0721C7.30118 15.0721 7.33534 14.7123 7.12 14.5289C7.01341 14.4381 7.01341 14.3811 7.12 14.325C7.33589 14.2113 7.30077 13.8417 7.05412 13.6316C6.8596 13.4661 6.8596 13.4495 7.05412 13.4495C7.28797 13.4495 7.35195 13.1449 7.13116 13.0823C7.05561 13.0609 6.99531 12.655 6.9964 12.1743C6.99749 11.6964 6.99436 11.2271 6.98946 11.1315C6.92493 9.87774 6.86736 9.48564 6.68046 9.02412C6.55972 8.72567 6.43748 8.2514 6.40917 7.97022C6.38072 7.68904 6.32246 7.41065 6.27958 7.35154C6.2367 7.29254 6.20172 6.9927 6.20172 6.68533C6.20172 6.0095 5.95384 5.45294 5.65206 5.45051C5.52043 5.44946 5.48749 5.41411 5.57093 5.36358C5.84263 5.19912 5.72148 4.54079 5.3824 4.33854C5.1431 4.19587 5.10648 4.12435 5.23757 4.05539C5.38023 3.98029 5.37995 3.92941 5.23566 3.7814C5.1382 3.68149 5.04414 3.42975 5.02672 3.22206C5.00535 2.96916 4.90121 2.80782 4.71119 2.73341C4.48345 2.64417 4.44344 2.55284 4.50809 2.2698C4.55247 2.0759 4.64013 1.89984 4.70302 1.87863C4.76591 1.85742 4.77966 1.71243 4.73365 1.55643C4.65265 1.28162 4.66763 1.27513 5.21035 1.34896C5.68323 1.4134 5.77062 1.39439 5.77062 1.22692C5.77062 1.11785 5.69412 1.0519 5.60047 1.0803C5.42297 1.13431 4.68165 0.861013 4.68165 0.741749C4.68165 0.704081 4.82635 0.696779 5.00317 0.725523C5.33694 0.779881 5.6345 0.522926 5.6345 0.180319C5.6345 -0.0316663 5.0455 -0.0439518 4.54661 0.157602ZM5.80384 0.429625C5.85407 1.06975 6.43109 1.56013 6.63377 1.13489C6.68727 1.02246 6.73178 1.02536 6.83278 1.14799C6.94249 1.28139 6.97353 1.28139 7.03166 1.14799C7.08433 1.02733 7.14872 1.04333 7.3039 1.21533C7.49488 1.42708 7.52768 1.42928 7.84566 1.25195C8.10647 1.10638 8.22109 1.09456 8.34537 1.20037C8.55976 1.38292 9.424 1.37979 9.50676 1.19609C9.55168 1.09629 9.68576 1.1408 9.93717 1.33934C10.37 1.6809 10.4802 1.69574 10.5716 1.42464C10.6093 1.31303 10.6815 1.13674 10.732 1.03278C10.8454 0.799353 10.2399 0.583542 9.24173 0.501368C8.86739 0.470538 8.50286 0.398447 8.4318 0.341075C8.36075 0.283588 8.17385 0.236647 8.01663 0.236647C7.85941 0.236647 7.65727 0.17406 7.56743 0.0975646C7.44043 -0.0105721 7.40218 0.0215332 7.39551 0.242443L7.3868 0.526403L7.26374 0.265623C7.13429 -0.00836991 6.55809 -0.108625 6.59756 0.149721C6.68495 0.722857 6.3294 0.895088 6.17899 0.35255C6.04668 -0.124504 5.76491 -0.0666686 5.80384 0.429625ZM10.3988 0.464395C10.3988 0.525823 10.5213 0.63199 10.671 0.700256C10.9017 0.805379 10.9433 0.788342 10.9433 0.588411C10.9433 0.429857 10.8541 0.35255 10.671 0.35255C10.5213 0.35255 10.3988 0.402851 10.3988 0.464395ZM11.1819 0.565462C11.1451 0.685189 11.1713 0.868894 11.24 0.973554C11.3324 1.11403 11.3098 1.16386 11.1542 1.16386C10.9076 1.16386 10.8953 1.2188 11.0776 1.50879C11.2077 1.71579 11.6102 1.71904 11.9642 1.51586C12.2139 1.37249 12.849 1.39289 12.849 1.54426C12.849 1.7326 14.4943 2.01146 14.6787 1.85441C14.8765 1.686 15.3807 1.72159 15.5714 1.91723C15.798 2.14973 15.9788 2.13698 15.9841 1.88825C15.9882 1.69504 15.997 1.69504 16.1692 1.88825C16.2762 2.00821 16.5308 2.09108 16.7925 2.09108H17.2351L16.9137 1.85047C16.7369 1.71811 16.6658 1.64138 16.7557 1.67986C16.934 1.75636 17.2612 1.33528 17.1465 1.17708C17.0318 1.01922 16.1544 0.938783 15.7155 1.04599C15.2146 1.16827 14.7502 1.07682 14.8416 0.873878C14.9233 0.692607 13.9702 0.671744 13.6997 0.848958C13.5886 0.921745 13.4652 0.915023 13.3443 0.829603C13.2425 0.757627 12.8115 0.677771 12.3865 0.652157C11.9616 0.626658 11.5317 0.547613 11.4314 0.476681C11.291 0.377468 11.2333 0.398099 11.1819 0.565462ZM7.04268 0.763191C6.99831 0.861592 6.93283 0.917225 6.89717 0.886859C6.8615 0.856492 6.87266 0.77594 6.92208 0.708022C7.05629 0.523042 7.1347 0.558971 7.04268 0.763191ZM8.22081 0.816158C8.22081 0.879905 8.19522 0.932061 8.16392 0.932061C8.13261 0.932061 8.00942 0.963934 7.89004 1.00288C7.73132 1.0548 7.69579 1.02374 7.75746 0.886975C7.84879 0.684262 8.22081 0.627354 8.22081 0.816158ZM12.4406 0.816158C12.4406 0.879905 12.4136 0.932061 12.3806 0.932061C12.3475 0.932061 12.2827 0.879905 12.2364 0.816158C12.1901 0.752412 12.2172 0.700256 12.2964 0.700256C12.3757 0.700256 12.4406 0.752412 12.4406 0.816158ZM18.5661 1.36391C18.4538 1.40007 18.3162 1.49535 18.2601 1.57578C18.1411 1.74662 17.6177 1.66155 17.6037 1.46904C17.5948 1.34885 17.3727 1.70501 17.3505 1.87469C17.3349 1.99535 17.9077 2.11148 18.6601 2.14023C19.0486 2.15506 19.4468 2.22263 19.5449 2.29043C19.8538 2.50416 20.8328 2.44597 21.2131 2.19122C21.7383 1.83946 21.6633 1.63628 21.0163 1.65819C20.7168 1.66839 20.4718 1.72935 20.4718 1.79379C20.4718 1.85823 20.3739 1.79194 20.2544 1.64648C20.0836 1.4389 19.9551 1.39752 19.6548 1.45362C19.4398 1.49384 19.2336 1.47147 19.1835 1.40251C19.088 1.27084 18.8928 1.25856 18.5661 1.36391ZM22.0021 1.85742C21.7525 2.19771 21.7809 2.59653 22.0483 2.50914C22.1668 2.47043 22.3067 2.43879 22.3592 2.43879C22.5095 2.43879 22.4616 1.70953 22.3083 1.66584C22.2329 1.6444 22.095 1.73063 22.0021 1.85742ZM22.8539 1.85928C22.8076 1.92302 22.8653 1.97518 22.982 1.97518C23.0987 1.97518 23.1942 2.02734 23.1942 2.09108C23.1942 2.15483 23.2926 2.20698 23.413 2.20698C23.5566 2.20698 23.6033 2.14393 23.5491 2.02363C23.5036 1.92279 23.4665 1.81848 23.4665 1.79182C23.4665 1.69029 22.9341 1.74882 22.8539 1.85928ZM25.7197 1.96533C25.6759 2.02571 25.698 2.10557 25.769 2.14289C25.8399 2.18021 25.9337 2.16132 25.9775 2.10093C26.0213 2.04055 25.9991 1.96069 25.9282 1.92337C25.8573 1.88605 25.7635 1.90494 25.7197 1.96533ZM23.8748 2.1269C23.8748 2.21035 23.9655 2.37979 24.0764 2.50358C24.2437 2.69018 24.2995 2.70073 24.4042 2.56501C24.4846 2.46081 24.4738 2.32428 24.3741 2.18832C24.1938 1.9425 23.8748 1.9032 23.8748 2.1269ZM25.0999 2.32289C25.0999 2.38663 25.1648 2.43879 25.2441 2.43879C25.3233 2.43879 25.3504 2.38663 25.3041 2.32289C25.2578 2.25914 25.193 2.20698 25.16 2.20698C25.1269 2.20698 25.0999 2.25914 25.0999 2.32289ZM6.38317 38.1367C6.42945 38.2004 6.40236 38.2526 6.32314 38.2526C6.24392 38.2526 6.17899 38.2004 6.17899 38.1367C6.17899 38.0729 6.20594 38.0208 6.23902 38.0208C6.27209 38.0208 6.33689 38.0729 6.38317 38.1367ZM4.95389 42.5478C4.95389 42.6078 4.89264 42.6569 4.81777 42.6569C4.7429 42.6569 4.68165 42.5755 4.68165 42.4762C4.68165 42.3768 4.7429 42.3277 4.81777 42.3671C4.89264 42.4065 4.95389 42.4878 4.95389 42.5478ZM2.24833 69.4612C2.11385 69.5748 2.09833 69.5615 2.17211 69.3963C2.22329 69.282 2.29938 69.2177 2.34131 69.2534C2.38323 69.289 2.34144 69.3825 2.24833 69.4612ZM0.597994 75.856C0.597994 75.8842 0.536739 75.9393 0.461872 75.9787C0.387005 76.0181 0.32575 75.9951 0.32575 75.9276C0.32575 75.8602 0.387005 75.8049 0.461872 75.8049C0.536739 75.8049 0.597994 75.8278 0.597994 75.856ZM0.870237 76.2037C0.870237 76.2319 0.808982 76.287 0.734115 76.3264C0.659248 76.3659 0.597994 76.3428 0.597994 76.2753C0.597994 76.2079 0.659248 76.1526 0.734115 76.1526C0.808982 76.1526 0.870237 76.1755 0.870237 76.2037Z" stroke="#A68D6E" stroke-width="2" mask="url(#path-1-inside-1_315_22741)"/>
</svg>
