<svg width="533" height="18" viewBox="0 0 533 18" fill="none" xmlns="http://www.w3.org/2000/svg">
<path d="M3.40302 15.877C7.37055 11.6526 11.6649 7.03835 17.0974 2.00016" stroke="#A68D6E" stroke-width="3" stroke-miterlimit="1.5" stroke-linecap="round" stroke-linejoin="round"/>
<path d="M23.5833 15.5307C27.828 11.4089 32.5422 6.82547 37.9177 2.00016" stroke="#A68D6E" stroke-width="3" stroke-miterlimit="1.5" stroke-linecap="round" stroke-linejoin="round"/>
<path d="M44.2961 15.7616C48.0227 11.8154 52.3295 7.20108 58.2038 2.00016" stroke="#A68D6E" stroke-width="3" stroke-miterlimit="1.5" stroke-linecap="round" stroke-linejoin="round"/>
<path d="M64.5833 15.5307C68.5166 11.6556 73.0549 7.12453 78.9177 2.00016" stroke="#A68D6E" stroke-width="3" stroke-miterlimit="1.5" stroke-linecap="round" stroke-linejoin="round"/>
<path d="M85.1892 15.6461C89.6323 11.2792 94.1353 6.82434 99.3103 2.00016" stroke="#A68D6E" stroke-width="3" stroke-miterlimit="1.5" stroke-linecap="round" stroke-linejoin="round"/>
<path d="M105.689 15.6461C110.274 11.1866 114.531 6.89765 119.81 2.00016" stroke="#A68D6E" stroke-width="3" stroke-miterlimit="1.5" stroke-linecap="round" stroke-linejoin="round"/>
<path d="M126.296 15.7616C130.6 11.366 135.218 6.81047 140.204 2.00016" stroke="#A68D6E" stroke-width="3" stroke-miterlimit="1.5" stroke-linecap="round" stroke-linejoin="round"/>
<path d="M146.689 15.6461C151.248 11.2096 155.567 6.86451 160.81 2.00016" stroke="#A68D6E" stroke-width="3" stroke-miterlimit="1.5" stroke-linecap="round" stroke-linejoin="round"/>
<path d="M167.083 15.5307C170.817 11.8337 175.618 6.97267 181.418 2.00016" stroke="#A68D6E" stroke-width="3" stroke-miterlimit="1.5" stroke-linecap="round" stroke-linejoin="round"/>
<path d="M187.796 15.7616C191.102 12.1139 195.845 7.17948 201.704 2.00016" stroke="#A68D6E" stroke-width="3" stroke-miterlimit="1.5" stroke-linecap="round" stroke-linejoin="round"/>
<path d="M208.083 15.5307C212.658 11.1382 217.28 6.72487 222.418 2.00016" stroke="#A68D6E" stroke-width="3" stroke-miterlimit="1.5" stroke-linecap="round" stroke-linejoin="round"/>
<path d="M228.583 15.5307C232.936 11.286 238.507 6.28423 242.918 2.00016" stroke="#A68D6E" stroke-width="3" stroke-miterlimit="1.5" stroke-linecap="round" stroke-linejoin="round"/>
<path d="M249.083 15.5307C253.455 11.2997 258.278 6.70586 263.418 2.00016" stroke="#A68D6E" stroke-width="3" stroke-miterlimit="1.5" stroke-linecap="round" stroke-linejoin="round"/>
<path d="M269.796 15.7616C273.515 11.7857 278.143 7.14734 283.704 2.00016" stroke="#A68D6E" stroke-width="3" stroke-miterlimit="1.5" stroke-linecap="round" stroke-linejoin="round"/>
<path d="M289.976 15.4152C294.525 11.1518 299.133 6.78951 304.524 2.00016" stroke="#A68D6E" stroke-width="3" stroke-miterlimit="1.5" stroke-linecap="round" stroke-linejoin="round"/>
<path d="M310.583 15.5307C314.415 11.6754 318.82 7.17314 324.918 2.00016" stroke="#A68D6E" stroke-width="3" stroke-miterlimit="1.5" stroke-linecap="round" stroke-linejoin="round"/>
<path d="M331.189 15.6461C335.653 11.2795 340 6.84024 345.31 2.00016" stroke="#A68D6E" stroke-width="3" stroke-miterlimit="1.5" stroke-linecap="round" stroke-linejoin="round"/>
<path d="M351.796 15.7616C356.424 11.2234 360.423 6.89223 365.704 2.00016" stroke="#A68D6E" stroke-width="3" stroke-miterlimit="1.5" stroke-linecap="round" stroke-linejoin="round"/>
<path d="M372.083 15.5307C376.629 11.1938 380.694 7.00086 386.418 2.00016" stroke="#A68D6E" stroke-width="3" stroke-miterlimit="1.5" stroke-linecap="round" stroke-linejoin="round"/>
<path d="M392.583 15.5307C397.076 11.1918 402.621 6.21208 406.918 2.00016" stroke="#A68D6E" stroke-width="3" stroke-miterlimit="1.5" stroke-linecap="round" stroke-linejoin="round"/>
<path d="M413.083 15.5307C417.717 11.1272 422.409 6.64071 427.418 2.00016" stroke="#A68D6E" stroke-width="3" stroke-miterlimit="1.5" stroke-linecap="round" stroke-linejoin="round"/>
<path d="M433.796 15.7616C438.05 11.4351 442.443 6.94464 447.704 2.00016" stroke="#A68D6E" stroke-width="3" stroke-miterlimit="1.5" stroke-linecap="round" stroke-linejoin="round"/>
<path d="M454.083 15.5307C458.205 11.5355 462.889 6.8149 468.418 2.00016" stroke="#A68D6E" stroke-width="3" stroke-miterlimit="1.5" stroke-linecap="round" stroke-linejoin="round"/>
<path d="M474.583 15.5307C478.901 11.346 483.786 6.66026 488.918 2.00016" stroke="#A68D6E" stroke-width="3" stroke-miterlimit="1.5" stroke-linecap="round" stroke-linejoin="round"/>
<path d="M495.189 15.6461C499.205 11.4887 504.073 6.8649 509.31 2.00016" stroke="#A68D6E" stroke-width="3" stroke-miterlimit="1.5" stroke-linecap="round" stroke-linejoin="round"/>
<path d="M515.369 15.2998C520.239 10.8972 525.07 6.51228 530.131 2.00016" stroke="#A68D6E" stroke-width="3" stroke-miterlimit="1.5" stroke-linecap="round" stroke-linejoin="round"/>
</svg>
