<svg width="24" height="25" viewBox="0 0 24 25" fill="none" xmlns="http://www.w3.org/2000/svg">
<path fill-rule="evenodd" clip-rule="evenodd" d="M19.5796 16.7974L19.8196 17.9374C20.047 18.923 19.8225 19.9587 19.2073 20.7616C18.592 21.5645 17.6504 22.0507 16.6396 22.0874H7.35961C6.34878 22.0507 5.40717 21.5645 4.79195 20.7616C4.17673 19.9587 3.95217 18.923 4.17961 17.9374L4.41961 16.7974C4.69564 15.2542 6.02223 14.1201 7.58961 14.0874H16.4096C17.977 14.1201 19.3036 15.2542 19.5796 16.7974ZM16.6396 20.5774C17.1474 20.5715 17.6253 20.3363 17.9396 19.9374V19.9474C18.3253 19.4636 18.4756 18.8332 18.3496 18.2274L18.1096 17.0874C17.9764 16.2426 17.2642 15.61 16.4096 15.5774H7.58961C6.73497 15.61 6.02277 16.2426 5.88961 17.0874L5.64961 18.2274C5.52676 18.83 5.67687 19.4561 6.05961 19.9374C6.37394 20.3363 6.85182 20.5715 7.35961 20.5774H16.6396Z" fill="#A68D6E"/>
<path fill-rule="evenodd" clip-rule="evenodd" d="M12.4996 12.0874H11.4996C9.29045 12.0874 7.49959 10.2966 7.49959 8.08742V5.44742C7.49692 4.55547 7.85007 3.6993 8.48077 3.06859C9.11147 2.43789 9.96765 2.08475 10.8596 2.08742H13.1396C14.0315 2.08475 14.8877 2.43789 15.5184 3.06859C16.1491 3.6993 16.5023 4.55547 16.4996 5.44742V8.08742C16.4996 10.2966 14.7087 12.0874 12.4996 12.0874ZM10.8596 3.58742C9.83234 3.58742 8.99959 4.42017 8.99959 5.44742V8.08742C8.99959 9.46813 10.1189 10.5874 11.4996 10.5874H12.4996C13.8803 10.5874 14.9996 9.46813 14.9996 8.08742V5.44742C14.9996 4.95411 14.8036 4.48102 14.4548 4.1322C14.106 3.78338 13.6329 3.58742 13.1396 3.58742H10.8596Z" fill="#A68D6E"/>
</svg>
