<svg width="233" height="233" viewBox="0 0 233 233" fill="none" xmlns="http://www.w3.org/2000/svg">
<path fill-rule="evenodd" clip-rule="evenodd" d="M63.4012 181.896C37.1433 147.087 44.3245 93.7278 85.602 74.6563C116.051 61.1564 156.164 76.1426 160.643 112.114C163.041 133.374 146.508 159.544 122.814 153.217C119.694 152.33 107.616 145.58 111.706 140.612C112.663 139.627 114.302 139.947 115.511 140.119C137.623 143.462 147.384 118.494 130.503 103.368C111.681 87.6799 86.2025 101.225 79.358 122.501C70.3755 153.927 97.0635 180.681 127.346 180.537C168.303 179.018 191.457 137.221 180.3 99.3856C165.252 53.7495 113.511 37.7984 72.9802 59.6331C15.5795 93.0668 17.9489 172.494 68.1197 210.173C121.573 249.498 195.612 224.987 222.32 165.625C235.782 134.893 235.088 100.129 221.111 69.7047C191.543 6.8159 116.339 -16.6365 55.222 13.0198C126.056 -21.9494 214.465 16.095 230.881 96.3555C243.592 162.344 197.762 227.865 129.89 230.562C69.913 232.237 19.093 179.716 30.0919 118.252C40.0442 65.7508 95.8747 31.459 145.149 55.8065C186.382 76.5039 200.594 133.899 165.341 167.263C137.497 193.216 89.8539 186.671 76.5383 148.66C68.4564 122.99 82.9811 94.0686 110.777 91.4737C126.766 90.3857 135.497 98.08 145.729 108.685C150.788 113.666 147.364 101.131 146.812 99.7921C133.708 70.0003 93.761 71.3224 72.4609 90.2789C56.7313 104.448 49.8097 125.852 52.3982 146.8C58.557 193.154 106.139 219.21 149.34 207.787C118.063 216.812 84.4985 206.909 63.4012 181.896ZM186.349 51.1259C173.817 37.9339 158.286 28.4207 140.974 23.1735C73.3778 3.23975 7.02294 53.8644 0 123.113C7.12437 57.8389 68.6187 8.24883 134.069 25.21C187.826 39.5967 221.703 98.3633 199.146 150.992C184.816 184.479 143.307 209.655 108.022 193.171C105.121 191.758 103.514 189.718 107.697 190.001C134.998 193.721 160.822 185.513 177.493 161.934C207.321 119.081 181.74 60.5528 133.29 47.1022C78.7495 32.2145 27.6901 76.0728 25.6575 131.567C23.9332 195.975 83.6789 242.268 144.869 231.42C188.901 223.221 221.667 189.644 231.043 146.59C221.776 184.635 194.188 215.453 157.077 227.187C128.697 235.859 98.0899 232.291 72.7814 216.52C21.1459 183.744 10.0536 108.39 57.5549 66.6048C95.4406 33.8609 156.217 41.083 179.842 87.4213C200.164 127.827 178.016 180.73 131.541 185.973C92.0975 190.136 62.2165 155.644 70.5418 117.221C71.2113 114.101 76.9562 99.4636 69.491 108.291C59.4414 120.37 57.7455 138.374 61.2793 153.217C73.0573 199.974 127.776 216.627 167.784 194.287C220.336 164.57 225.047 93.5923 186.349 51.1259Z" fill="url(#paint0_linear_327_45579)"/>
<defs>
<linearGradient id="paint0_linear_327_45579" x1="47.6386" y1="256.979" x2="169.258" y2="15.3652" gradientUnits="userSpaceOnUse">
<stop stop-color="#FFE793"/>
<stop offset="1" stop-color="#D2484F"/>
</linearGradient>
</defs>
</svg>
