<svg width="26" height="80" viewBox="0 0 26 80" fill="none" xmlns="http://www.w3.org/2000/svg">
<mask id="path-1-inside-1_315_22743" fill="white">
<path fill-rule="evenodd" clip-rule="evenodd" d="M21.4534 79.8424C21.64 79.7671 21.891 79.6272 22.0112 79.5315C22.1314 79.4359 22.3904 79.2602 22.5869 79.1411C22.8613 78.9748 22.9149 78.8782 22.8186 78.7249C22.7495 78.6151 22.6039 78.3046 22.4947 78.0349C22.3209 77.6053 22.3209 77.5526 22.495 77.6095C22.7298 77.6863 22.633 77.5103 22.2308 77.1297C22.081 76.9881 21.9497 76.7534 21.9389 76.6081C21.9068 76.1731 21.7169 75.4439 21.519 74.9955C21.4166 74.7637 21.3676 74.5445 21.4101 74.5083C21.5499 74.3893 21.3243 73.8761 20.9782 73.526C20.6995 73.244 20.6749 73.1696 20.8421 73.115C21.0884 73.0345 21.1158 72.6933 20.876 72.6933C20.7726 72.6933 20.7098 72.5453 20.7159 72.3166C20.7215 72.1095 20.6098 71.7712 20.4677 71.5648C20.3256 71.3585 20.2273 71.0716 20.2493 70.9273C20.2712 70.7831 20.2389 70.5964 20.1775 70.5124C20.1161 70.4285 20.1022 70.329 20.1465 70.2912C20.1907 70.2536 20.1587 70.1527 20.0754 70.0672C19.9639 69.9528 19.9642 69.9117 20.0766 69.9117C20.269 69.9117 20.2795 69.2497 20.0879 69.1954C19.9943 69.1688 20.0085 68.9992 20.1299 68.6932C20.2306 68.439 20.2991 68.0485 20.2818 67.8254C20.2645 67.6023 20.2456 67.349 20.2399 67.2624C20.2325 67.1513 20.119 67.1261 19.855 67.1768L19.4807 67.2487L19.8891 66.9467C20.1404 66.7607 20.2348 66.6236 20.1346 66.59C19.9784 66.5375 20.003 65.4619 20.1696 65.0559C20.2061 64.967 20.1281 64.7928 19.9962 64.6688C19.7671 64.4533 19.7678 64.4363 20.0123 64.2842C20.3739 64.059 20.3498 63.3025 19.9686 62.9113C19.8192 62.7581 19.8188 62.6937 19.9661 62.5426C20.1789 62.3244 20.2595 60.0895 20.0584 59.9837C19.9769 59.9408 19.9797 59.888 20.0659 59.8425C20.1896 59.7775 20.2776 59.1788 20.2426 58.6402C20.2354 58.5286 20.1375 58.4373 20.0252 58.4373C19.9129 58.4373 19.821 58.3591 19.821 58.2635C19.821 58.1679 19.9129 58.0896 20.0252 58.0896C20.2808 58.0896 20.2969 57.6408 20.0441 57.5582C19.7625 57.4662 19.7359 55.8875 20.0159 55.8875C20.1421 55.8875 20.1907 55.8207 20.1425 55.7136C20.0994 55.618 20.13 55.5398 20.2106 55.5398C20.3791 55.5398 20.2539 55.1818 20.0351 55.0384C19.9336 54.9719 19.9411 54.9247 20.0592 54.8839C20.2732 54.81 20.2837 54.4967 20.0722 54.4967C19.9797 54.4967 20.0104 54.4068 20.1466 54.2787C20.3553 54.0824 20.3575 54.0428 20.1689 53.8823C20.0357 53.7688 20.0138 53.6886 20.1085 53.6617C20.2096 53.633 20.1883 53.4784 20.0423 53.1807C19.8559 52.8009 19.8527 52.7083 20.0181 52.4894C20.1232 52.3503 20.2512 52.0409 20.3025 51.8019C20.3862 51.4118 20.3663 51.3673 20.1084 51.3673C19.7939 51.3673 19.7573 51.2849 19.9543 51.0196C20.0466 50.8952 20.0218 50.8274 19.8674 50.7813C19.6716 50.7228 19.6721 50.6994 19.8734 50.528C19.9955 50.424 20.0394 50.3095 19.971 50.2735C19.7883 50.1775 19.9571 49.7447 20.1772 49.7447C20.4149 49.7447 20.4133 49.7218 20.1412 49.236C19.9328 48.8639 19.9328 48.8216 20.1409 48.6445C20.3173 48.4942 20.3332 48.4031 20.2155 48.2159C20.1017 48.0348 20.105 47.9986 20.2294 48.0641C20.3553 48.1304 20.3567 48.0927 20.2354 47.8999C20.1489 47.7623 20.1218 47.5343 20.1752 47.3933C20.2286 47.2523 20.2872 46.9822 20.3053 46.793C20.3236 46.6038 20.4058 46.43 20.4881 46.4067C20.7027 46.3457 20.6727 46.1449 20.4125 45.9001C20.2027 45.7027 20.203 45.6881 20.415 45.6881C20.5901 45.6881 20.6232 45.621 20.5576 45.3983C20.5049 45.2199 20.5301 45.1086 20.623 45.1086C20.7059 45.1086 20.7739 44.9521 20.7739 44.7609C20.7739 44.5696 20.722 44.4132 20.6587 44.4132C20.5953 44.4132 20.6545 44.1393 20.7902 43.8047C21.0446 43.1771 21.0118 42.4685 20.7202 42.2958C20.6175 42.2349 20.6474 42.156 20.8142 42.0473C20.9884 41.9337 21.0336 41.8031 20.9715 41.5925C20.9236 41.43 20.9303 41.2338 20.9864 41.1564C21.0424 41.0793 21.1007 40.7006 21.1158 40.3151C21.1316 39.912 21.2093 39.5956 21.2989 39.5701C21.3845 39.5459 21.4545 39.403 21.4545 39.2528C21.4545 39.1024 21.5115 38.9494 21.5811 38.9128C21.7194 38.84 21.6981 38.3965 21.5464 38.1873C21.4939 38.1151 21.5277 37.9127 21.6214 37.7377C21.7586 37.4812 21.7578 37.4099 21.6174 37.37C21.4856 37.3327 21.4809 37.2818 21.5979 37.1618C21.6832 37.0744 21.7771 36.7534 21.8068 36.4486C21.8917 35.5777 21.9621 35.2231 22.117 34.8842C22.2296 34.6381 22.217 34.5319 22.0599 34.3982C21.8901 34.2535 21.8882 34.2126 22.0481 34.1335C22.3537 33.9822 22.397 33.1748 22.1321 32.5681C21.9039 32.0457 21.9044 32.0156 22.142 31.8325C22.4689 31.5806 22.7268 30.9685 22.506 30.9685C22.4185 30.9685 22.4829 30.8873 22.6492 30.7881C22.9939 30.5826 23.053 30.2731 22.7476 30.2731C22.4878 30.2731 22.4897 30.0738 22.7539 29.6425C22.8729 29.4481 22.9692 28.9745 22.9779 28.5414C22.9888 27.9908 23.0531 27.7432 23.2107 27.6435C23.407 27.5192 23.4021 27.4893 23.1597 27.3364C22.9333 27.1936 22.9156 27.1243 23.047 26.8947C23.3048 26.4441 23.384 25.9847 23.2039 25.9847C23.1152 25.9847 23.0829 25.9504 23.1322 25.9085C23.1815 25.8665 23.148 25.7565 23.0579 25.6641C22.9273 25.5302 22.9413 25.4665 23.1271 25.351C23.2552 25.2711 23.3602 25.1233 23.3602 25.0226C23.3602 24.9218 23.4111 24.8126 23.4732 24.7799C23.6029 24.7117 23.5727 23.8859 23.4221 23.3878C23.3492 23.1462 23.3773 23.0151 23.5219 22.9242C23.7936 22.7533 23.9334 21.9716 23.7258 21.7841C23.5314 21.6087 23.4781 21.2327 23.6475 21.2327C23.7141 21.2327 23.7685 21.1545 23.7685 21.0589C23.7685 20.9633 23.8619 20.885 23.976 20.885C24.1532 20.885 24.1757 20.6822 24.1304 19.4914C24.1014 18.7248 24.1223 18.0742 24.1772 18.0453C24.3325 17.9635 24.4745 16.9967 24.5153 15.7428C24.5406 14.9644 24.6084 14.5699 24.7278 14.507C24.8434 14.4463 24.8948 14.1842 24.879 13.7383C24.8657 13.3645 24.9347 12.9319 25.0333 12.7719C25.1569 12.5709 25.1741 12.3756 25.0897 12.1344C25.0228 11.9432 24.9178 11.6432 24.8564 11.468C24.792 11.2837 24.7975 11.1492 24.8694 11.1492C24.9377 11.1492 24.9936 10.9992 24.9936 10.8157C24.9936 10.6323 25.0929 10.4121 25.214 10.3265C25.3903 10.2019 25.4181 10.0366 25.3523 9.501C25.2852 8.95452 25.3073 8.8312 25.4721 8.8312C25.6994 8.8312 25.7475 8.53565 25.5381 8.42554C25.3241 8.31289 25.3791 7.90421 25.6187 7.82587C25.7905 7.76977 25.8174 7.65236 25.7483 7.26026C25.697 6.96912 25.7178 6.7358 25.7987 6.69315C25.8889 6.64563 25.8911 6.52023 25.8052 6.3276C25.6397 5.95718 25.6382 5.78506 25.801 5.87071C26.0553 6.00458 26.07 5.72491 25.8215 5.48093C25.5799 5.2438 25.5745 4.77463 25.8132 4.77463C25.9446 4.77463 25.8101 3.81252 25.6676 3.73151C25.6115 3.69963 25.5441 3.54317 25.5178 3.3838C25.4826 3.17007 25.3986 3.10297 25.1978 3.12788C24.9761 3.15536 24.9631 3.14017 25.1285 3.04583C25.3054 2.94488 25.2975 2.88101 25.0673 2.54838C24.9219 2.33859 24.6928 2.06576 24.5581 1.94209C24.4233 1.81853 24.313 1.67922 24.313 1.63263C24.313 1.58592 24.1252 1.51267 23.8954 1.46967C23.6658 1.42679 23.4448 1.31831 23.4044 1.22871C23.3588 1.1273 23.1308 1.06576 22.8011 1.06576C22.5097 1.06576 22.2712 1.0136 22.2712 0.949852C22.2712 0.794662 21.6306 0.801033 21.5171 0.95739C21.4577 1.0391 21.3465 1.01859 21.1884 0.89666C21.0532 0.792458 20.85 0.744934 20.7204 0.787239C20.5852 0.831398 20.3782 0.774719 20.2147 0.648735C19.9209 0.422379 19.4936 0.370461 19.1147 0.515106C18.9882 0.563324 18.8468 0.550453 18.8004 0.486595C18.6693 0.305901 18.4025 0.348557 18.0844 0.600876C17.8123 0.816681 17.3708 0.814247 17.3708 0.596931C17.3708 0.543968 17.2637 0.496559 17.1326 0.491455C14.4366 0.388077 13.5202 0.382278 13.6761 0.469673C13.7897 0.533417 13.8084 0.600761 13.7244 0.64492C13.6493 0.684441 13.5538 0.64109 13.5122 0.548607C13.4624 0.438034 13.2358 0.379967 12.8513 0.379036C10.9856 0.374748 10.6558 0.357941 10.4317 0.255951C10.2525 0.174118 10.1379 0.191742 10.0128 0.32016C9.91802 0.417282 9.76025 0.470596 9.66211 0.438492C9.56396 0.406387 9.39 0.459938 9.27552 0.557411C9.16104 0.654884 9.06698 0.691734 9.06657 0.639351C9.06603 0.587074 8.87818 0.453323 8.64922 0.342407C8.26264 0.154991 8.20206 0.153954 7.80772 0.32769C7.48334 0.470482 7.32557 0.48439 7.1414 0.386452C7.00882 0.315865 6.81212 0.28701 6.70445 0.322128C6.59678 0.357361 6.46814 0.330475 6.41873 0.262321C6.31936 0.125443 5.10951 0.114082 4.57537 0.245056C4.37854 0.293266 3.94812 0.256172 3.55445 0.157082C2.98587 0.0139389 2.13647 -0.0265045 0.589586 0.0160294C-0.231092 0.0385132 0.66037 0.98497 1.62602 1.11641C1.92222 1.15674 2.33358 1.29223 2.54021 1.41752C2.95089 1.66647 3.21415 1.71017 3.21415 1.52937C3.21415 1.36293 3.53077 1.38646 3.98133 1.58662C4.19572 1.68178 4.46824 1.76001 4.58667 1.76048C4.70523 1.76083 4.84816 1.80022 4.90438 1.8481C4.96046 1.89585 5.16981 1.94673 5.36937 1.96098C5.56906 1.97524 5.99267 2.01986 6.31092 2.06008C6.80137 2.12209 6.88944 2.10273 6.88944 1.93305C6.88944 1.78875 6.93708 1.76499 7.05959 1.84775C7.63307 2.23533 9.20351 2.28979 9.20351 1.92216C9.20351 1.70831 9.34099 1.7184 9.53701 1.94673C9.62467 2.04884 9.8897 2.14527 10.126 2.16115C10.3623 2.17702 10.6542 2.25954 10.7748 2.34473C10.9158 2.44441 11.0266 2.45797 11.0855 2.38275C11.136 2.31842 11.2845 2.23219 11.4155 2.19093C11.5466 2.14979 11.6537 2.03632 11.6537 1.93861C11.6537 1.84103 11.715 1.76117 11.7898 1.76117C11.8647 1.76117 11.9259 1.91764 11.9259 2.10888C11.9259 2.50712 12.0917 2.54189 12.7201 2.27496C12.9552 2.17506 13.2131 2.12788 13.2932 2.16995C13.4878 2.27241 14.0922 2.35447 14.5123 2.33558C14.6994 2.32712 14.9444 2.32376 15.0567 2.32816C15.3312 2.33871 17.3636 2.31519 17.7339 2.2971C18.0556 2.28146 18.3467 2.10888 18.0514 2.10888C17.9517 2.10888 17.9041 2.07967 17.9461 2.04408C17.988 2.00838 18.2577 2.08662 18.5453 2.21793C19.2217 2.52659 19.4659 2.5267 19.3711 2.21817C19.3159 2.03818 19.3393 2.00896 19.4664 2.09867C19.559 2.16416 19.9982 2.25352 20.4425 2.29733C20.8868 2.34103 21.3821 2.44951 21.543 2.53841C21.7797 2.66891 21.8476 2.671 21.898 2.5493C21.946 2.43282 22.0594 2.44719 22.3974 2.6127C22.6378 2.73058 22.8707 2.79606 22.9151 2.75839C22.9593 2.72073 23.081 2.79385 23.1855 2.92088C23.2901 3.04803 23.4487 3.15362 23.5381 3.15559C23.7759 3.16092 24.1196 3.61607 24.2221 4.06124C24.297 4.38635 24.2676 4.45879 24.04 4.50944C23.7012 4.58489 23.7013 4.66557 24.0408 5.18028C24.1905 5.40722 24.3087 5.65665 24.3035 5.7343C24.2982 5.81207 24.2413 5.77139 24.1769 5.64389L24.06 5.41209L24.0296 5.64389C24.013 5.77139 23.9918 5.92786 23.9824 5.9916C23.9731 6.05534 23.9063 6.18574 23.834 6.28136C23.7617 6.37698 23.6907 6.71599 23.6763 7.03472C23.6617 7.35345 23.6094 7.80362 23.56 8.03519C23.5045 8.2955 23.5272 8.48605 23.6194 8.53461C23.8218 8.64112 23.8083 8.8312 23.5984 8.83131C23.4745 8.83143 23.4186 9.18412 23.3928 10.1273C23.3654 11.1367 23.3079 11.4698 23.1335 11.6339C22.974 11.784 22.96 11.8447 23.0847 11.8447C23.2627 11.8447 23.2571 11.9067 22.9721 13.0864C22.8964 13.3997 22.9029 13.5886 22.9905 13.6134C23.0784 13.6385 23.0717 13.7401 22.9718 13.899C22.8865 14.0349 22.8539 14.2285 22.8994 14.3296C22.945 14.4307 22.917 14.5803 22.8373 14.6621C22.7576 14.744 22.6913 14.9127 22.6901 15.0373C22.6866 15.3734 22.5229 16.0584 22.4143 16.191C22.2617 16.3774 22.2557 17.0384 22.4058 17.1174C22.4815 17.1573 22.5434 17.3953 22.5434 17.6466C22.5434 17.8979 22.6084 18.1034 22.6876 18.1034C22.7668 18.1034 22.7932 18.1563 22.7463 18.2211C22.6992 18.2859 22.6038 18.309 22.5341 18.2722C22.2598 18.1279 22.4261 18.565 22.7099 18.7342C23.0182 18.9182 22.9198 18.9693 22.3556 18.9182C22.1475 18.8994 22.1156 18.9487 22.1845 19.1825C22.2437 19.3835 22.206 19.4907 22.0593 19.5387C21.9011 19.5904 21.8566 19.7578 21.8792 20.2172C21.8955 20.5526 21.9751 20.8654 22.0561 20.9123C22.1558 20.9699 22.1483 20.9979 22.033 20.9992C21.9393 21.0001 21.8628 21.1313 21.8628 21.2907C21.8628 21.4501 21.9241 21.5804 21.999 21.5804C22.0738 21.5804 22.1351 21.6642 22.1351 21.7667C22.1351 21.8747 22.0584 21.9279 21.9528 21.8934C21.8145 21.8482 21.7632 22.0048 21.7405 22.5407C21.724 22.9294 21.67 23.3026 21.6204 23.3701C21.4576 23.5916 21.432 23.8237 21.4083 25.2893C21.3928 26.2519 21.3238 26.8298 21.2029 27.0113C21.0762 27.2015 21.0642 27.3214 21.1633 27.4058C21.2608 27.4888 21.2619 27.5966 21.1664 27.7483C21.0899 27.87 21.0446 28.1098 21.0657 28.2811C21.0868 28.4525 21.0543 28.6613 20.9934 28.7452C20.9326 28.8291 20.919 28.9285 20.9632 28.9663C21.0075 29.004 20.9815 29.0987 20.9054 29.1768C20.8083 29.2764 20.824 29.3374 20.9576 29.3811C21.1124 29.4317 21.1196 29.5217 20.9959 29.8583C20.912 30.0864 20.7971 30.2731 20.7405 30.2731C20.561 30.2731 20.6296 30.5144 20.8663 30.716C21.0801 30.8982 21.0801 30.913 20.8663 30.948C20.7405 30.9686 20.6377 31.0844 20.6377 31.2052C20.6377 31.3529 20.7047 31.403 20.8419 31.3582C20.9542 31.3214 21.0461 31.3238 21.0461 31.3634C21.0461 31.4657 20.7359 31.9168 20.5408 32.098C20.4234 32.2071 20.4144 32.3378 20.5097 32.5512C20.5926 32.7367 20.5953 32.9011 20.517 32.982C20.355 33.1495 20.2027 34.2964 20.3342 34.3597C20.3888 34.386 20.3501 34.3895 20.2483 34.3674C20.1107 34.3375 20.0865 34.4067 20.1541 34.6361C20.2133 34.8372 20.183 34.9793 20.0671 35.0431C19.9447 35.1104 19.9348 35.1682 20.0351 35.2279C20.1387 35.2896 20.1329 35.5974 20.0151 36.2864C19.8589 37.2 19.8511 37.5053 19.974 37.9227C20.0022 38.0183 19.9509 38.0841 19.8599 38.0689C19.7644 38.0529 19.7275 38.1141 19.7724 38.2138C19.8152 38.3086 19.7824 38.3863 19.6995 38.3863C19.6065 38.3863 19.5488 38.6453 19.5488 39.0623C19.5488 39.4343 19.5029 39.7776 19.4467 39.8254C19.3906 39.8732 19.331 40.2601 19.3142 40.685C19.2976 41.11 19.258 41.9661 19.2263 42.5877C19.1946 43.2093 19.2221 43.7178 19.2873 43.7178C19.4111 43.7178 19.1927 44.3059 19.0297 44.4109C18.6426 44.6604 18.5725 45.2967 18.8935 45.6479C18.9701 45.7317 18.9501 45.8073 18.8398 45.8507C18.7009 45.9054 18.6996 45.9341 18.8341 45.9875C19.0634 46.0786 19.0491 46.3811 18.8049 46.6108C18.6324 46.7732 18.6313 46.8409 18.7968 47.1125C18.9021 47.2854 18.9305 47.4266 18.8601 47.4266C18.6916 47.4266 18.6937 48.7835 18.8622 48.8723C19.0097 48.9499 18.8925 49.2979 18.6777 49.4197C18.5906 49.4692 18.6286 49.5308 18.7757 49.5789C19.0001 49.6522 19.001 49.6716 18.7899 49.8702C18.5232 50.121 18.6256 50.6719 18.9388 50.6719C19.0497 50.6719 19.1404 50.7224 19.1404 50.7842C19.1404 50.8459 19.0564 50.8689 18.9538 50.8354C18.8511 50.8019 18.7305 50.8557 18.6858 50.955C18.635 51.0679 18.6794 51.1355 18.8043 51.1355C19.0518 51.1355 19.0521 51.246 18.8051 51.5236C18.6867 51.6565 18.6534 51.827 18.7171 51.9736C18.7734 52.1033 18.7742 52.4503 18.719 52.7446C18.6637 53.0389 18.6506 53.397 18.69 53.5405C18.7293 53.684 18.7 53.8013 18.625 53.8013C18.5377 53.8013 18.5296 53.9568 18.6029 54.233C18.6828 54.5349 18.6683 54.6912 18.5544 54.7527C18.4312 54.8195 18.4337 54.8412 18.5645 54.8426C18.6783 54.8438 18.7094 54.9386 18.6558 55.1207C18.611 55.2725 18.6373 55.5908 18.7141 55.8278C18.8099 56.1231 18.8095 56.4628 18.713 56.9076C18.5886 57.4801 18.6005 57.5741 18.8143 57.707C18.9531 57.7935 18.9843 57.8578 18.8875 57.8578C18.7716 57.8578 18.7282 58.0378 18.7492 58.4299C18.7661 58.7445 18.7143 59.0705 18.634 59.1543C18.476 59.3194 18.5142 60.1996 18.6979 60.6222C18.7612 60.7678 18.7538 61.1824 18.6813 61.5556C18.5127 62.4238 18.6129 62.6605 19.1047 62.5554L19.4749 62.4762L19.0872 62.7822C18.5108 63.2369 18.4251 63.7418 18.8132 64.3937C19.0651 64.8172 19.0898 64.9279 18.9316 64.9279C18.6988 64.9279 18.6647 65.2877 18.88 65.4711C18.9866 65.5619 18.9866 65.6189 18.88 65.675C18.6641 65.7887 18.6992 66.1583 18.9459 66.3684C19.1404 66.5339 19.1404 66.5505 18.9459 66.5505C18.712 66.5505 18.6481 66.8551 18.8688 66.9177C18.9444 66.9391 19.0047 67.345 19.0036 67.8257C19.0025 68.3036 19.0056 68.7729 19.0105 68.8685C19.0751 70.1223 19.1326 70.5144 19.3195 70.9759C19.4403 71.2743 19.5625 71.7486 19.5908 72.0298C19.6193 72.311 19.6775 72.5894 19.7204 72.6485C19.7633 72.7075 19.7983 73.0073 19.7983 73.3147C19.7983 73.9905 20.0462 74.5471 20.3479 74.5495C20.4796 74.5505 20.5125 74.5859 20.4291 74.6364C20.1574 74.8009 20.2785 75.4592 20.6176 75.6615C20.8569 75.8041 20.8935 75.8756 20.7624 75.9446C20.6198 76.0197 20.62 76.0706 20.7643 76.2186C20.8618 76.3185 20.9559 76.5702 20.9733 76.7779C20.9947 77.0308 21.0988 77.1922 21.2888 77.2666C21.5165 77.3558 21.5566 77.4472 21.4919 77.7302C21.4475 77.9241 21.3599 78.1002 21.297 78.1214C21.2341 78.1426 21.2203 78.2876 21.2664 78.4436C21.3473 78.7184 21.3324 78.7249 20.7897 78.651C20.3168 78.5866 20.2294 78.6056 20.2294 78.7731C20.2294 78.8821 20.3059 78.9481 20.3995 78.9197C20.577 78.8657 21.3184 79.139 21.3184 79.2583C21.3184 79.2959 21.1737 79.3032 20.9968 79.2745C20.6631 79.2201 20.3655 79.4771 20.3655 79.8197C20.3655 80.0317 20.9545 80.044 21.4534 79.8424ZM20.1962 79.5704C20.1459 78.9302 19.5689 78.4399 19.3662 78.8651C19.3127 78.9775 19.2682 78.9746 19.1672 78.852C19.0575 78.7186 19.0265 78.7186 18.9683 78.852C18.9157 78.9727 18.8513 78.9567 18.6961 78.7847C18.5051 78.5729 18.4723 78.5707 18.1543 78.748C17.8935 78.8936 17.7789 78.9054 17.6546 78.7996C17.4402 78.6171 16.576 78.6202 16.4932 78.8039C16.4483 78.9037 16.3142 78.8592 16.0628 78.6607C15.63 78.3191 15.5198 78.3043 15.4284 78.5754C15.3907 78.687 15.3185 78.8633 15.268 78.9672C15.1546 79.2006 15.7601 79.4165 16.7583 79.4986C17.1326 79.5295 17.4971 79.6016 17.5682 79.6589C17.6393 79.7164 17.8261 79.7634 17.9834 79.7634C18.1406 79.7634 18.3427 79.8259 18.4326 79.9024C18.5596 80.0106 18.5978 79.9785 18.6045 79.7576L18.6132 79.4736L18.7363 79.7344C18.8657 80.0084 19.4419 80.1086 19.4024 79.8503C19.315 79.2771 19.6706 79.1049 19.821 79.6475C19.9533 80.1245 20.2351 80.0667 20.1962 79.5704ZM15.6012 79.5356C15.6012 79.4742 15.4787 79.368 15.329 79.2997C15.0983 79.1946 15.0567 79.2117 15.0567 79.4116C15.0567 79.5701 15.1459 79.6475 15.329 79.6475C15.4787 79.6475 15.6012 79.5971 15.6012 79.5356ZM14.8181 79.4345C14.8549 79.3148 14.8287 79.1311 14.76 79.0264C14.6676 78.886 14.6902 78.8361 14.8458 78.8361C15.0924 78.8361 15.1047 78.7812 14.9224 78.4912C14.7923 78.2842 14.3898 78.281 14.0358 78.4841C13.7861 78.6275 13.151 78.6071 13.151 78.4557C13.151 78.2674 11.5057 77.9885 11.3213 78.1456C11.1235 78.314 10.6193 78.2784 10.4286 78.0828C10.202 77.8503 10.0212 77.863 10.0159 78.1117C10.0118 78.305 10.003 78.305 9.83076 78.1117C9.72377 77.9918 9.46922 77.9089 9.20746 77.9089H8.76493L9.08631 78.1495C9.26313 78.2819 9.33419 78.3586 9.24435 78.3201C9.06603 78.2436 8.73879 78.6647 8.85354 78.8229C8.96816 78.9808 9.8456 79.0612 10.2845 78.954C10.7854 78.8317 11.2498 78.9232 11.1584 79.1261C11.0767 79.3074 12.0298 79.3283 12.3003 79.151C12.4114 79.0783 12.5348 79.085 12.6557 79.1704C12.7575 79.2424 13.1885 79.3222 13.6135 79.3478C14.0384 79.3733 14.4683 79.4524 14.5686 79.5233C14.709 79.6225 14.7667 79.6019 14.8181 79.4345ZM18.9573 79.2368C19.0017 79.1384 19.0672 79.0828 19.1028 79.1131C19.1385 79.1435 19.1273 79.2241 19.0779 79.292C18.9437 79.477 18.8653 79.441 18.9573 79.2368ZM17.7792 79.1838C17.7792 79.1201 17.8048 79.0679 17.8361 79.0679C17.8674 79.0679 17.9906 79.0361 18.11 78.9971C18.2687 78.9452 18.3042 78.9763 18.2425 79.113C18.1512 79.3157 17.7792 79.3726 17.7792 79.1838ZM13.5594 79.1838C13.5594 79.1201 13.5864 79.0679 13.6194 79.0679C13.6525 79.0679 13.7173 79.1201 13.7636 79.1838C13.8099 79.2476 13.7828 79.2997 13.7036 79.2997C13.6243 79.2997 13.5594 79.2476 13.5594 79.1838ZM7.43393 78.6361C7.54623 78.5999 7.68385 78.5047 7.73993 78.4242C7.8589 78.2534 8.38229 78.3385 8.39631 78.531C8.40516 78.6512 8.62731 78.295 8.64949 78.1253C8.66515 78.0047 8.09235 77.8885 7.33987 77.8598C6.95138 77.8449 6.55322 77.7774 6.45508 77.7096C6.14622 77.4958 5.16723 77.554 4.7869 77.8088C4.26174 78.1605 4.33675 78.3637 4.98373 78.3418C5.2832 78.3316 5.52822 78.2706 5.52822 78.2062C5.52822 78.1418 5.62609 78.2081 5.74561 78.3535C5.91644 78.5611 6.04494 78.6025 6.34522 78.5464C6.56016 78.5062 6.76639 78.5285 6.81648 78.5975C6.91204 78.7292 7.10723 78.7414 7.43393 78.6361ZM3.99794 78.1426C4.24745 77.8023 4.21914 77.4035 3.95166 77.4909C3.83323 77.5296 3.6933 77.5612 3.64076 77.5612C3.49048 77.5612 3.53839 78.2905 3.69167 78.3342C3.76708 78.3556 3.90497 78.2694 3.99794 78.1426ZM3.14609 78.1407C3.19237 78.077 3.13465 78.0248 3.018 78.0248C2.90134 78.0248 2.80579 77.9727 2.80579 77.9089C2.80579 77.8452 2.70737 77.793 2.58704 77.793C2.44343 77.793 2.39674 77.8561 2.45092 77.9764C2.49638 78.0772 2.53354 78.1815 2.53354 78.2082C2.53354 78.3097 3.06591 78.2512 3.14609 78.1407ZM0.280315 78.0347C0.324148 77.9743 0.30196 77.8944 0.231041 77.8571C0.16012 77.8198 0.0663357 77.8387 0.0225048 77.8991C-0.021328 77.9595 0.000860214 78.0393 0.0717793 78.0766C0.1427 78.1139 0.236485 78.0951 0.280315 78.0347ZM2.12518 77.8731C2.12518 77.7897 2.03452 77.6202 1.92358 77.4964C1.75629 77.3098 1.70048 77.2993 1.5958 77.435C1.51535 77.5392 1.52624 77.6757 1.62588 77.8117C1.80624 78.0575 2.12518 78.0968 2.12518 77.8731ZM0.90008 77.6771C0.90008 77.6134 0.835152 77.5612 0.755928 77.5612C0.676706 77.5612 0.649616 77.6134 0.695898 77.6771C0.742178 77.7409 0.806971 77.793 0.84005 77.793C0.873127 77.793 0.90008 77.7409 0.90008 77.6771ZM19.6168 41.8633C19.5705 41.7996 19.5976 41.7474 19.6769 41.7474C19.7561 41.7474 19.821 41.7996 19.821 41.8633C19.821 41.9271 19.7941 41.9792 19.761 41.9792C19.7279 41.9792 19.6631 41.9271 19.6168 41.8633ZM21.0461 37.4522C21.0461 37.3922 21.1074 37.3431 21.1822 37.3431C21.2571 37.3431 21.3184 37.4245 21.3184 37.5238C21.3184 37.6232 21.2571 37.6723 21.1822 37.6329C21.1074 37.5935 21.0461 37.5122 21.0461 37.4522ZM23.7517 10.5388C23.8862 10.4252 23.9017 10.4385 23.8279 10.6037C23.7767 10.718 23.7006 10.7823 23.6587 10.7466C23.6168 10.711 23.6586 10.6175 23.7517 10.5388ZM25.402 4.144C25.402 4.11584 25.4633 4.06067 25.5381 4.02126C25.613 3.98186 25.6742 4.00492 25.6742 4.07237C25.6742 4.13982 25.613 4.19511 25.5381 4.19511C25.4633 4.19511 25.402 4.17217 25.402 4.144ZM25.1298 3.7963C25.1298 3.76814 25.191 3.71296 25.2659 3.67355C25.3408 3.63415 25.402 3.65721 25.402 3.72466C25.402 3.79212 25.3408 3.84741 25.2659 3.84741C25.191 3.84741 25.1298 3.82446 25.1298 3.7963Z"/>
</mask>
<path fill-rule="evenodd" clip-rule="evenodd" d="M21.4534 79.8424C21.64 79.7671 21.891 79.6272 22.0112 79.5315C22.1314 79.4359 22.3904 79.2602 22.5869 79.1411C22.8613 78.9748 22.9149 78.8782 22.8186 78.7249C22.7495 78.6151 22.6039 78.3046 22.4947 78.0349C22.3209 77.6053 22.3209 77.5526 22.495 77.6095C22.7298 77.6863 22.633 77.5103 22.2308 77.1297C22.081 76.9881 21.9497 76.7534 21.9389 76.6081C21.9068 76.1731 21.7169 75.4439 21.519 74.9955C21.4166 74.7637 21.3676 74.5445 21.4101 74.5083C21.5499 74.3893 21.3243 73.8761 20.9782 73.526C20.6995 73.244 20.6749 73.1696 20.8421 73.115C21.0884 73.0345 21.1158 72.6933 20.876 72.6933C20.7726 72.6933 20.7098 72.5453 20.7159 72.3166C20.7215 72.1095 20.6098 71.7712 20.4677 71.5648C20.3256 71.3585 20.2273 71.0716 20.2493 70.9273C20.2712 70.7831 20.2389 70.5964 20.1775 70.5124C20.1161 70.4285 20.1022 70.329 20.1465 70.2912C20.1907 70.2536 20.1587 70.1527 20.0754 70.0672C19.9639 69.9528 19.9642 69.9117 20.0766 69.9117C20.269 69.9117 20.2795 69.2497 20.0879 69.1954C19.9943 69.1688 20.0085 68.9992 20.1299 68.6932C20.2306 68.439 20.2991 68.0485 20.2818 67.8254C20.2645 67.6023 20.2456 67.349 20.2399 67.2624C20.2325 67.1513 20.119 67.1261 19.855 67.1768L19.4807 67.2487L19.8891 66.9467C20.1404 66.7607 20.2348 66.6236 20.1346 66.59C19.9784 66.5375 20.003 65.4619 20.1696 65.0559C20.2061 64.967 20.1281 64.7928 19.9962 64.6688C19.7671 64.4533 19.7678 64.4363 20.0123 64.2842C20.3739 64.059 20.3498 63.3025 19.9686 62.9113C19.8192 62.7581 19.8188 62.6937 19.9661 62.5426C20.1789 62.3244 20.2595 60.0895 20.0584 59.9837C19.9769 59.9408 19.9797 59.888 20.0659 59.8425C20.1896 59.7775 20.2776 59.1788 20.2426 58.6402C20.2354 58.5286 20.1375 58.4373 20.0252 58.4373C19.9129 58.4373 19.821 58.3591 19.821 58.2635C19.821 58.1679 19.9129 58.0896 20.0252 58.0896C20.2808 58.0896 20.2969 57.6408 20.0441 57.5582C19.7625 57.4662 19.7359 55.8875 20.0159 55.8875C20.1421 55.8875 20.1907 55.8207 20.1425 55.7136C20.0994 55.618 20.13 55.5398 20.2106 55.5398C20.3791 55.5398 20.2539 55.1818 20.0351 55.0384C19.9336 54.9719 19.9411 54.9247 20.0592 54.8839C20.2732 54.81 20.2837 54.4967 20.0722 54.4967C19.9797 54.4967 20.0104 54.4068 20.1466 54.2787C20.3553 54.0824 20.3575 54.0428 20.1689 53.8823C20.0357 53.7688 20.0138 53.6886 20.1085 53.6617C20.2096 53.633 20.1883 53.4784 20.0423 53.1807C19.8559 52.8009 19.8527 52.7083 20.0181 52.4894C20.1232 52.3503 20.2512 52.0409 20.3025 51.8019C20.3862 51.4118 20.3663 51.3673 20.1084 51.3673C19.7939 51.3673 19.7573 51.2849 19.9543 51.0196C20.0466 50.8952 20.0218 50.8274 19.8674 50.7813C19.6716 50.7228 19.6721 50.6994 19.8734 50.528C19.9955 50.424 20.0394 50.3095 19.971 50.2735C19.7883 50.1775 19.9571 49.7447 20.1772 49.7447C20.4149 49.7447 20.4133 49.7218 20.1412 49.236C19.9328 48.8639 19.9328 48.8216 20.1409 48.6445C20.3173 48.4942 20.3332 48.4031 20.2155 48.2159C20.1017 48.0348 20.105 47.9986 20.2294 48.0641C20.3553 48.1304 20.3567 48.0927 20.2354 47.8999C20.1489 47.7623 20.1218 47.5343 20.1752 47.3933C20.2286 47.2523 20.2872 46.9822 20.3053 46.793C20.3236 46.6038 20.4058 46.43 20.4881 46.4067C20.7027 46.3457 20.6727 46.1449 20.4125 45.9001C20.2027 45.7027 20.203 45.6881 20.415 45.6881C20.5901 45.6881 20.6232 45.621 20.5576 45.3983C20.5049 45.2199 20.5301 45.1086 20.623 45.1086C20.7059 45.1086 20.7739 44.9521 20.7739 44.7609C20.7739 44.5696 20.722 44.4132 20.6587 44.4132C20.5953 44.4132 20.6545 44.1393 20.7902 43.8047C21.0446 43.1771 21.0118 42.4685 20.7202 42.2958C20.6175 42.2349 20.6474 42.156 20.8142 42.0473C20.9884 41.9337 21.0336 41.8031 20.9715 41.5925C20.9236 41.43 20.9303 41.2338 20.9864 41.1564C21.0424 41.0793 21.1007 40.7006 21.1158 40.3151C21.1316 39.912 21.2093 39.5956 21.2989 39.5701C21.3845 39.5459 21.4545 39.403 21.4545 39.2528C21.4545 39.1024 21.5115 38.9494 21.5811 38.9128C21.7194 38.84 21.6981 38.3965 21.5464 38.1873C21.4939 38.1151 21.5277 37.9127 21.6214 37.7377C21.7586 37.4812 21.7578 37.4099 21.6174 37.37C21.4856 37.3327 21.4809 37.2818 21.5979 37.1618C21.6832 37.0744 21.7771 36.7534 21.8068 36.4486C21.8917 35.5777 21.9621 35.2231 22.117 34.8842C22.2296 34.6381 22.217 34.5319 22.0599 34.3982C21.8901 34.2535 21.8882 34.2126 22.0481 34.1335C22.3537 33.9822 22.397 33.1748 22.1321 32.5681C21.9039 32.0457 21.9044 32.0156 22.142 31.8325C22.4689 31.5806 22.7268 30.9685 22.506 30.9685C22.4185 30.9685 22.4829 30.8873 22.6492 30.7881C22.9939 30.5826 23.053 30.2731 22.7476 30.2731C22.4878 30.2731 22.4897 30.0738 22.7539 29.6425C22.8729 29.4481 22.9692 28.9745 22.9779 28.5414C22.9888 27.9908 23.0531 27.7432 23.2107 27.6435C23.407 27.5192 23.4021 27.4893 23.1597 27.3364C22.9333 27.1936 22.9156 27.1243 23.047 26.8947C23.3048 26.4441 23.384 25.9847 23.2039 25.9847C23.1152 25.9847 23.0829 25.9504 23.1322 25.9085C23.1815 25.8665 23.148 25.7565 23.0579 25.6641C22.9273 25.5302 22.9413 25.4665 23.1271 25.351C23.2552 25.2711 23.3602 25.1233 23.3602 25.0226C23.3602 24.9218 23.4111 24.8126 23.4732 24.7799C23.6029 24.7117 23.5727 23.8859 23.4221 23.3878C23.3492 23.1462 23.3773 23.0151 23.5219 22.9242C23.7936 22.7533 23.9334 21.9716 23.7258 21.7841C23.5314 21.6087 23.4781 21.2327 23.6475 21.2327C23.7141 21.2327 23.7685 21.1545 23.7685 21.0589C23.7685 20.9633 23.8619 20.885 23.976 20.885C24.1532 20.885 24.1757 20.6822 24.1304 19.4914C24.1014 18.7248 24.1223 18.0742 24.1772 18.0453C24.3325 17.9635 24.4745 16.9967 24.5153 15.7428C24.5406 14.9644 24.6084 14.5699 24.7278 14.507C24.8434 14.4463 24.8948 14.1842 24.879 13.7383C24.8657 13.3645 24.9347 12.9319 25.0333 12.7719C25.1569 12.5709 25.1741 12.3756 25.0897 12.1344C25.0228 11.9432 24.9178 11.6432 24.8564 11.468C24.792 11.2837 24.7975 11.1492 24.8694 11.1492C24.9377 11.1492 24.9936 10.9992 24.9936 10.8157C24.9936 10.6323 25.0929 10.4121 25.214 10.3265C25.3903 10.2019 25.4181 10.0366 25.3523 9.501C25.2852 8.95452 25.3073 8.8312 25.4721 8.8312C25.6994 8.8312 25.7475 8.53565 25.5381 8.42554C25.3241 8.31289 25.3791 7.90421 25.6187 7.82587C25.7905 7.76977 25.8174 7.65236 25.7483 7.26026C25.697 6.96912 25.7178 6.7358 25.7987 6.69315C25.8889 6.64563 25.8911 6.52023 25.8052 6.3276C25.6397 5.95718 25.6382 5.78506 25.801 5.87071C26.0553 6.00458 26.07 5.72491 25.8215 5.48093C25.5799 5.2438 25.5745 4.77463 25.8132 4.77463C25.9446 4.77463 25.8101 3.81252 25.6676 3.73151C25.6115 3.69963 25.5441 3.54317 25.5178 3.3838C25.4826 3.17007 25.3986 3.10297 25.1978 3.12788C24.9761 3.15536 24.9631 3.14017 25.1285 3.04583C25.3054 2.94488 25.2975 2.88101 25.0673 2.54838C24.9219 2.33859 24.6928 2.06576 24.5581 1.94209C24.4233 1.81853 24.313 1.67922 24.313 1.63263C24.313 1.58592 24.1252 1.51267 23.8954 1.46967C23.6658 1.42679 23.4448 1.31831 23.4044 1.22871C23.3588 1.1273 23.1308 1.06576 22.8011 1.06576C22.5097 1.06576 22.2712 1.0136 22.2712 0.949852C22.2712 0.794662 21.6306 0.801033 21.5171 0.95739C21.4577 1.0391 21.3465 1.01859 21.1884 0.89666C21.0532 0.792458 20.85 0.744934 20.7204 0.787239C20.5852 0.831398 20.3782 0.774719 20.2147 0.648735C19.9209 0.422379 19.4936 0.370461 19.1147 0.515106C18.9882 0.563324 18.8468 0.550453 18.8004 0.486595C18.6693 0.305901 18.4025 0.348557 18.0844 0.600876C17.8123 0.816681 17.3708 0.814247 17.3708 0.596931C17.3708 0.543968 17.2637 0.496559 17.1326 0.491455C14.4366 0.388077 13.5202 0.382278 13.6761 0.469673C13.7897 0.533417 13.8084 0.600761 13.7244 0.64492C13.6493 0.684441 13.5538 0.64109 13.5122 0.548607C13.4624 0.438034 13.2358 0.379967 12.8513 0.379036C10.9856 0.374748 10.6558 0.357941 10.4317 0.255951C10.2525 0.174118 10.1379 0.191742 10.0128 0.32016C9.91802 0.417282 9.76025 0.470596 9.66211 0.438492C9.56396 0.406387 9.39 0.459938 9.27552 0.557411C9.16104 0.654884 9.06698 0.691734 9.06657 0.639351C9.06603 0.587074 8.87818 0.453323 8.64922 0.342407C8.26264 0.154991 8.20206 0.153954 7.80772 0.32769C7.48334 0.470482 7.32557 0.48439 7.1414 0.386452C7.00882 0.315865 6.81212 0.28701 6.70445 0.322128C6.59678 0.357361 6.46814 0.330475 6.41873 0.262321C6.31936 0.125443 5.10951 0.114082 4.57537 0.245056C4.37854 0.293266 3.94812 0.256172 3.55445 0.157082C2.98587 0.0139389 2.13647 -0.0265045 0.589586 0.0160294C-0.231092 0.0385132 0.66037 0.98497 1.62602 1.11641C1.92222 1.15674 2.33358 1.29223 2.54021 1.41752C2.95089 1.66647 3.21415 1.71017 3.21415 1.52937C3.21415 1.36293 3.53077 1.38646 3.98133 1.58662C4.19572 1.68178 4.46824 1.76001 4.58667 1.76048C4.70523 1.76083 4.84816 1.80022 4.90438 1.8481C4.96046 1.89585 5.16981 1.94673 5.36937 1.96098C5.56906 1.97524 5.99267 2.01986 6.31092 2.06008C6.80137 2.12209 6.88944 2.10273 6.88944 1.93305C6.88944 1.78875 6.93708 1.76499 7.05959 1.84775C7.63307 2.23533 9.20351 2.28979 9.20351 1.92216C9.20351 1.70831 9.34099 1.7184 9.53701 1.94673C9.62467 2.04884 9.8897 2.14527 10.126 2.16115C10.3623 2.17702 10.6542 2.25954 10.7748 2.34473C10.9158 2.44441 11.0266 2.45797 11.0855 2.38275C11.136 2.31842 11.2845 2.23219 11.4155 2.19093C11.5466 2.14979 11.6537 2.03632 11.6537 1.93861C11.6537 1.84103 11.715 1.76117 11.7898 1.76117C11.8647 1.76117 11.9259 1.91764 11.9259 2.10888C11.9259 2.50712 12.0917 2.54189 12.7201 2.27496C12.9552 2.17506 13.2131 2.12788 13.2932 2.16995C13.4878 2.27241 14.0922 2.35447 14.5123 2.33558C14.6994 2.32712 14.9444 2.32376 15.0567 2.32816C15.3312 2.33871 17.3636 2.31519 17.7339 2.2971C18.0556 2.28146 18.3467 2.10888 18.0514 2.10888C17.9517 2.10888 17.9041 2.07967 17.9461 2.04408C17.988 2.00838 18.2577 2.08662 18.5453 2.21793C19.2217 2.52659 19.4659 2.5267 19.3711 2.21817C19.3159 2.03818 19.3393 2.00896 19.4664 2.09867C19.559 2.16416 19.9982 2.25352 20.4425 2.29733C20.8868 2.34103 21.3821 2.44951 21.543 2.53841C21.7797 2.66891 21.8476 2.671 21.898 2.5493C21.946 2.43282 22.0594 2.44719 22.3974 2.6127C22.6378 2.73058 22.8707 2.79606 22.9151 2.75839C22.9593 2.72073 23.081 2.79385 23.1855 2.92088C23.2901 3.04803 23.4487 3.15362 23.5381 3.15559C23.7759 3.16092 24.1196 3.61607 24.2221 4.06124C24.297 4.38635 24.2676 4.45879 24.04 4.50944C23.7012 4.58489 23.7013 4.66557 24.0408 5.18028C24.1905 5.40722 24.3087 5.65665 24.3035 5.7343C24.2982 5.81207 24.2413 5.77139 24.1769 5.64389L24.06 5.41209L24.0296 5.64389C24.013 5.77139 23.9918 5.92786 23.9824 5.9916C23.9731 6.05534 23.9063 6.18574 23.834 6.28136C23.7617 6.37698 23.6907 6.71599 23.6763 7.03472C23.6617 7.35345 23.6094 7.80362 23.56 8.03519C23.5045 8.2955 23.5272 8.48605 23.6194 8.53461C23.8218 8.64112 23.8083 8.8312 23.5984 8.83131C23.4745 8.83143 23.4186 9.18412 23.3928 10.1273C23.3654 11.1367 23.3079 11.4698 23.1335 11.6339C22.974 11.784 22.96 11.8447 23.0847 11.8447C23.2627 11.8447 23.2571 11.9067 22.9721 13.0864C22.8964 13.3997 22.9029 13.5886 22.9905 13.6134C23.0784 13.6385 23.0717 13.7401 22.9718 13.899C22.8865 14.0349 22.8539 14.2285 22.8994 14.3296C22.945 14.4307 22.917 14.5803 22.8373 14.6621C22.7576 14.744 22.6913 14.9127 22.6901 15.0373C22.6866 15.3734 22.5229 16.0584 22.4143 16.191C22.2617 16.3774 22.2557 17.0384 22.4058 17.1174C22.4815 17.1573 22.5434 17.3953 22.5434 17.6466C22.5434 17.8979 22.6084 18.1034 22.6876 18.1034C22.7668 18.1034 22.7932 18.1563 22.7463 18.2211C22.6992 18.2859 22.6038 18.309 22.5341 18.2722C22.2598 18.1279 22.4261 18.565 22.7099 18.7342C23.0182 18.9182 22.9198 18.9693 22.3556 18.9182C22.1475 18.8994 22.1156 18.9487 22.1845 19.1825C22.2437 19.3835 22.206 19.4907 22.0593 19.5387C21.9011 19.5904 21.8566 19.7578 21.8792 20.2172C21.8955 20.5526 21.9751 20.8654 22.0561 20.9123C22.1558 20.9699 22.1483 20.9979 22.033 20.9992C21.9393 21.0001 21.8628 21.1313 21.8628 21.2907C21.8628 21.4501 21.9241 21.5804 21.999 21.5804C22.0738 21.5804 22.1351 21.6642 22.1351 21.7667C22.1351 21.8747 22.0584 21.9279 21.9528 21.8934C21.8145 21.8482 21.7632 22.0048 21.7405 22.5407C21.724 22.9294 21.67 23.3026 21.6204 23.3701C21.4576 23.5916 21.432 23.8237 21.4083 25.2893C21.3928 26.2519 21.3238 26.8298 21.2029 27.0113C21.0762 27.2015 21.0642 27.3214 21.1633 27.4058C21.2608 27.4888 21.2619 27.5966 21.1664 27.7483C21.0899 27.87 21.0446 28.1098 21.0657 28.2811C21.0868 28.4525 21.0543 28.6613 20.9934 28.7452C20.9326 28.8291 20.919 28.9285 20.9632 28.9663C21.0075 29.004 20.9815 29.0987 20.9054 29.1768C20.8083 29.2764 20.824 29.3374 20.9576 29.3811C21.1124 29.4317 21.1196 29.5217 20.9959 29.8583C20.912 30.0864 20.7971 30.2731 20.7405 30.2731C20.561 30.2731 20.6296 30.5144 20.8663 30.716C21.0801 30.8982 21.0801 30.913 20.8663 30.948C20.7405 30.9686 20.6377 31.0844 20.6377 31.2052C20.6377 31.3529 20.7047 31.403 20.8419 31.3582C20.9542 31.3214 21.0461 31.3238 21.0461 31.3634C21.0461 31.4657 20.7359 31.9168 20.5408 32.098C20.4234 32.2071 20.4144 32.3378 20.5097 32.5512C20.5926 32.7367 20.5953 32.9011 20.517 32.982C20.355 33.1495 20.2027 34.2964 20.3342 34.3597C20.3888 34.386 20.3501 34.3895 20.2483 34.3674C20.1107 34.3375 20.0865 34.4067 20.1541 34.6361C20.2133 34.8372 20.183 34.9793 20.0671 35.0431C19.9447 35.1104 19.9348 35.1682 20.0351 35.2279C20.1387 35.2896 20.1329 35.5974 20.0151 36.2864C19.8589 37.2 19.8511 37.5053 19.974 37.9227C20.0022 38.0183 19.9509 38.0841 19.8599 38.0689C19.7644 38.0529 19.7275 38.1141 19.7724 38.2138C19.8152 38.3086 19.7824 38.3863 19.6995 38.3863C19.6065 38.3863 19.5488 38.6453 19.5488 39.0623C19.5488 39.4343 19.5029 39.7776 19.4467 39.8254C19.3906 39.8732 19.331 40.2601 19.3142 40.685C19.2976 41.11 19.258 41.9661 19.2263 42.5877C19.1946 43.2093 19.2221 43.7178 19.2873 43.7178C19.4111 43.7178 19.1927 44.3059 19.0297 44.4109C18.6426 44.6604 18.5725 45.2967 18.8935 45.6479C18.9701 45.7317 18.9501 45.8073 18.8398 45.8507C18.7009 45.9054 18.6996 45.9341 18.8341 45.9875C19.0634 46.0786 19.0491 46.3811 18.8049 46.6108C18.6324 46.7732 18.6313 46.8409 18.7968 47.1125C18.9021 47.2854 18.9305 47.4266 18.8601 47.4266C18.6916 47.4266 18.6937 48.7835 18.8622 48.8723C19.0097 48.9499 18.8925 49.2979 18.6777 49.4197C18.5906 49.4692 18.6286 49.5308 18.7757 49.5789C19.0001 49.6522 19.001 49.6716 18.7899 49.8702C18.5232 50.121 18.6256 50.6719 18.9388 50.6719C19.0497 50.6719 19.1404 50.7224 19.1404 50.7842C19.1404 50.8459 19.0564 50.8689 18.9538 50.8354C18.8511 50.8019 18.7305 50.8557 18.6858 50.955C18.635 51.0679 18.6794 51.1355 18.8043 51.1355C19.0518 51.1355 19.0521 51.246 18.8051 51.5236C18.6867 51.6565 18.6534 51.827 18.7171 51.9736C18.7734 52.1033 18.7742 52.4503 18.719 52.7446C18.6637 53.0389 18.6506 53.397 18.69 53.5405C18.7293 53.684 18.7 53.8013 18.625 53.8013C18.5377 53.8013 18.5296 53.9568 18.6029 54.233C18.6828 54.5349 18.6683 54.6912 18.5544 54.7527C18.4312 54.8195 18.4337 54.8412 18.5645 54.8426C18.6783 54.8438 18.7094 54.9386 18.6558 55.1207C18.611 55.2725 18.6373 55.5908 18.7141 55.8278C18.8099 56.1231 18.8095 56.4628 18.713 56.9076C18.5886 57.4801 18.6005 57.5741 18.8143 57.707C18.9531 57.7935 18.9843 57.8578 18.8875 57.8578C18.7716 57.8578 18.7282 58.0378 18.7492 58.4299C18.7661 58.7445 18.7143 59.0705 18.634 59.1543C18.476 59.3194 18.5142 60.1996 18.6979 60.6222C18.7612 60.7678 18.7538 61.1824 18.6813 61.5556C18.5127 62.4238 18.6129 62.6605 19.1047 62.5554L19.4749 62.4762L19.0872 62.7822C18.5108 63.2369 18.4251 63.7418 18.8132 64.3937C19.0651 64.8172 19.0898 64.9279 18.9316 64.9279C18.6988 64.9279 18.6647 65.2877 18.88 65.4711C18.9866 65.5619 18.9866 65.6189 18.88 65.675C18.6641 65.7887 18.6992 66.1583 18.9459 66.3684C19.1404 66.5339 19.1404 66.5505 18.9459 66.5505C18.712 66.5505 18.6481 66.8551 18.8688 66.9177C18.9444 66.9391 19.0047 67.345 19.0036 67.8257C19.0025 68.3036 19.0056 68.7729 19.0105 68.8685C19.0751 70.1223 19.1326 70.5144 19.3195 70.9759C19.4403 71.2743 19.5625 71.7486 19.5908 72.0298C19.6193 72.311 19.6775 72.5894 19.7204 72.6485C19.7633 72.7075 19.7983 73.0073 19.7983 73.3147C19.7983 73.9905 20.0462 74.5471 20.3479 74.5495C20.4796 74.5505 20.5125 74.5859 20.4291 74.6364C20.1574 74.8009 20.2785 75.4592 20.6176 75.6615C20.8569 75.8041 20.8935 75.8756 20.7624 75.9446C20.6198 76.0197 20.62 76.0706 20.7643 76.2186C20.8618 76.3185 20.9559 76.5702 20.9733 76.7779C20.9947 77.0308 21.0988 77.1922 21.2888 77.2666C21.5165 77.3558 21.5566 77.4472 21.4919 77.7302C21.4475 77.9241 21.3599 78.1002 21.297 78.1214C21.2341 78.1426 21.2203 78.2876 21.2664 78.4436C21.3473 78.7184 21.3324 78.7249 20.7897 78.651C20.3168 78.5866 20.2294 78.6056 20.2294 78.7731C20.2294 78.8821 20.3059 78.9481 20.3995 78.9197C20.577 78.8657 21.3184 79.139 21.3184 79.2583C21.3184 79.2959 21.1737 79.3032 20.9968 79.2745C20.6631 79.2201 20.3655 79.4771 20.3655 79.8197C20.3655 80.0317 20.9545 80.044 21.4534 79.8424ZM20.1962 79.5704C20.1459 78.9302 19.5689 78.4399 19.3662 78.8651C19.3127 78.9775 19.2682 78.9746 19.1672 78.852C19.0575 78.7186 19.0265 78.7186 18.9683 78.852C18.9157 78.9727 18.8513 78.9567 18.6961 78.7847C18.5051 78.5729 18.4723 78.5707 18.1543 78.748C17.8935 78.8936 17.7789 78.9054 17.6546 78.7996C17.4402 78.6171 16.576 78.6202 16.4932 78.8039C16.4483 78.9037 16.3142 78.8592 16.0628 78.6607C15.63 78.3191 15.5198 78.3043 15.4284 78.5754C15.3907 78.687 15.3185 78.8633 15.268 78.9672C15.1546 79.2006 15.7601 79.4165 16.7583 79.4986C17.1326 79.5295 17.4971 79.6016 17.5682 79.6589C17.6393 79.7164 17.8261 79.7634 17.9834 79.7634C18.1406 79.7634 18.3427 79.8259 18.4326 79.9024C18.5596 80.0106 18.5978 79.9785 18.6045 79.7576L18.6132 79.4736L18.7363 79.7344C18.8657 80.0084 19.4419 80.1086 19.4024 79.8503C19.315 79.2771 19.6706 79.1049 19.821 79.6475C19.9533 80.1245 20.2351 80.0667 20.1962 79.5704ZM15.6012 79.5356C15.6012 79.4742 15.4787 79.368 15.329 79.2997C15.0983 79.1946 15.0567 79.2117 15.0567 79.4116C15.0567 79.5701 15.1459 79.6475 15.329 79.6475C15.4787 79.6475 15.6012 79.5971 15.6012 79.5356ZM14.8181 79.4345C14.8549 79.3148 14.8287 79.1311 14.76 79.0264C14.6676 78.886 14.6902 78.8361 14.8458 78.8361C15.0924 78.8361 15.1047 78.7812 14.9224 78.4912C14.7923 78.2842 14.3898 78.281 14.0358 78.4841C13.7861 78.6275 13.151 78.6071 13.151 78.4557C13.151 78.2674 11.5057 77.9885 11.3213 78.1456C11.1235 78.314 10.6193 78.2784 10.4286 78.0828C10.202 77.8503 10.0212 77.863 10.0159 78.1117C10.0118 78.305 10.003 78.305 9.83076 78.1117C9.72377 77.9918 9.46922 77.9089 9.20746 77.9089H8.76493L9.08631 78.1495C9.26313 78.2819 9.33419 78.3586 9.24435 78.3201C9.06603 78.2436 8.73879 78.6647 8.85354 78.8229C8.96816 78.9808 9.8456 79.0612 10.2845 78.954C10.7854 78.8317 11.2498 78.9232 11.1584 79.1261C11.0767 79.3074 12.0298 79.3283 12.3003 79.151C12.4114 79.0783 12.5348 79.085 12.6557 79.1704C12.7575 79.2424 13.1885 79.3222 13.6135 79.3478C14.0384 79.3733 14.4683 79.4524 14.5686 79.5233C14.709 79.6225 14.7667 79.6019 14.8181 79.4345ZM18.9573 79.2368C19.0017 79.1384 19.0672 79.0828 19.1028 79.1131C19.1385 79.1435 19.1273 79.2241 19.0779 79.292C18.9437 79.477 18.8653 79.441 18.9573 79.2368ZM17.7792 79.1838C17.7792 79.1201 17.8048 79.0679 17.8361 79.0679C17.8674 79.0679 17.9906 79.0361 18.11 78.9971C18.2687 78.9452 18.3042 78.9763 18.2425 79.113C18.1512 79.3157 17.7792 79.3726 17.7792 79.1838ZM13.5594 79.1838C13.5594 79.1201 13.5864 79.0679 13.6194 79.0679C13.6525 79.0679 13.7173 79.1201 13.7636 79.1838C13.8099 79.2476 13.7828 79.2997 13.7036 79.2997C13.6243 79.2997 13.5594 79.2476 13.5594 79.1838ZM7.43393 78.6361C7.54623 78.5999 7.68385 78.5047 7.73993 78.4242C7.8589 78.2534 8.38229 78.3385 8.39631 78.531C8.40516 78.6512 8.62731 78.295 8.64949 78.1253C8.66515 78.0047 8.09235 77.8885 7.33987 77.8598C6.95138 77.8449 6.55322 77.7774 6.45508 77.7096C6.14622 77.4958 5.16723 77.554 4.7869 77.8088C4.26174 78.1605 4.33675 78.3637 4.98373 78.3418C5.2832 78.3316 5.52822 78.2706 5.52822 78.2062C5.52822 78.1418 5.62609 78.2081 5.74561 78.3535C5.91644 78.5611 6.04494 78.6025 6.34522 78.5464C6.56016 78.5062 6.76639 78.5285 6.81648 78.5975C6.91204 78.7292 7.10723 78.7414 7.43393 78.6361ZM3.99794 78.1426C4.24745 77.8023 4.21914 77.4035 3.95166 77.4909C3.83323 77.5296 3.6933 77.5612 3.64076 77.5612C3.49048 77.5612 3.53839 78.2905 3.69167 78.3342C3.76708 78.3556 3.90497 78.2694 3.99794 78.1426ZM3.14609 78.1407C3.19237 78.077 3.13465 78.0248 3.018 78.0248C2.90134 78.0248 2.80579 77.9727 2.80579 77.9089C2.80579 77.8452 2.70737 77.793 2.58704 77.793C2.44343 77.793 2.39674 77.8561 2.45092 77.9764C2.49638 78.0772 2.53354 78.1815 2.53354 78.2082C2.53354 78.3097 3.06591 78.2512 3.14609 78.1407ZM0.280315 78.0347C0.324148 77.9743 0.30196 77.8944 0.231041 77.8571C0.16012 77.8198 0.0663357 77.8387 0.0225048 77.8991C-0.021328 77.9595 0.000860214 78.0393 0.0717793 78.0766C0.1427 78.1139 0.236485 78.0951 0.280315 78.0347ZM2.12518 77.8731C2.12518 77.7897 2.03452 77.6202 1.92358 77.4964C1.75629 77.3098 1.70048 77.2993 1.5958 77.435C1.51535 77.5392 1.52624 77.6757 1.62588 77.8117C1.80624 78.0575 2.12518 78.0968 2.12518 77.8731ZM0.90008 77.6771C0.90008 77.6134 0.835152 77.5612 0.755928 77.5612C0.676706 77.5612 0.649616 77.6134 0.695898 77.6771C0.742178 77.7409 0.806971 77.793 0.84005 77.793C0.873127 77.793 0.90008 77.7409 0.90008 77.6771ZM19.6168 41.8633C19.5705 41.7996 19.5976 41.7474 19.6769 41.7474C19.7561 41.7474 19.821 41.7996 19.821 41.8633C19.821 41.9271 19.7941 41.9792 19.761 41.9792C19.7279 41.9792 19.6631 41.9271 19.6168 41.8633ZM21.0461 37.4522C21.0461 37.3922 21.1074 37.3431 21.1822 37.3431C21.2571 37.3431 21.3184 37.4245 21.3184 37.5238C21.3184 37.6232 21.2571 37.6723 21.1822 37.6329C21.1074 37.5935 21.0461 37.5122 21.0461 37.4522ZM23.7517 10.5388C23.8862 10.4252 23.9017 10.4385 23.8279 10.6037C23.7767 10.718 23.7006 10.7823 23.6587 10.7466C23.6168 10.711 23.6586 10.6175 23.7517 10.5388ZM25.402 4.144C25.402 4.11584 25.4633 4.06067 25.5381 4.02126C25.613 3.98186 25.6742 4.00492 25.6742 4.07237C25.6742 4.13982 25.613 4.19511 25.5381 4.19511C25.4633 4.19511 25.402 4.17217 25.402 4.144ZM25.1298 3.7963C25.1298 3.76814 25.191 3.71296 25.2659 3.67355C25.3408 3.63415 25.402 3.65721 25.402 3.72466C25.402 3.79212 25.3408 3.84741 25.2659 3.84741C25.191 3.84741 25.1298 3.82446 25.1298 3.7963Z" stroke="#A68D6E" stroke-width="2" mask="url(#path-1-inside-1_315_22743)"/>
</svg>
