<svg width="24" height="24" viewBox="0 0 24 24" fill="none" xmlns="http://www.w3.org/2000/svg">
<rect width="24" height="24" rx="8" fill="#E9DABB"/>
<path d="M18 19C18.2761 19 18.5 18.7761 18.5 18.5C18.5 18.2239 18.2761 18 18 18V19ZM6 18C5.72386 18 5.5 18.2239 5.5 18.5C5.5 18.7761 5.72386 19 6 19V18ZM7.21388 18.4995C7.21388 18.7757 7.43774 18.9995 7.71388 18.9995C7.99003 18.9995 8.21388 18.7757 8.21388 18.4995H7.21388ZM7.71388 15.4375H8.21388C8.21388 15.4307 8.21374 15.4238 8.21346 15.417L7.71388 15.4375ZM8.71388 13.6025L8.48784 13.1566C8.47853 13.1613 8.46937 13.1663 8.46037 13.1716L8.71388 13.6025ZM10.9079 12.4905L11.1339 12.9366L11.1377 12.9346L10.9079 12.4905ZM13.0929 12.4905L12.8631 12.9346L12.8671 12.9367L13.0929 12.4905ZM15.2839 13.5996L15.5374 13.1686C15.5283 13.1632 15.5191 13.1582 15.5097 13.1534L15.2839 13.5996ZM16.2839 15.4345L15.7843 15.414C15.784 15.4208 15.7839 15.4277 15.7839 15.4345H16.2839ZM15.7839 18.4995C15.7839 18.7757 16.0077 18.9995 16.2839 18.9995C16.56 18.9995 16.7839 18.7757 16.7839 18.4995H15.7839ZM16.784 4.5C16.784 4.22386 16.5601 4 16.284 4C16.0079 4 15.784 4.22386 15.784 4.5H16.784ZM16.284 8H15.784C15.784 8.00686 15.7841 8.01371 15.7844 8.02056L16.284 8ZM15.284 9.835L15.51 10.281C15.5194 10.2763 15.5285 10.2713 15.5375 10.266L15.284 9.835ZM13.092 10.946L12.8659 10.5L12.8622 10.5019L13.092 10.946ZM10.907 10.946L11.1368 10.5019L11.1331 10.5001L10.907 10.946ZM8.716 9.835L8.46249 10.266C8.47146 10.2712 8.48059 10.2762 8.48987 10.2809L8.716 9.835ZM7.716 8L8.21558 8.02056C8.21586 8.01371 8.216 8.00686 8.216 8H7.716ZM8.216 4.5C8.216 4.22386 7.99214 4 7.716 4C7.43986 4 7.216 4.22386 7.216 4.5H8.216ZM16.287 4C16.0109 4 15.787 4.22386 15.787 4.5C15.787 4.77614 16.0109 5 16.287 5V4ZM18 5C18.2761 5 18.5 4.77614 18.5 4.5C18.5 4.22386 18.2761 4 18 4V5ZM16.286 5C16.5621 5 16.786 4.77614 16.786 4.5C16.786 4.22386 16.5621 4 16.286 4V5ZM7.714 4C7.43786 4 7.214 4.22386 7.214 4.5C7.214 4.77614 7.43786 5 7.714 5V4ZM7.714 5C7.99014 5 8.214 4.77614 8.214 4.5C8.214 4.22386 7.99014 4 7.714 4V5ZM6 4C5.72386 4 5.5 4.22386 5.5 4.5C5.5 4.77614 5.72386 5 6 5V4ZM10.538 8.06813C10.2995 7.92897 9.99329 8.00952 9.85413 8.24803C9.71497 8.48655 9.79552 8.79271 10.034 8.93187L10.538 8.06813ZM12 9.5L11.748 9.93187C11.9037 10.0227 12.0963 10.0227 12.252 9.93187L12 9.5ZM13.966 8.93187C14.2045 8.79271 14.285 8.48655 14.1459 8.24803C14.0067 8.00952 13.7005 7.92897 13.462 8.06813L13.966 8.93187ZM18 18H6V19H18V18ZM8.21388 18.4995V15.4375H7.21388V18.4995H8.21388ZM8.21346 15.417C8.19021 14.852 8.48004 14.3202 8.9674 14.0335L8.46037 13.1716C7.65488 13.6454 7.17588 14.5244 7.21431 15.4581L8.21346 15.417ZM8.93993 14.0485L11.1339 12.9365L10.6818 12.0446L8.48784 13.1566L8.93993 14.0485ZM11.1377 12.9346C11.6787 12.6546 12.322 12.6546 12.8631 12.9346L13.3227 12.0465C12.4934 11.6173 11.5074 11.6173 10.6781 12.0465L11.1377 12.9346ZM12.8671 12.9367L15.0581 14.0457L15.5097 13.1534L13.3187 12.0444L12.8671 12.9367ZM15.0304 14.0305C15.5177 14.3172 15.8076 14.849 15.7843 15.414L16.7835 15.4551C16.8219 14.5214 16.3429 13.6424 15.5374 13.1686L15.0304 14.0305ZM15.7839 15.4345V18.4995H16.7839V15.4345H15.7839ZM15.784 4.5V8H16.784V4.5H15.784ZM15.7844 8.02056C15.8077 8.58552 15.5178 9.11734 15.0305 9.40404L15.5375 10.266C16.343 9.79214 16.822 8.91316 16.7836 7.97944L15.7844 8.02056ZM15.058 9.38901L12.866 10.5L13.318 11.392L15.51 10.281L15.058 9.38901ZM12.8622 10.5019C12.3211 10.7819 11.6779 10.7819 11.1368 10.5019L10.6772 11.3901C11.5065 11.8192 12.4925 11.8192 13.3218 11.3901L12.8622 10.5019ZM11.1331 10.5001L8.94213 9.38906L8.48987 10.2809L10.6809 11.3919L11.1331 10.5001ZM8.96951 9.40404C8.48215 9.11734 8.19233 8.58551 8.21558 8.02056L7.21642 7.97944C7.17799 8.91316 7.657 9.79214 8.46249 10.266L8.96951 9.40404ZM8.216 8V4.5H7.216V8H8.216ZM16.287 5H18V4H16.287V5ZM16.286 4H7.714V5H16.286V4ZM7.714 4H6V5H7.714V4ZM10.034 8.93187L11.748 9.93187L12.252 9.06813L10.538 8.06813L10.034 8.93187ZM12.252 9.93187L13.966 8.93187L13.462 8.06813L11.748 9.06813L12.252 9.93187Z" fill="#080808"/>
</svg>
