<svg width="537" height="21" viewBox="0 0 537 21" fill="none" xmlns="http://www.w3.org/2000/svg">
<path d="M2 19C5.8272 14.6334 9.89223 9.28767 15.0637 6" stroke="#A68D6E" stroke-width="3" stroke-miterlimit="1.5" stroke-linecap="round" stroke-linejoin="round"/>
<path d="M21.1602 15C24.6182 11.4842 28.8525 7.79441 33.353 5" stroke="#A68D6E" stroke-width="3" stroke-miterlimit="1.5" stroke-linecap="round" stroke-linejoin="round"/>
<path d="M37.7075 15C41.2228 11.2439 45.4787 8.01107 49.9003 5" stroke="#A68D6E" stroke-width="3" stroke-miterlimit="1.5" stroke-linecap="round" stroke-linejoin="round"/>
<path d="M54.2549 16C57.0764 12.9818 61.3101 8.75912 65.5768 7" stroke="#A68D6E" stroke-width="3" stroke-miterlimit="1.5" stroke-linecap="round" stroke-linejoin="round"/>
<path d="M69.9314 15C74.0904 11.5226 78.8249 7.73622 83.866 5" stroke="#A68D6E" stroke-width="3" stroke-miterlimit="1.5" stroke-linecap="round" stroke-linejoin="round"/>
<path d="M89.0915 14C93.314 10.1596 97.5661 6.45999 102.155 3" stroke="#A68D6E" stroke-width="3" stroke-miterlimit="1.5" stroke-linecap="round" stroke-linejoin="round"/>
<path d="M104.768 14C109.199 9.79337 114.025 5.08996 119.573 2" stroke="#A68D6E" stroke-width="3" stroke-miterlimit="1.5" stroke-linecap="round" stroke-linejoin="round"/>
<path d="M122.186 14C125.863 10.9229 129.949 7.48498 134.379 5" stroke="#A68D6E" stroke-width="3" stroke-miterlimit="1.5" stroke-linecap="round" stroke-linejoin="round"/>
<path d="M140.475 13C144.379 9.12629 148.925 4.45712 154.41 2" stroke="#A68D6E" stroke-width="3" stroke-miterlimit="1.5" stroke-linecap="round" stroke-linejoin="round"/>
<path d="M153.539 14C156.487 10.9493 159.917 7.21497 163.99 5" stroke="#A68D6E" stroke-width="3" stroke-miterlimit="1.5" stroke-linecap="round" stroke-linejoin="round"/>
<path d="M170.087 15C173.688 11.591 177.353 8.03251 181.409 5" stroke="#A68D6E" stroke-width="3" stroke-miterlimit="1.5" stroke-linecap="round" stroke-linejoin="round"/>
<path d="M185.763 15C189.454 11.6493 192.961 8.00841 197.085 5" stroke="#A68D6E" stroke-width="3" stroke-miterlimit="1.5" stroke-linecap="round" stroke-linejoin="round"/>
<path d="M197.956 16C202.083 12.1068 206.412 8.50177 211.02 5" stroke="#A68D6E" stroke-width="3" stroke-miterlimit="1.5" stroke-linecap="round" stroke-linejoin="round"/>
<path d="M211.02 15C215.256 11.6607 219.357 7.98893 224.083 5" stroke="#A68D6E" stroke-width="3" stroke-miterlimit="1.5" stroke-linecap="round" stroke-linejoin="round"/>
<path d="M227.567 15C230.608 12.0387 234.575 7.84456 238.889 6" stroke="#A68D6E" stroke-width="3" stroke-miterlimit="1.5" stroke-linecap="round" stroke-linejoin="round"/>
<path d="M240.631 16C243.967 12.0383 248.57 7.42123 253.694 5" stroke="#A68D6E" stroke-width="3" stroke-miterlimit="1.5" stroke-linecap="round" stroke-linejoin="round"/>
<path d="M252.824 15C257.038 11.8609 261.282 8.77845 265.887 6" stroke="#A68D6E" stroke-width="3" stroke-miterlimit="1.5" stroke-linecap="round" stroke-linejoin="round"/>
<path d="M270.242 15C274.022 11.7798 278.614 9.20268 282.435 6" stroke="#A68D6E" stroke-width="3" stroke-miterlimit="1.5" stroke-linecap="round" stroke-linejoin="round"/>
<path d="M288.531 14C292.309 10.8826 296.435 7.70403 300.724 5" stroke="#A68D6E" stroke-width="3" stroke-miterlimit="1.5" stroke-linecap="round" stroke-linejoin="round"/>
<path d="M305.078 14C308.263 9.99997 312.062 6.12841 316.4 3" stroke="#A68D6E" stroke-width="3" stroke-miterlimit="1.5" stroke-linecap="round" stroke-linejoin="round"/>
<path d="M318.142 14C321.719 11.2513 325.365 8.31418 329.464 6" stroke="#A68D6E" stroke-width="3" stroke-miterlimit="1.5" stroke-linecap="round" stroke-linejoin="round"/>
<path d="M333.819 14C337.457 10.74 341.683 6.74252 346.882 5" stroke="#A68D6E" stroke-width="3" stroke-miterlimit="1.5" stroke-linecap="round" stroke-linejoin="round"/>
<path d="M350.366 13C354.251 9.64902 358.141 5.71833 362.559 3" stroke="#A68D6E" stroke-width="3" stroke-miterlimit="1.5" stroke-linecap="round" stroke-linejoin="round"/>
<path d="M366.042 13C370.364 9.48692 374.35 4.98466 379.106 2" stroke="#A68D6E" stroke-width="3" stroke-miterlimit="1.5" stroke-linecap="round" stroke-linejoin="round"/>
<path d="M379.106 14C382.999 10.9818 386.661 7.15588 391.299 5" stroke="#A68D6E" stroke-width="3" stroke-miterlimit="1.5" stroke-linecap="round" stroke-linejoin="round"/>
<path d="M398.266 14C401.59 10.8287 405.508 8.25711 408.717 5" stroke="#A68D6E" stroke-width="3" stroke-miterlimit="1.5" stroke-linecap="round" stroke-linejoin="round"/>
<path d="M411.33 15C414.723 11.9843 418.172 8.83377 421.781 6" stroke="#A68D6E" stroke-width="3" stroke-miterlimit="1.5" stroke-linecap="round" stroke-linejoin="round"/>
<path d="M427.877 14C431.674 10.2149 435.608 6.2262 440.07 3" stroke="#A68D6E" stroke-width="3" stroke-miterlimit="1.5" stroke-linecap="round" stroke-linejoin="round"/>
<path d="M440.941 14C444.507 11.0369 448.663 7.02646 453.134 5" stroke="#A68D6E" stroke-width="3" stroke-miterlimit="1.5" stroke-linecap="round" stroke-linejoin="round"/>
<path d="M456.618 14C460.62 10.8993 465.118 7.56534 469.681 5" stroke="#A68D6E" stroke-width="3" stroke-miterlimit="1.5" stroke-linecap="round" stroke-linejoin="round"/>
<path d="M475.778 13C479.663 9.16426 484.117 6.00532 488.841 3" stroke="#A68D6E" stroke-width="3" stroke-miterlimit="1.5" stroke-linecap="round" stroke-linejoin="round"/>
<path d="M492.325 12C496.356 9.63628 500.365 7.22972 504.518 5" stroke="#A68D6E" stroke-width="3" stroke-miterlimit="1.5" stroke-linecap="round" stroke-linejoin="round"/>
<path d="M511.485 14C514.899 11.1496 518.701 8.09889 522.807 6" stroke="#A68D6E" stroke-width="3" stroke-miterlimit="1.5" stroke-linecap="round" stroke-linejoin="round"/>
<path d="M524.549 13C527.982 10.6097 531.564 8.38281 535 6" stroke="#A68D6E" stroke-width="3" stroke-miterlimit="1.5" stroke-linecap="round" stroke-linejoin="round"/>
</svg>
