<svg width="19" height="22" viewBox="0 0 19 22" fill="none" xmlns="http://www.w3.org/2000/svg">
<path id="Vector" d="M14.6089 3.72181C13.8758 2.88134 13.4351 1.78545 13.4351 0.587402H12.5164M14.6089 3.72181C15.277 4.48803 16.1816 5.04529 17.2116 5.26348C17.5317 5.33314 17.8658 5.37033 18.2138 5.37033V8.80654C16.4321 8.80654 14.7804 8.23541 13.4349 7.26951V14.2581C13.4349 17.7501 10.5954 20.5874 7.11103 20.5874C5.2876 20.5874 3.64051 19.8072 2.48523 18.5674C1.43203 17.4344 0.787109 15.9205 0.787109 14.2581C0.787109 10.8172 3.54309 8.01249 6.9579 7.93819M14.6089 3.72181C14.591 3.71017 14.5733 3.69841 14.5556 3.68654M4.77267 15.9391C4.42934 15.4655 4.22519 14.8851 4.22519 14.2535C4.22519 12.6608 5.51966 11.3652 7.11111 11.3652C7.40804 11.3652 7.69567 11.4162 7.96479 11.4998V7.98932C7.68638 7.95213 7.40339 7.92889 7.11111 7.92889C7.06004 7.92889 6.64894 7.95624 6.5979 7.95624M12.5116 0.587402L9.99689 0.587402L9.99224 14.3649C9.9366 15.9066 8.66528 17.1465 7.11103 17.1465C6.14595 17.1465 5.29688 16.6682 4.76796 15.9438" stroke="#080808" stroke-linejoin="round"/>
</svg>
