<svg width="161" height="5" viewBox="0 0 161 5" fill="none" xmlns="http://www.w3.org/2000/svg">
<path fill-rule="evenodd" clip-rule="evenodd" d="M7.49622 1.5828C3.85027 1.69334 1.67822 1.79283 1.32914 1.90338C0.475834 2.14658 2.18244 2.26818 7.57379 2.27923C7.61257 2.27923 147.594 1.37276 147.632 1.37276C153.955 1.29538 154.459 1.19589 154.459 1.00796C154.459 0.764761 152.752 0.598944 149.106 0.521562C144.297 0.399962 34.4529 0.797926 7.49622 1.5828ZM149.998 2.13552C148.292 2.15763 37.2068 2.88723 34.4142 2.95356C0.204323 3.6721 -2.43316 3.78265 1.25157 4.31326C3.03575 4.56752 6.41019 4.56752 21.0328 4.2801C56.2898 3.60578 156.67 3.52839 160.199 3.16359C161.828 2.98672 162.061 2.01392 149.998 2.13552Z" fill="#A68D6E"/>
</svg>
