<svg width="105" height="188" viewBox="0 0 105 188" fill="none" xmlns="http://www.w3.org/2000/svg">
<path fill-rule="evenodd" clip-rule="evenodd" d="M25.0296 121.388C18.5592 87.9502 41.9191 52.9791 77.4279 53.7718C103.426 54.7553 126.424 79.043 117.215 105.818C111.598 121.558 91.0123 134.242 76.5612 121.667C74.6767 119.974 68.5204 111.091 73.0955 109.009C74.1056 108.647 75.1456 109.434 75.9347 109.971C90.3006 119.908 105.722 105.742 99.0715 89.3333C91.2534 71.8639 68.7265 72.6186 56.6189 85.1959C39.5262 104.16 49.0643 132.094 70.36 142.391C99.6171 155.388 130.214 134.014 135.377 103.638C140.489 66.4525 109.665 37.4953 73.7309 38.8976C21.9786 42.6454 -3.63141 99.1849 18.6308 142.847C42.6306 188.792 102.993 197.017 142.114 164.539C162.111 147.6 173.561 122.971 174.201 96.8266C175.05 42.5511 130.34 0.274688 77.277 0.0961642C138.981 -0.116432 187.946 56.9322 171.905 118.879C158.165 169.542 103.513 199.775 54.9679 178.362C12.3128 158.944 -5.30851 104.645 23.5129 65.2983C48.5223 31.8807 99.4677 26.9918 125.678 60.993C147.501 89.6722 137.765 134.821 101.575 146.124C73.1285 154.772 41.9492 133.821 45.6588 102.58C48.8026 81.7955 68.9236 66.4915 89.316 74.2149C100.908 78.9417 104.391 87.3379 107.929 98.292C109.768 103.523 111.67 93.553 111.742 92.4245C112.778 67.0229 84.297 54.2342 62.8438 60.2204C46.9428 64.7605 34.7374 77.4007 29.3607 92.9865C17.7652 127.624 42.2025 162.242 76.4341 169.062C51.3917 164.654 31.243 146.181 25.0296 121.388ZM156.192 71.8558C151.929 58.2971 144.299 46.2899 133.954 36.6642C93.3733 -0.531475 29.436 12.203 0.731183 58.3765C28.1425 15.0263 88.3144 1.34881 128.41 35.7219C161.187 64.2741 164.777 117.137 130.879 146.315C109.327 164.89 71.5599 168.301 52.4642 144.62C50.9139 142.633 50.4873 140.649 53.3248 142.284C71.2017 154.268 92.1378 157.377 111.931 146.557C147.572 126.734 149.721 76.8872 120.347 50.8141C87.1932 21.6417 36.3105 34.8807 15.8297 73.1176C-7.49539 117.714 18.5269 170.708 65.1825 184.108C98.891 193.474 133.409 181.167 154.77 154.18C135.205 177.69 105.267 189.839 75.2011 185.33C52.3124 181.669 32.0634 168.656 19.722 148.902C-5.25117 108.176 12.8403 51.4985 60.5146 38.4925C98.3384 28.5279 138.499 54.4633 139.164 95.0862C139.548 130.413 105.844 159.925 71.4367 147.646C42.3335 137.023 33.2126 102.563 52.2464 78.4643C53.7875 76.5048 62.8441 68.208 54.5755 71.8381C43.3771 76.8622 36.0053 88.9115 33.3882 100.538C25.597 137.387 58.2697 167.86 94.0097 165.923C141.085 163.118 168.76 114.938 156.192 71.8558Z" fill="url(#paint0_linear_327_45581)"/>
<defs>
<linearGradient id="paint0_linear_327_45581" x1="-31.8439" y1="27.6565" x2="188.642" y2="100.682" gradientUnits="userSpaceOnUse">
<stop stop-color="#FFE793" stop-opacity="0"/>
<stop offset="1" stop-color="#FFDF44"/>
</linearGradient>
</defs>
</svg>
