<svg width="7" height="118" viewBox="0 0 7 118" fill="none" xmlns="http://www.w3.org/2000/svg">
<path fill-rule="evenodd" clip-rule="evenodd" d="M0.598892 0.510884C0.454382 0.585382 0.466424 0.883378 0.647061 1.40486C0.978227 2.38822 1.44788 2.34353 3.00136 2.52232C2.98329 4.81684 2.97733 7.11134 2.86293 12.0878C2.68229 20.1931 2.72438 40.6798 2.93512 49.2619C3.03146 53.1805 3.17597 115.267 3.17597 115.267C0.129236 115.401 1.77303 117.025 2.10419 117.144C2.46547 117.263 3.09167 117.323 4.28989 117.412C6.57193 117.576 6.58398 117.576 6.45753 116.831C6.22872 115.475 5.69284 115.55 4.25979 115.416C4.25979 115.416 3.7059 21.4595 3.86245 13.2499C3.9347 9.37607 3.90454 7.08154 3.74799 4.11655C3.71788 3.50567 3.68777 2.90971 3.68777 2.79051C3.68777 2.58192 4.07915 2.59682 5.92164 2.67131C6.9031 2.71601 6.27696 0.928077 5.81332 0.883378C3.48311 0.644979 0.737379 0.451286 0.598892 0.510884Z" fill="#A68D6E"/>
</svg>
