<svg width="21" height="22" viewBox="0 0 21 22" fill="none" xmlns="http://www.w3.org/2000/svg">
<path d="M2.49971 16.588L2.94693 16.8116L3.08525 16.5349L2.89947 16.2877L2.49971 16.588ZM4.49943 18.5877L4.79974 18.1879L4.55246 18.0022L4.27582 18.1405L4.49943 18.5877ZM0.5 20.5874L0.0527864 20.3638C-0.0434607 20.5563 -0.00573349 20.7888 0.146447 20.941C0.298627 21.0931 0.531112 21.1309 0.723607 21.0346L0.5 20.5874ZM6.5 6.58741L6.2 6.18741C6.0741 6.28184 6 6.43003 6 6.58741H6.5ZM14.5 14.5874V15.0874C14.6475 15.0874 14.7875 15.0223 14.8825 14.9095L14.5 14.5874ZM7.12146 6.12132L6.82146 5.72132L7.12146 6.12132ZM8.71373 6.79729L8.21759 6.8593L8.71373 6.79729ZM8.93934 8.60211L9.43548 8.54009L8.93934 8.60211ZM8.65417 9.43325L8.30061 9.07969L8.30061 9.07969L8.65417 9.43325ZM14.9433 14.061L14.5608 13.7389L14.9433 14.061ZM14.3232 12.4274L14.3956 11.9327L14.3232 12.4274ZM12.4968 12.1601L12.5692 11.6654L12.4968 12.1601ZM11.6449 12.4425L11.9985 12.796L11.6449 12.4425ZM1.2219e-05 10.5874C1.2219e-05 12.9509 0.781494 15.1333 2.09995 16.8883L2.89947 16.2877C1.70665 14.6999 1.00001 12.7269 1.00001 10.5874H1.2219e-05ZM10.5 0.0874023C4.70102 0.0874023 1.2219e-05 4.78841 1.2219e-05 10.5874H1.00001C1.00001 5.3407 5.25331 1.0874 10.5 1.0874V0.0874023ZM21 10.5874C21 4.78841 16.299 0.0874023 10.5 0.0874023V1.0874C15.7467 1.0874 20 5.3407 20 10.5874H21ZM10.5 21.0874C16.299 21.0874 21 16.3864 21 10.5874H20C20 15.8341 15.7467 20.0874 10.5 20.0874V21.0874ZM4.19911 18.9875C5.95415 20.3059 8.13654 21.0874 10.5 21.0874V20.0874C8.36054 20.0874 6.38755 19.3808 4.79974 18.1879L4.19911 18.9875ZM0.723607 21.0346L4.72303 19.0349L4.27582 18.1405L0.276393 20.1402L0.723607 21.0346ZM2.0525 16.3644L0.0527864 20.3638L0.947214 20.811L2.94693 16.8116L2.0525 16.3644ZM6 6.58741V7.58741H7V6.58741H6ZM13.5 15.0874H14.5V14.0874H13.5V15.0874ZM6 7.58741C6 11.7295 9.35786 15.0874 13.5 15.0874V14.0874C9.91015 14.0874 7 11.1773 7 7.58741H6ZM6.8 6.98741L7.42146 6.52132L6.82146 5.72132L6.2 6.18741L6.8 6.98741ZM8.21759 6.8593L8.4432 8.66412L9.43548 8.54009L9.20987 6.73527L8.21759 6.8593ZM8.30061 9.07969L7.14645 10.2339L7.85355 10.941L9.00772 9.7868L8.30061 9.07969ZM8.4432 8.66412C8.46234 8.81723 8.40972 8.97059 8.30061 9.07969L9.00772 9.7868C9.33503 9.45949 9.49289 8.9994 9.43548 8.54009L8.4432 8.66412ZM7.42146 6.52132C7.72858 6.29097 8.16998 6.47836 8.21759 6.8593L9.20987 6.73527C9.06702 5.59243 7.74284 5.03028 6.82146 5.72132L7.42146 6.52132ZM14.8825 14.9095L15.3258 14.3831L14.5608 13.7389L14.1175 14.2653L14.8825 14.9095ZM14.3956 11.9327L12.5692 11.6654L12.4244 12.6549L14.2508 12.9221L14.3956 11.9327ZM11.2914 12.0889L10.1464 13.2339L10.8536 13.941L11.9985 12.796L11.2914 12.0889ZM12.5692 11.6654C12.1003 11.5968 11.6265 11.7538 11.2914 12.0889L11.9985 12.796C12.1102 12.6843 12.2681 12.632 12.4244 12.6549L12.5692 11.6654ZM15.3258 14.3831C16.0829 13.4839 15.5587 12.1029 14.3956 11.9327L14.2508 12.9221C14.6385 12.9789 14.8132 13.4392 14.5608 13.7389L15.3258 14.3831Z" fill="#080808"/>
</svg>
