<svg width="22" height="16" viewBox="0 0 22 16" fill="none" xmlns="http://www.w3.org/2000/svg">
<g id="Vector">
<path id="Vector-20" fill-rule="evenodd" clip-rule="evenodd" d="M16.9678 14.5902C19.2722 14.6741 21.2098 12.8774 21.2998 10.5732V4.60722C21.2098 2.30309 19.2722 0.506331 16.9678 0.590225H5.6318C3.32744 0.506331 1.38979 2.30309 1.2998 4.60722V10.5732C1.38979 12.8774 3.32744 14.6741 5.6318 14.5902H16.9678Z" stroke="#080808" stroke-linecap="round" stroke-linejoin="round"/>
<path id="Vector-21" fill-rule="evenodd" clip-rule="evenodd" d="M10.8078 4.76549L13.9688 6.91349C14.1736 7.03306 14.2995 7.25236 14.2995 7.48949C14.2995 7.72662 14.1736 7.94592 13.9688 8.06549L10.8078 10.4155C10.2078 10.8225 9.2998 10.4755 9.2998 9.83949V5.33949C9.2998 4.70649 10.2088 4.35849 10.8078 4.76549Z" stroke="#080808" stroke-linecap="round" stroke-linejoin="round"/>
</g>
</svg>
