<svg width="21" height="16" viewBox="0 0 21 16" fill="none" xmlns="http://www.w3.org/2000/svg">
<g id="Vector">
<path id="Vector-20" fill-rule="evenodd" clip-rule="evenodd" d="M16.168 14.9013C18.4724 14.9852 20.41 13.1884 20.5 10.8843V4.91826C20.41 2.61412 18.4724 0.817367 16.168 0.90126H4.832C2.52763 0.817367 0.589981 2.61412 0.5 4.91826V10.8843C0.589981 13.1884 2.52763 14.9852 4.832 14.9013H16.168Z" stroke="#080808" stroke-linecap="round" stroke-linejoin="round"/>
<path id="Vector-21" fill-rule="evenodd" clip-rule="evenodd" d="M10.008 5.07652L13.169 7.22452C13.3738 7.34409 13.4997 7.56339 13.4997 7.80052C13.4997 8.03765 13.3738 8.25696 13.169 8.37652L10.008 10.7265C9.408 11.1335 8.5 10.7865 8.5 10.1505V5.65052C8.5 5.01752 9.409 4.66952 10.008 5.07652Z" stroke="#080808" stroke-linecap="round" stroke-linejoin="round"/>
</g>
</svg>
