<svg width="21" height="16" viewBox="0 0 21 16" fill="none" xmlns="http://www.w3.org/2000/svg">
<path fill-rule="evenodd" clip-rule="evenodd" d="M16.168 14.5902C18.4724 14.6741 20.41 12.8774 20.5 10.5732V4.60722C20.41 2.30309 18.4724 0.506331 16.168 0.590225H4.832C2.52763 0.506331 0.589981 2.30309 0.5 4.60722V10.5732C0.589981 12.8774 2.52763 14.6741 4.832 14.5902H16.168Z" stroke="#080808" stroke-linecap="round" stroke-linejoin="round"/>
<path fill-rule="evenodd" clip-rule="evenodd" d="M10.008 4.76549L13.169 6.91349C13.3738 7.03306 13.4997 7.25236 13.4997 7.48949C13.4997 7.72662 13.3738 7.94592 13.169 8.06549L10.008 10.4155C9.408 10.8225 8.5 10.4755 8.5 9.83949V5.33949C8.5 4.70649 9.409 4.35849 10.008 4.76549Z" stroke="#080808" stroke-linecap="round" stroke-linejoin="round"/>
</svg>
